<?xml version="1.0" encoding="utf-8"?>
<svg viewBox="0 0 170 170" xmlns="http://www.w3.org/2000/svg">
  <defs>
    <polygon id="path-1" points="4.00129961e-05 0.0297696691 76.9661983 0.0297696691 76.9661983 4.01119615 4.00129961e-05 4.01119615"/>
    <polygon id="path-3" points="0.10078544 0.0182726015 12.5700027 0.0182726015 12.5700027 12.4877093 0.10078544 12.4877093"/>
    <polygon id="path-5" points="0.191451476 0.191451476 43.1029032 0.191451476 43.1029032 3.87495492 0.191451476 3.87495492"/>
  </defs>
  <g id="Landing-page" stroke="none" stroke-width="1" fill="none" fill-rule="evenodd" transform="matrix(1, 0, 0, 1, 3.519963, 25.837509)">
    <g id="Landing-page---v2" transform="translate(-639.000000, -1928.000000)">
      <g id="Group-26" transform="translate(180.000000, 1674.250000)">
        <g id="Group-29" transform="translate(0.000000, 150.000000)">
          <g id="Group-391" transform="translate(460.000000, 104.000000)">
            <path d="M14.7558525,88.7658669 L146.819345,88.7658669 L146.819345,10.1856608 C146.819345,4.66281328 142.342192,0.18566078 136.819345,0.18566078 L24.7558525,0.18566078 C19.233005,0.18566078 14.7558525,4.66281328 14.7558525,10.1856608 L14.7558525,88.7658669 Z" id="Fill-2-Copy" fill="#1E87F0" opacity="0.241141183"/>
            <path d="M2.87848325,111.62301 L157.057907,111.62301 C158.714761,111.62301 160.057907,110.279864 160.057907,108.62301 C160.057907,108.000855 159.864477,107.394091 159.504398,106.886726 L146.643959,88.7658669 L15.2963289,88.7658669 L0.559606462,106.719642 C-0.491594762,108.000322 -0.305565226,109.890685 0.975115059,110.941887 C1.51166411,111.382294 2.18433375,111.62301 2.87848325,111.62301 Z" id="Fill-2" fill="#1E87F0" opacity="0.483165923"/>
            <g id="Group-93" transform="translate(23.384680, 16.501425)">
              <path d="M75.0350111,78.1037145 C75.0350111,80.9231635 59.3896629,83.2087059 40.0903279,83.2087059 C20.7908595,83.2087059 5.14564462,80.9231635 5.14564462,78.1037145 C5.14564462,75.2842654 20.7908595,72.998723 40.0903279,72.998723 C59.3896629,72.998723 75.0350111,75.2842654 75.0350111,78.1037145" id="Fill-1" fill="#000000" opacity="0.12"/>
              <path d="M17.5427645,4.80809498 L16.894554,6.94825677 L13.8142201,6.01368656 C11.6392471,5.35427238 9.29795327,6.06116865 7.85068321,7.81293761 C7.02094704,8.81739719 6.56413201,10.0886101 6.56413201,11.3919667 L6.56413201,53.3046465 L4.32900605,53.3046465 L4.32900605,11.3919667 C4.32900605,9.5703084 4.96881385,7.79479839 6.1282571,6.39087573 C8.15104743,3.94061323 11.4227767,2.95295911 14.4624307,3.87485854 L17.5427645,4.80809498 Z" id="Fill-3" fill="#F1F1F2"/>
              <path d="M6.56414534,48.5984246 L6.56414534,53.2864806 C6.55987729,53.2935495 6.55440885,53.2991514 6.54733988,53.3046198 L4.32901938,53.3046198 L4.32901938,49.1962187 C4.48413643,49.164075 4.64338816,49.1487367 4.80677456,49.1487367 C5.16582451,49.1487367 5.50660186,49.2284959 5.81390167,49.3680079 C6.0039634,49.0593743 6.26098021,48.7954219 6.56414534,48.5984246" id="Fill-5" fill="#CFD0D2"/>
              <path d="M74.8758394,51.6283154 C74.8758394,50.2782769 73.7812172,49.1836547 72.4311787,49.1836547 C71.9590254,49.1836547 71.5196827,49.3196989 71.1459613,49.5516409 C70.0306657,48.5835931 68.5759265,47.9963357 66.9830092,47.9963357 C66.6311616,47.9963357 66.2862495,48.0260787 65.9498736,48.0811632 C65.546676,47.2854381 64.7230751,46.738994 63.7699656,46.738994 C62.7711078,46.738994 61.9134959,47.3389222 61.5341727,48.1974677 C60.7445829,47.8456201 59.8708325,47.6484894 58.9505336,47.6484894 C58.3831493,47.6484894 57.8335041,47.7238472 57.3100007,47.8632258 C56.9509508,46.9597323 56.0705315,46.3199245 55.0389965,46.3199245 C53.904628,46.3199245 52.9535191,47.0937759 52.6775628,48.1415829 C51.9213172,47.8242798 51.0910475,47.6484894 50.2195645,47.6484894 C49.927603,47.6484894 49.6408432,47.6698297 49.359285,47.7079754 C49.2163053,46.4939811 48.1855705,45.5515416 46.9330303,45.5515416 C46.1172987,45.5515416 45.3969314,45.9526052 44.9526538,46.5668047 C43.8130837,45.4840531 42.2732502,44.8181034 40.5769659,44.8181034 C39.0236614,44.8181034 37.6013328,45.376018 36.4972408,46.3013852 C36.059632,45.6403705 35.3101886,45.2038287 34.4580452,45.2038287 C34.2407746,45.2038287 34.0311065,45.2347721 33.830508,45.2881227 C33.6183058,44.4818609 32.8863347,43.8863341 32.0133845,43.8863341 C31.2016542,43.8863341 30.5119635,44.4015681 30.2484112,45.1220688 C29.8985643,44.9289394 29.4967004,44.8181034 29.0686947,44.8181034 C28.2442936,44.8181034 27.5168574,45.2274364 27.0740469,45.8524394 C25.9138034,44.3160737 24.072672,43.3228178 21.9990652,43.3228178 C19.0494405,43.3228178 16.5697018,45.3322704 15.8525355,48.0567553 C15.56871,48.0180761 15.279416,47.9963357 14.9849204,47.9963357 C13.0417559,47.9963357 11.3033246,48.8691525 10.1374793,50.2431988 C9.76295764,49.3737164 8.8988103,48.7645852 7.89194994,48.7645852 C7.01286442,48.7645852 6.24461489,49.2300697 5.8138083,49.9262959 C5.50637512,49.7870506 5.16613127,49.7075582 4.80668119,49.7075582 C3.4566427,49.7075582 2.36215389,50.802047 2.36215389,52.1522188 C2.36215389,53.5023907 3.4566427,54.5968795 4.80668119,54.5968795 C5.68576672,54.5968795 6.45401624,54.1315284 6.88482283,53.4351689 C7.19225602,53.5744141 7.53249986,53.65404 7.89194994,53.65404 C8.16990689,53.65404 8.43585994,53.6053575 8.68487415,53.5199964 C8.64912921,53.7926183 8.62885595,54.0700417 8.62885595,54.3524001 C8.62885595,57.8627403 11.4745802,60.7085979 14.9849204,60.7085979 C17.9346785,60.7085979 20.4142838,58.6990119 21.1314501,55.974527 C21.4152756,56.0133396 21.7045696,56.0349466 21.9990652,56.0349466 C23.3468363,56.0349466 24.5957753,55.61441 25.6239759,54.8988443 C26.2163016,57.7957852 28.7792674,59.9751597 31.8511985,59.9751597 C34.2482437,59.9751597 36.3345213,58.6479286 37.417273,56.6886256 C38.348242,57.2231992 39.4263255,57.530499 40.5769659,57.530499 C41.9684845,57.530499 43.2549024,57.0819533 44.3017757,56.3233069 C45.2284767,58.6866079 47.5277568,60.3607516 50.2195645,60.3607516 C51.9106471,60.3607516 53.4463458,59.69907 54.5849823,58.6220536 C55.7237522,59.69907 57.259451,60.3607516 58.9505336,60.3607516 C60.3772636,60.3607516 61.6942247,59.8905989 62.7548359,59.0968744 C63.8784008,60.0987999 65.3591484,60.7085979 66.9830092,60.7085979 C70.4934827,60.7085979 73.339207,57.8627403 73.339207,54.3524001 C73.339207,54.2012844 73.3320046,54.0517691 73.3216013,53.9033209 C74.2308299,53.5470719 74.8758394,52.6639851 74.8758394,51.6283154" id="Fill-9" fill="#FFFFFF"/>
              <path d="M21.3410782,72.4150135 L21.3410782,78.1635472 C21.3410782,79.2041519 20.4960037,80.0493597 19.4552657,80.0493597 C18.4145276,80.0493597 17.5706535,79.2041519 17.5706535,78.1635472 L17.5706535,72.4150135 C17.5706535,71.3742754 18.4145276,70.5305347 19.4552657,70.5305347 C19.9762349,70.5305347 20.4470545,70.7414032 20.7879652,71.0823139 C21.1302097,71.4230913 21.3410782,71.895378 21.3410782,72.4150135" id="Fill-11" fill="#F1F1F2"/>
              <path d="M59.3955581,72.4150135 L59.3955581,78.1635472 C59.3955581,79.2041519 58.5518174,80.0493597 57.510946,80.0493597 C56.470208,80.0493597 55.6250001,79.2041519 55.6250001,78.1635472 L55.6250001,72.4150135 C55.6250001,71.3742754 56.470208,70.5305347 57.510946,70.5305347 C58.0320486,70.5305347 58.5028682,70.7414032 58.8436455,71.0823139 C59.1845563,71.4230913 59.3955581,71.895378 59.3955581,72.4150135" id="Fill-13" fill="#F1F1F2"/>
              <path d="M20.7878985,71.0822873 C21.130143,71.423198 21.3410115,71.8953513 21.3410115,72.4149868 L21.3410115,77.4328832 C20.0432566,77.1912047 18.7832474,76.8420247 17.5707202,76.393479 L17.5707202,72.4149868 C17.5707202,71.3742488 18.4144609,70.530508 19.455199,70.530508 C19.9763016,70.530508 20.4469878,70.7413765 20.7878985,71.0822873" id="Fill-15" fill="#A2A4A7"/>
              <path d="M59.3955581,72.4150135 L59.3955581,76.3935057 C58.1828976,76.841918 56.9228883,77.1912314 55.6250001,77.4329099 L55.6250001,72.4150135 C55.6250001,71.3742754 56.470208,70.5305347 57.510946,70.5305347 C58.0320486,70.5305347 58.5028682,70.7414032 58.8436455,71.0823139 C59.1845563,71.4230913 59.3955581,71.895378 59.3955581,72.4150135" id="Fill-17" fill="#A2A4A7"/>
              <path d="M74.6041378,54.0046072 C74.6041378,54.7812594 74.5663922,55.5509761 74.490901,56.3081553 C74.4867664,56.3541703 74.4811645,56.4017858 74.4770299,56.4478007 C73.9084452,61.8974374 71.4596498,66.7852916 67.7897912,70.4536831 C63.5808241,74.6641173 57.7638682,77.2680297 51.3392481,77.2680297 L25.6270302,77.2680297 C13.6019245,77.2680297 3.71017839,68.147334 2.49058227,56.4478007 C2.48498045,56.4017858 2.47937863,56.3541703 2.47524395,56.3081553 C2.39988614,55.5509761 2.36214055,54.7812594 2.36214055,54.0046072 L74.6041378,54.0046072 Z" id="Fill-19" fill="#F1F1F2"/>
              <path d="M3.45590913,54.0046072 L2.3620872,54.0046072 C2.3620872,54.7812594 2.39983279,55.5509761 2.4751906,56.3081553 C2.47945865,56.3541703 2.48506047,56.4017858 2.49066229,56.4478007 L2.49066229,56.4478007 C3.71199231,68.1472006 13.6024047,77.2680297 25.6269769,77.2680297 L51.3393282,77.2680297 C57.7639482,77.2680297 63.5807708,74.6641173 67.7898712,70.4536831 C68.9115689,69.3319854 69.9201631,68.097051 70.7945805,66.7658186 C70.1897174,67.5466056 69.535905,68.2897803 68.8375448,68.98694 C64.6285778,73.1972409 58.8114884,75.8012866 52.3870018,75.8012866 L26.6746505,75.8012866 C15.9773094,75.8012866 6.96838331,68.5829422 4.25003373,58.7522825 C3.92992976,57.5945732 4.78954229,56.4478007 5.99059906,56.4478007 L74.4769765,56.4478007 C74.4812446,56.4017858 74.4868464,56.3541703 74.4909811,56.3081553 C74.5663389,55.5509761 74.6040845,54.7812594 74.6040845,54.0046072 L3.45590913,54.0046072 Z" id="Fill-21" fill="#D7D8DA"/>
              <g id="Group-25" transform="translate(0.000000, 51.598492)">
                <mask id="mask-2" fill="white">
                  <polygon points="0 0.03 76.966 0.03 76.966 4.011 0 4.011"/>
                </mask>
                <g id="Clip-24"/>
                <path d="M75.065621,4.01119615 L1.90065733,4.01119615 C0.855251116,4.01119615 4.00129961e-05,3.15585168 4.00129961e-05,2.11057884 L4.00129961e-05,1.93038698 C4.00129961e-05,0.885247525 0.855251116,0.0297696691 1.90065733,0.0297696691 L75.065621,0.0297696691 C76.1108939,0.0297696691 76.9662383,0.885247525 76.9662383,1.93038698 L76.9662383,2.11057884 C76.9662383,3.15585168 76.1108939,4.01119615 75.065621,4.01119615" id="Fill-23" fill="#1E87F0" mask="url(#mask-2)"/>
              </g>
              <g id="Group-28" transform="translate(11.870522, 0.115104)">
                <mask id="mask-4" fill="white">
                  <polygon points="0.101 0.018 12.57 0.018 12.57 12.488 0.101 12.488"/>
                </mask>
                <g id="Clip-27"/>
                <path d="M12.5700027,0.881139524 L0.963432919,12.4877093 C0.678940517,11.9958162 0.465537872,11.4663109 0.322291346,10.9121309 C-0.356329068,8.2915464 0.532759705,5.13252036 2.87378673,2.79149333 C5.21388012,0.451399946 8.37290616,-0.4395561 10.9924236,0.23999795 C11.5466036,0.383244476 12.0770426,0.595580109 12.5700027,0.881139524" id="Fill-26" fill="#F1F1F2" mask="url(#mask-4)"/>
              </g>
              <path d="M24.4405249,0.996243576 L12.8339551,12.6028133 C12.5494627,12.1109202 12.33606,11.5814149 12.1928135,11.0272349 C12.6590983,9.13662087 14.1447808,6.72050279 16.3514976,4.51378606 C18.5572807,2.30800296 20.9723317,0.823387433 22.8629458,0.355102002 C23.4171258,0.498348528 23.9475647,0.710684161 24.4405249,0.996243576" id="Fill-29" fill="#A2A4A7"/>
              <path d="M22.3772147,10.5391297 C18.7768453,14.1393657 14.6200285,15.8197782 13.0924657,14.2922154 C11.5650363,12.7646526 13.2453154,8.60783579 16.8455514,5.00746641 C20.4459208,1.4072304 24.6028709,-0.273182062 26.1303004,1.25438075 C27.6578632,2.78194356 25.9775841,6.93876035 22.3772147,10.5391297" id="Fill-31" fill="#F1F1F2"/>
              <path d="M22.0203921,10.1822405 C18.9108488,13.2916504 15.377968,14.8002737 14.1292958,13.5517349 C12.880757,12.3030627 14.3892469,8.77018186 17.4987902,5.66063855 C20.6082001,2.55122863 24.1412143,1.0426053 25.3897532,2.29127753 C26.6384254,3.53981639 25.1298021,7.07283056 22.0203921,10.1822405" id="Fill-33" fill="#FFFFFF"/>
              <path d="M23.6968567,4.69471149 C23.405562,4.9860061 23.098529,5.12498458 23.0102336,5.00387857 C22.9208713,4.88157218 23.0885257,4.54079483 23.3855555,4.2438984 C23.682452,3.94686859 23.9914857,3.81095778 24.0751128,3.93899937 C24.1578064,4.06570719 23.9881513,4.40341688 23.6968567,4.69471149" id="Fill-35" fill="#FBBB76"/>
              <path d="M24.1578064,5.3622483 C23.8749145,5.64514019 23.5786849,5.78278489 23.4954579,5.66861448 C23.4112972,5.55337705 23.5761508,5.22540386 23.8642444,4.93717691 C24.1524713,4.64894996 24.4505681,4.51410616 24.5293937,4.63467866 C24.6074191,4.75418414 24.4406982,5.07935642 24.1578064,5.3622483" id="Fill-37" fill="#FBBB76"/>
              <path d="M16.5328098,11.8586917 C16.2415152,12.1499863 15.9038055,12.3197748 15.7770977,12.2369478 C15.6491895,12.1533207 15.7851003,11.844287 16.0819967,11.5473905 C16.3788931,11.2503607 16.7196705,11.0828397 16.8419769,11.1720686 C16.9630829,11.260364 16.8241044,11.567397 16.5328098,11.8586917" id="Fill-39" fill="#FBBB76"/>
              <path d="M17.2003466,12.3197214 C16.9174547,12.6026133 16.5922824,12.7693341 16.4729103,12.6913088 C16.3522045,12.6124832 16.4871816,12.3143863 16.7752752,12.0261594 C17.0636355,11.7379324 17.3916087,11.5732123 17.5068462,11.6573729 C17.6208832,11.7406 17.4832385,12.0368295 17.2003466,12.3197214" id="Fill-41" fill="#FBBB76"/>
              <path d="M22.3497391,6.04182903 C22.0584445,6.33312364 21.7456762,6.47783731 21.6500452,6.36406703 C21.5536139,6.24896297 21.7152664,5.9140542 22.0121628,5.61715777 C22.3090592,5.32026133 22.6242283,5.17834858 22.7150578,5.29905445 C22.8049536,5.41855993 22.6410337,5.75053442 22.3497391,6.04182903" id="Fill-43" fill="#FBBB76"/>
              <path d="M21.8952848,5.47016336 C21.5963878,5.76906044 21.2732161,5.91510787 21.1726501,5.79533564 C21.0708837,5.67396288 21.2346703,5.32758371 21.5395693,5.02281806 C21.8444683,4.71778565 22.1700407,4.57493926 22.2658052,4.70218058 C22.3605026,4.82795477 22.1941819,5.17126627 21.8952848,5.47016336" id="Fill-45" fill="#FBBB76"/>
              <path d="M22.8495681,6.67048655 C22.5666762,6.95337843 22.2651116,7.09649158 22.174949,6.98925675 C22.0839861,6.88082153 22.2431045,6.55845016 22.5313314,6.27022321 C22.8195584,5.98199626 23.123257,5.84141727 23.2088848,5.95518756 C23.2937124,6.06789083 23.13246,6.38759467 22.8495681,6.67048655" id="Fill-47" fill="#FBBB76"/>
              <path d="M23.3214014,7.26390596 C23.0463787,7.53892862 22.7552175,7.68030787 22.6701232,7.57907499 C22.5842286,7.47664172 22.7408128,7.16600749 23.0209038,6.8860499 C23.3008614,6.60595892 23.5938899,6.46684707 23.6748495,6.57434866 C23.7548755,6.68064985 23.5962907,6.98901667 23.3214014,7.26390596" id="Fill-49" fill="#FBBB76"/>
              <path d="M20.8720458,7.51952231 C20.5807512,7.81081692 20.2615809,7.9617993 20.1580806,7.85589823 C20.0536467,7.74893016 20.2087637,7.42055684 20.5056602,7.12366041 C20.8025566,6.82676397 21.1242611,6.67831576 21.2230932,6.79101903 C21.3208583,6.90265529 21.1633404,7.2282277 20.8720458,7.51952231" id="Fill-51" fill="#FBBB76"/>
              <path d="M20.3788456,6.98666924 C20.0799486,7.28556632 19.7502415,7.43828259 19.6411394,7.32664633 C19.5309703,7.21394306 19.6879546,6.8743661 19.9927202,6.56960045 C20.2977526,6.26456804 20.6301273,6.11478606 20.7342944,6.23362466 C20.8373946,6.35112949 20.6777427,6.68777216 20.3788456,6.98666924" id="Fill-53" fill="#FBBB76"/>
              <path d="M21.4144753,8.10559267 C21.1315835,8.38848455 20.8240169,8.53759965 20.7263852,8.43770053 C20.6279532,8.33686778 20.7809362,8.02063174 21.0691632,7.73240479 C21.3572568,7.44431122 21.6672241,7.29746352 21.760321,7.40376472 C21.8526176,7.50899889 21.6973672,7.82270078 21.4144753,8.10559267" id="Fill-55" fill="#FBBB76"/>
              <path d="M21.9264816,8.65882569 C21.651459,8.93384835 21.3546959,9.0809628 21.2625327,8.9866655 C21.1695691,8.89143457 21.3204181,8.58653554 21.6003757,8.30644457 C21.8803333,8.02648697 22.1793638,7.88150655 22.267259,7.98193917 C22.3543539,8.0811714 22.2013709,8.38380303 21.9264816,8.65882569" id="Fill-57" fill="#FBBB76"/>
              <path d="M19.3942859,8.9972156 C19.1029912,9.28851021 18.7775522,9.44589466 18.6661827,9.34786282 C18.5536128,9.24889734 18.7021944,8.92705948 18.9992242,8.63016304 C19.2961206,8.33313324 19.6242272,8.17828294 19.7310619,8.28298362 C19.8368296,8.38661728 19.6855805,8.70592098 19.3942859,8.9972156" id="Fill-59" fill="#FBBB76"/>
              <path d="M18.8624064,8.50310844 C18.5635094,8.80200553 18.2270001,8.96139063 18.1096286,8.8581571 C17.9910568,8.75372318 18.1411055,8.42121518 18.4460045,8.11631615 C18.7509036,7.81141712 19.0902138,7.65469955 19.2027837,7.76500204 C19.3141532,7.87423752 19.1613035,8.20421136 18.8624064,8.50310844" id="Fill-61" fill="#FBBB76"/>
              <path d="M19.8591435,6.42503349 C19.5521105,6.73206655 19.2110663,6.88638334 19.0960957,6.76874513 C18.9797912,6.64963978 19.1385095,6.2981923 19.4518112,5.98502391 C19.7649796,5.67172215 20.1090914,5.52047303 20.2189937,5.64584708 C20.3276957,5.76975399 20.1660432,6.11813381 19.8591435,6.42503349" id="Fill-63" fill="#FBBB76"/>
              <path d="M18.301811,7.98237931 C17.9949113,8.28927899 17.6467983,8.45066474 17.5230247,8.3418294 C17.3977841,8.23166028 17.5492999,7.88754851 17.8626017,7.57424675 C18.1757701,7.26094499 18.5269508,7.10249353 18.6459228,7.21893135 C18.7632942,7.33416878 18.6088441,7.67534626 18.301811,7.98237931" id="Fill-65" fill="#FBBB76"/>
              <path d="M19.9793692,9.54068545 C19.6964773,9.82357733 19.3827755,9.97869438 19.277808,9.88626436 C19.1717736,9.7929007 19.3186213,9.48293335 19.6068482,9.19470641 C19.8950752,8.90647946 20.2110445,8.75362981 20.3118772,8.85232854 C20.4115096,8.95009362 20.2622611,9.25779356 19.9793692,9.54068545" id="Fill-67" fill="#FBBB76"/>
              <path d="M20.5315619,10.0537454 C20.2565392,10.3287681 19.954041,10.4814843 19.8549421,10.394256 C19.7547763,10.306094 19.8998901,10.0069302 20.1798477,9.72697262 C20.4598053,9.44701502 20.7645709,9.2962994 20.8596685,9.38952968 C20.9538324,9.48169295 20.8065846,9.77872276 20.5315619,10.0537454" id="Fill-69" fill="#FBBB76"/>
              <path d="M22.3499925,9.11646766 C22.0816387,9.38482149 21.7935451,9.53033542 21.7057833,9.44043955 C21.6172212,9.34974343 21.7662029,9.05404739 22.0393583,8.780892 C22.3126471,8.50773661 22.6026079,8.36435671 22.6863684,8.4598544 C22.7693287,8.55455182 22.6183464,8.84811383 22.3499925,9.11646766" id="Fill-71" fill="#FBBB76"/>
              <path d="M20.988417,10.4781099 C20.7200631,10.7464637 20.4266345,10.8973127 20.3320704,10.8142191 C20.2367061,10.7301918 20.3802194,10.4400976 20.6533748,10.1669422 C20.9265302,9.8937868 21.2220929,9.74480508 21.3126556,9.83363393 C21.4022847,9.92152914 21.2567708,10.2097561 20.988417,10.4781099" id="Fill-73" fill="#FBBB76"/>
              <path d="M17.9165926,10.4749756 C17.625298,10.7662702 17.2934569,10.9300567 17.1742181,10.8398941 C17.0536456,10.7487978 17.1956918,10.4334954 17.4927216,10.136599 C17.789618,9.83970257 18.1243934,9.67818344 18.2390973,9.77488151 C18.3527342,9.87064595 18.2078872,10.183681 17.9165926,10.4749756" id="Fill-75" fill="#FBBB76"/>
              <path d="M17.3459672,10.019561 C17.0470702,10.3184581 16.703892,10.484512 16.5782512,10.3896812 C16.4512766,10.29365 16.5943898,9.96794422 16.8992888,9.66304519 C17.2041879,9.35827953 17.5504336,9.194493 17.6714063,9.29652614 C17.7910451,9.39735889 17.6448643,9.7206639 17.3459672,10.019561" id="Fill-77" fill="#FBBB76"/>
              <path d="M18.5441964,10.9758583 C18.2613045,11.2587501 17.9417341,11.4198691 17.8292976,11.3347748 C17.715794,11.2490136 17.856373,10.9451816 18.1446,10.6569547 C18.4328269,10.3687277 18.7550649,10.2096094 18.8632334,10.300839 C18.9703348,10.391135 18.8270883,10.6929664 18.5441964,10.9758583" id="Fill-79" fill="#FBBB76"/>
              <path d="M19.1366422,11.4485985 C18.8617529,11.7236211 18.5535194,11.8820726 18.4473516,11.8017798 C18.3401168,11.7208202 18.479362,11.427525 18.7593196,11.1475674 C19.0394106,10.8674764 19.3499114,10.7110256 19.452078,10.7970535 C19.5533108,10.8822812 19.4116648,11.1737092 19.1366422,11.4485985" id="Fill-81" fill="#FBBB76"/>
              <path d="M30.9740869,48.8911063 C30.9740869,49.8763597 30.1754275,50.6750191 29.1901742,50.6750191 C28.2049209,50.6750191 27.4062615,49.8763597 27.4062615,48.8911063 C27.4062615,47.905853 28.2049209,47.1071936 29.1901742,47.1071936 C30.1754275,47.1071936 30.9740869,47.905853 30.9740869,48.8911063" id="Fill-83" fill="#FFFFFF"/>
              <path d="M24.2719101,48.2432426 C24.2719101,49.2284959 23.4732507,50.0271553 22.4879974,50.0271553 C21.502744,50.0271553 20.7040846,49.2284959 20.7040846,48.2432426 C20.7040846,47.2578558 21.502744,46.4593298 22.4879974,46.4593298 C23.4732507,46.4593298 24.2719101,47.2578558 24.2719101,48.2432426" id="Fill-85" fill="#FFFFFF"/>
              <path d="M26.4717713,48.743405 C26.4717713,49.3965505 25.942266,49.9261892 25.2888537,49.9261892 C24.6355749,49.9261892 24.1060696,49.3965505 24.1060696,48.743405 C24.1060696,48.0901262 24.6355749,47.5604875 25.2888537,47.5604875 C25.942266,47.5604875 26.4717713,48.0901262 26.4717713,48.743405" id="Fill-87" fill="#FFFFFF"/>
              <path d="M28.473208,49.3943898 C28.473208,50.0476686 27.9437027,50.5773073 27.2902905,50.5773073 C26.6370116,50.5773073 26.1075063,50.0476686 26.1075063,49.3943898 C26.1075063,48.7412443 26.6370116,48.2116056 27.2902905,48.2116056 C27.9437027,48.2116056 28.473208,48.7412443 28.473208,49.3943898" id="Fill-89" fill="#FFFFFF"/>
              <path d="M33.1080467,48.2115789 C33.1080467,48.8647244 32.5785414,49.3943631 31.9251292,49.3943631 C31.2718503,49.3943631 30.742345,48.8647244 30.742345,48.2115789 C30.742345,47.5583001 31.2718503,47.0286614 31.9251292,47.0286614 C32.5785414,47.0286614 33.1080467,47.5583001 33.1080467,48.2115789" id="Fill-91" fill="#FFFFFF"/>
            </g>
            <g id="Group-22" transform="translate(107.820911, 41.424829)">
              <path d="M28.1786142,51.1414326 C28.1786142,52.459054 21.8704606,53.526909 14.0893071,53.526909 C6.30815355,53.526909 -8.8817842e-15,52.459054 -8.8817842e-15,51.1414326 C-8.8817842e-15,49.8238113 6.30815355,48.7564179 14.0893071,48.7564179 C21.8704606,48.7564179 28.1786142,49.8238113 28.1786142,51.1414326" id="Fill-1" fill="#000000" opacity="0.12"/>
              <polygon id="Fill-3" fill="#F0F0F0" points="5.95695904 22.5179755 22.2216551 22.5179755 22.2216551 18.9585716 5.95695904 18.9585716"/>
              <path d="M21.3850766,20.8364835 L6.79389354,20.8364835 C4.60901278,20.8364835 2.80469162,19.079621 2.68159557,16.8333405 L1.96645201,3.79138804 L26.2119249,3.79138804 L25.4970779,16.8333405 C25.3736853,19.079621 23.5693641,20.8364835 21.3850766,20.8364835" id="Fill-5" fill="#FFFFFF"/>
              <path d="M27.3750787,8.44112634 L25.8587727,8.44112634 L25.8587727,5.37618297 L27.3750787,5.37618297 C27.4794879,5.37618297 27.5640238,5.46071881 27.5640238,5.56483137 L27.5640238,8.25218132 C27.5640238,8.3565905 27.4794879,8.44112634 27.3750787,8.44112634" id="Fill-6" fill="#B0B0B0"/>
              <path d="M26.6804611,8.66358908 L24.9440652,8.66358908 L24.9440652,5.15372022 L26.6804611,5.15372022 C26.7997011,5.15372022 26.8966949,5.25041736 26.8966949,5.36995401 L26.8966949,8.4473553 C26.8966949,8.56689194 26.7997011,8.66358908 26.6804611,8.66358908" id="Fill-7" fill="#8C8C8C"/>
              <path d="M22.7980709,3.79070583 L22.7802739,4.11105218 L1.97555815,4.11105218 L2.05534812,5.56447543 L15.7098147,5.56447543 C19.507402,5.56447543 22.5266664,8.75310809 22.3193311,12.5453563 L22.2608976,13.6087282 C22.1395812,15.8541189 20.3328871,17.6100915 18.1500827,17.6100915 L3.55949288,17.6100915 C3.2892748,17.6100915 3.0255823,17.5833959 2.76752551,17.532971 C3.18575547,19.4342859 4.83464933,20.8372843 6.78371958,20.8372843 L21.3740128,20.8372843 C23.56008,20.8372843 25.3635113,19.0783456 25.4880904,16.8329549 L26.2029374,3.79070583 L22.7980709,3.79070583 Z" id="Fill-8" fill="#F0F0F0"/>
              <path d="M25.3051371,-0.000148308496 L2.8734771,-0.000148308496 C2.40244932,-0.000148308496 2.02070325,0.381597759 2.02070325,0.852625542 L26.1579109,0.852625542 C26.1579109,0.381597759 25.7761649,-0.000148308496 25.3051371,-0.000148308496" id="Fill-9" fill="#1E87F0"/>
              <path d="M27.4822465,4.11004368 L0.697435532,4.11004368 C0.526584145,4.11004368 0.38806401,3.97152354 0.38806401,3.80067216 L0.38806401,2.1639396 C0.38806401,1.35091243 1.04744358,0.692126088 1.86017414,0.692126088 L26.3195079,0.692126088 C27.1322384,0.692126088 27.791618,1.35091243 27.791618,2.1639396 L27.791618,3.80067216 C27.791618,3.97152354 27.6530979,4.11004368 27.4822465,4.11004368" id="Fill-10" fill="#FFFFFF"/>
              <path d="M27.791618,2.16524471 L27.791618,3.80168065 C27.791618,3.97253204 27.6530979,4.11105218 27.4822465,4.11105218 L0.696249064,4.11105218 C0.525397677,4.11105218 0.386877542,3.97253204 0.386877542,3.80168065 L0.386877542,2.99873846 L24.7332002,2.99873846 C25.8081402,2.99873846 26.6793043,2.12757436 26.6793043,1.052931 C26.6793043,0.940216539 26.6674396,0.830468252 26.6437102,0.726652305 C27.3022,0.874960801 27.791618,1.46226244 27.791618,2.16524471" id="Fill-11" fill="#F0F0F0"/>
              <polygon id="Fill-12" fill="#E0E0E0" points="26.1943948 4.11108184 26.1499023 4.9327109 2.02871191 4.9327109 1.98451598 4.11108184"/>
              <path d="M22.8026982,21.5788861 L5.37644992,21.5788861 C4.02476629,21.5788861 2.92935974,22.6742927 2.92935974,24.0259763 L25.2497883,24.0259763 C25.2497883,22.6742927 24.1543818,21.5788861 22.8026982,21.5788861" id="Fill-13" fill="#1E87F0"/>
              <path d="M25.2492248,24.0259763 L2.92879617,24.0259763 C2.92879617,23.4683364 3.11566488,22.9522228 3.43007889,22.5428913 L23.0266737,22.5428913 C23.4496495,22.5428913 23.7673263,22.1279242 23.6264332,21.7289743 L23.6240603,21.7209657 C23.9678394,21.8428752 24.2792872,22.0416086 24.5314117,22.2966992 C24.9763371,22.7383619 25.2492248,23.3496896 25.2492248,24.0259763" id="Fill-14" fill="#000000" opacity="0.232096354"/>
              <path d="M26.5249151,28.245531 L1.65387702,28.245531 C1.24899483,28.245531 0.963649281,27.847471 1.09416076,27.4639452 L2.31414644,23.8757695 C2.3954195,23.6361029 2.62055179,23.4750399 2.87386271,23.4750399 L25.3049294,23.4750399 C25.5579437,23.4750399 25.783076,23.6361029 25.8643491,23.8757695 L27.0846314,27.4639452 C27.2148462,27.847471 26.9297973,28.245531 26.5249151,28.245531" id="Fill-15" fill="#FFFFFF"/>
              <path d="M17.3604883,36.6232109 L10.8191937,36.6232109 C6.03476167,36.6232109 2.1561979,32.7446472 2.1561979,27.9602151 L26.0234841,27.9602151 C26.0234841,32.7446472 22.1449203,36.6232109 17.3604883,36.6232109" id="Fill-16" fill="#FFFFFF"/>
              <path d="M26.0237807,27.9590583 C26.0237807,30.3527574 25.0535465,32.5180614 23.4844427,34.0839025 C22.363527,35.2083775 20.9338331,36.0240743 19.3350676,36.3948455 C19.7767303,36.0922962 20.1922907,35.7482205 20.5686976,35.3715169 C21.4704133,34.4715809 22.1742854,33.3738015 22.6100158,32.1484767 C23.1130782,30.7327238 22.0482232,29.246376 20.5452649,29.246376 L2.25259842,29.246376 C2.1876393,28.8251799 2.15471481,28.3977548 2.15471481,27.9590583 L26.0237807,27.9590583 Z" id="Fill-17" fill="#F0F0F0"/>
              <path d="M26.0147932,28.2466878 C26.0118271,28.4543197 25.9969962,28.659282 25.976233,28.8636511 L2.20238116,28.8636511 C2.18161797,28.659282 2.16678712,28.4543197 2.16382095,28.2466878 L26.0147932,28.2466878 Z" id="Fill-18" fill="#E0E0E0"/>
              <path d="M22.7612904,50.9457183 L5.41631525,50.9457183 C5.11643547,50.9457183 4.89070994,50.6719408 4.94825363,50.3774001 L8.05768955,34.4455083 L20.1202127,34.4455083 L23.229352,50.3774001 C23.2868957,50.6719408 23.0614668,50.9457183 22.7612904,50.9457183" id="Fill-19" fill="#FFFFFF"/>
              <path d="M22.7621506,50.9468751 L5.41687882,50.9468751 C5.11729566,50.9468751 4.89157013,50.6730976 4.94881721,50.3788536 L5.55302602,47.2747568 L8.81077043,47.2747568 C14.438188,47.2747568 18.6673531,42.1406133 17.5900401,36.6173083 C18.5896394,36.5935789 19.5474157,36.3978117 20.4343005,36.0596683 L23.2302122,50.378557 C23.2877559,50.6730976 23.062327,50.9468751 22.7621506,50.9468751" id="Fill-20" fill="#F0F0F0"/>
              <path d="M20.7252224,37.5397278 C19.6900291,37.9757548 18.5510199,38.2160145 17.3583229,38.2160145 L10.8182149,38.2160145 C9.6258146,38.2160145 8.48650874,37.9757548 7.45457823,37.5397278 L7.74200009,36.059609 C8.6971068,36.4244479 9.73526627,36.6231813 10.8182149,36.6231813 L17.3583229,36.6231813 C18.4412716,36.6231813 19.4794311,36.4244479 20.4345378,36.059609 L20.7252224,37.5397278 Z" id="Fill-21" fill="#E0E0E0"/>
            </g>
            <g id="Group-390" transform="translate(6.480569, 94.927428)">
              <g id="Group-350" transform="translate(0.000000, 1.122480)">
                <g id="Clip-349"/>
              </g>
            </g>
          </g>
        </g>
      </g>
    </g>
  </g>
</svg>