
<svg width="105px" height="120px" viewBox="0 0 65 74" version="1.1" xmlns="http://www.w3.org/2000/svg" xmlns:xlink="http://www.w3.org/1999/xlink">
    <defs>
        <linearGradient x1="19.4234392%" y1="13.7811998%" x2="100%" y2="196.540518%" id="linearGradient-1">
            <stop stop-color="#1E87F0" offset="0%"></stop>
            <stop stop-color="#1E3E5C" offset="100%"></stop>
        </linearGradient>
    </defs>
    <g id="Landing-page" stroke="none" stroke-width="1" fill="none" fill-rule="evenodd">
        <g id="Mobile---v2" transform="translate(-152.000000, -783.000000)" fill="url(#linearGradient-1)" fill-rule="nonzero">
            <g id="Group-10" transform="translate(51.000000, 702.000000)">
                <g id="Group-15" transform="translate(1.000000, 81.301652)">
                    <path d="M163.14467,56.0878517 L163.187754,56.0878517 C163.68014,56.0878517 164.147906,56.3099383 164.460776,56.6905113 C164.773133,57.0715973 164.898794,57.5742409 164.801855,58.0573943 C164.798778,58.0763717 164.794162,58.095349 164.789546,58.1138135 C163.844268,62.107779 161.699313,65.6503911 158.588051,68.3600506 C158.232098,68.6693304 157.759202,68.81243 157.29041,68.7498559 C156.821105,68.687282 156.3995,68.4246763 156.136894,68.0307678 C156.117404,68.0015324 156.098427,67.9712712 156.080475,67.9404971 L155.988153,67.7809846 C155.696825,67.2742378 155.223929,66.9121291 154.659225,66.7608232 C154.09452,66.6095172 153.504683,66.6869653 152.997936,66.9793192 L152.92972,67.0193256 C152.928694,67.0198385 152.928181,67.0198385 152.927668,67.0203514 C151.884939,67.622498 151.525395,68.9611714 152.12549,70.0044135 C152.129593,70.0121071 152.133697,70.0192876 152.1378,70.0259553 C152.379377,70.4614088 152.410663,70.9845687 152.223454,71.4456672 C152.036245,71.9072787 151.648492,72.2596422 151.171493,72.4027418 C151.165851,72.4047934 151.159183,72.4058192 151.153541,72.4078708 C149.397366,72.912566 147.574,73.168504 145.734222,73.168504 C143.52618,73.168504 141.355067,72.8022923 139.282945,72.0791008 C139.259864,72.0714073 139.236784,72.0632008 139.213703,72.0534557 C138.776198,71.8785562 138.432554,71.5210638 138.274067,71.076378 C138.116093,70.6311793 138.156612,70.1377679 138.386392,69.725395 C138.390496,69.7177014 138.394599,69.7100079 138.399215,69.7023143 L138.423321,69.6607693 C138.716188,69.1529967 138.794149,68.5631597 138.642843,67.9984549 C138.491537,67.4332372 138.128916,66.9608548 137.622682,66.6685009 L137.551901,66.6279816 C136.53892,66.0432737 135.251537,66.3551179 134.620155,67.3378376 C134.343188,67.7691879 133.879012,68.0482064 133.366624,68.0892385 C132.893728,68.1271933 132.426475,67.9574228 132.08796,67.62814 C130.455394,66.0422478 129.130056,64.2137533 128.147849,62.2129238 L102.598677,62.2129238 C101.690841,62.2129238 100.954827,61.4769099 100.954827,60.5690739 L100.954827,1.64282416 C100.954827,0.736013963 101.690841,-2.13162821e-14 102.598677,-2.13162821e-14 L146.885174,-2.13162821e-14 C147.79301,-2.13162821e-14 148.529023,0.736013963 148.529023,1.64282416 L148.529023,34.2059269 C149.64561,34.3659522 150.746298,34.6188127 151.820826,34.9701503 C152.279874,35.1199176 152.652753,35.4661263 152.834833,35.9144025 C153.022555,36.3760139 152.990242,36.8991737 152.748666,37.3346272 C152.74405,37.3423208 152.739946,37.3505272 152.73533,37.3582206 C152.442976,37.8649675 152.364502,38.4548045 152.515808,39.0195093 C152.667114,39.584214 153.029736,40.0560835 153.53597,40.3484376 L153.60675,40.3889567 C153.876536,40.5448788 154.168378,40.6402786 154.472528,40.6715656 C155.311122,40.7592718 156.133817,40.3484376 156.569783,39.6283236 C156.597993,39.5816495 156.628254,39.537027 156.66108,39.4934304 C156.946766,39.1118316 157.38581,38.8728194 157.861783,38.838455 C158.318778,38.8046034 158.77167,38.9677062 159.105056,39.2805762 C162.096299,42.0774292 164.108412,45.6651765 164.921874,49.6550388 C165.01471,50.1115213 164.909565,50.5900586 164.62952,50.9670412 C164.319215,51.3835175 163.827855,51.6302232 163.308799,51.6302232 L163.14467,51.6302232 C161.937299,51.6302232 160.955093,52.6124299 160.955093,53.8198005 L160.955093,53.8987875 C160.955093,55.1056451 161.937299,56.0878517 163.14467,56.0878517 Z M104.242527,58.9257369 L126.892265,58.9257369 C126.745063,58.4056545 126.618376,57.8794175 126.513744,57.344461 C126.421935,56.8710527 126.543492,56.3776413 126.846104,56.0001457 C127.147691,55.6236757 127.601608,55.3990249 128.08271,55.3846636 C129.272642,55.350812 130.204585,54.3911731 130.204585,53.2007281 L130.204585,53.1166123 C130.204585,51.9815609 129.319316,51.0244862 128.189907,50.937293 C128.177084,50.9367801 128.164775,50.9352414 128.152465,50.9342155 C127.690853,50.8880544 127.268222,50.6480164 126.992281,50.2751369 C126.71634,49.9017445 126.610682,49.4273104 126.701466,48.9728795 C126.706082,48.9497989 126.711211,48.9262055 126.716853,48.9036378 C127.664183,45.0461041 129.741434,41.6050467 132.724984,38.9507805 C133.099402,38.6173943 133.607687,38.472756 134.101612,38.5589235 C134.56271,38.6394491 134.967903,38.9128257 135.214608,39.3072471 C135.841374,40.3089442 137.135425,40.6300206 138.159177,40.0386449 L138.231496,39.9970999 C139.228064,39.422137 139.608637,38.165528 139.099326,37.1356214 C138.894165,36.7227355 138.871598,36.2395821 139.039316,35.8082318 C139.217293,35.3522622 139.58966,34.9978471 140.053323,34.8429507 C140.069223,34.8378218 140.085123,34.8326927 140.10051,34.8275637 C141.76744,34.3285103 143.493867,34.0566725 145.241324,34.0130759 L145.241324,3.28667405 L104.242527,3.28667405 L104.242527,58.9257369 Z M155.510128,63.5854488 C156.310255,63.7993287 157.035498,64.1829792 157.64739,64.7056261 C159.19584,63.0515181 160.370385,61.1132626 161.114605,58.9852335 C159.096337,58.1769004 157.667393,56.201716 157.667393,53.8987875 L157.667393,53.8198005 C157.667393,51.4553237 159.173272,49.4365426 161.276169,48.6707804 C160.601191,46.5263384 159.491271,44.5567959 158.000779,42.8585784 C156.912402,43.6792211 155.532696,44.086978 154.135552,43.9413139 C153.367225,43.8623271 152.63634,43.6253665 151.963413,43.2365869 L151.892633,43.1955548 C150.625253,42.464157 149.718955,41.2824315 149.340434,39.8693873 C149.145018,39.1379896 149.101935,38.3906917 149.208618,37.6628843 C147.045712,37.1930664 144.764325,37.1689599 142.588083,37.5956941 C142.777857,39.6652525 141.772569,41.7486591 139.875346,42.8442171 L139.803027,42.8862752 C137.836562,44.0208137 135.473624,43.8125755 133.770277,42.5226278 C132.254653,44.1562197 131.097034,46.0729333 130.359994,48.1727528 C132.214133,49.0590469 133.491772,50.9598607 133.491772,53.1166123 L133.491772,53.1997024 C133.491772,55.4923729 132.112066,57.4429381 130.119956,58.2610163 C130.755954,60.3946874 131.821251,62.3647427 133.263017,64.0732183 C134.960722,62.8519994 137.27596,62.6724838 139.195751,63.7808643 L139.266532,63.8218964 C140.533912,64.5527813 141.439696,65.7339939 141.818731,67.147551 C142.02184,67.9061326 142.059794,68.6831787 141.93875,69.4356054 C143.175869,69.7320627 144.447352,69.8808042 145.734735,69.8808042 C146.696939,69.8808042 147.6535,69.7972012 148.594162,69.6305082 C148.316682,67.5014532 149.312737,65.3113629 151.283818,64.1732342 L151.352547,64.1337406 C152.620953,63.4008042 154.097084,63.2064144 155.510128,63.5854488 Z M154.058452,53.8158779 C154.929079,54.0754445 155.423586,54.9904269 155.164651,55.8600962 C154.462388,58.2217428 152.906425,60.1961928 150.78677,61.4199764 C146.223204,64.0547523 140.367539,62.486107 137.732763,57.9225412 C135.097987,53.3589752 136.667333,47.5034975 141.230898,44.8687215 C143.278151,43.6867395 145.678871,43.305728 147.989188,43.7959893 C148.878075,43.9846039 149.444985,44.8577849 149.256301,45.7455272 C149.067618,46.6332694 148.195138,47.2003666 147.307395,47.0116834 C145.791723,46.6904166 144.217967,46.9404458 142.874748,47.7159532 C139.880936,49.4444318 138.851772,53.2853224 140.579994,56.2786912 C142.308473,59.2725042 146.14962,60.3021118 149.143433,58.5736331 C150.532402,57.7717113 151.552214,56.4740021 152.014234,54.922077 C152.273168,54.0524076 153.188783,53.5569432 154.058452,53.8158779 Z M118.752003,10.9985962 C117.844167,10.9985962 117.108153,10.2625824 117.108153,9.3547463 C117.108153,8.44691037 117.844167,7.71089641 118.752003,7.71089641 L126.85944,7.71089641 C127.767276,7.71089641 128.50329,8.44691037 128.50329,9.3547463 C128.50329,10.2625824 127.767276,10.9985962 126.85944,10.9985962 L118.752003,10.9985962 Z M110.977439,19.3127327 C110.069603,19.3127327 109.333589,18.5767188 109.333589,17.6688828 C109.333589,16.7610468 110.069603,16.0250328 110.977439,16.0250328 L138.024797,16.0250328 C138.932633,16.0250328 139.668647,16.7610468 139.668647,17.6688828 C139.668647,18.5767188 138.932633,19.3127327 138.024797,19.3127327 L110.977439,19.3127327 Z M127.201545,25.7429812 C127.201545,26.6508173 126.465531,27.3868311 125.557695,27.3868311 L110.977439,27.3868311 C110.069603,27.3868311 109.333589,26.6508173 109.333589,25.7429812 C109.333589,24.8356582 110.069603,24.0991313 110.977439,24.0991313 L125.557695,24.0991313 C126.465531,24.0991313 127.201545,24.8356582 127.201545,25.7429812 Z M110.977439,10.9985962 C110.069603,10.9985962 109.333589,10.2625824 109.333589,9.3547463 C109.333589,8.44691037 110.070116,7.71089641 110.977439,7.71089641 L113.803527,7.71089641 C114.711363,7.71089641 115.447377,8.44691037 115.447377,9.3547463 C115.447377,10.2625824 114.711363,10.9985962 113.803527,10.9985962 L110.977439,10.9985962 Z M133.015286,24.2791599 C133.737964,24.8279646 133.879525,25.8588971 133.33072,26.5820884 C133.007592,27.0083097 132.516745,27.2319349 132.020257,27.2319349 C131.674048,27.2319349 131.324762,27.1231997 131.027792,26.8980358 L130.982656,26.8636715 C130.259465,26.3148666 130.118417,25.2839343 130.667222,24.5607428 C131.216027,23.8375514 132.246959,23.6954777 132.970151,24.2442825 L133.015286,24.2791599 Z M110.977439,44.0377394 C111.885275,44.0377394 112.621289,44.7737534 112.621289,45.6815893 L112.621289,53.2920247 C112.621289,54.1993478 111.885275,54.9358746 110.977439,54.9358746 C110.069603,54.9358746 109.333589,54.1993478 109.333589,53.2920247 L109.333589,45.6815893 C109.333589,44.7737534 110.069603,44.0377394 110.977439,44.0377394 Z" id="Combined-Shape"></path>
                </g>
            </g>
        </g>
    </g>
</svg>