<?xml version="1.0" encoding="utf-8"?>
<svg viewBox="0 0 170 170" xmlns="http://www.w3.org/2000/svg">
  <defs>
    <polygon id="path-1" points="4.00129961e-05 0.0297696691 76.9661983 0.0297696691 76.9661983 4.01119615 4.00129961e-05 4.01119615"/>
    <polygon id="path-3" points="0.10078544 0.0182726015 12.5700027 0.0182726015 12.5700027 12.4877093 0.10078544 12.4877093"/>
    <polygon id="path-5" points="0.191451476 0.191451476 43.1029032 0.191451476 43.1029032 3.87495492 0.191451476 3.87495492"/>
    <polygon id="polygon-1" points="0 0.0124819386 77.6824126 0.0124819386 77.6824126 76.2478785 0 76.2478785"/>
    <polygon id="polygon-2" points="89.8018393 0.642280036 90.2537698 0.642280036 90.2537698 6.89659781 89.8018393 6.89659781"/>
    <path d="M0.145711142,9.09219819 L72.7300787,9.09219819 L72.7300787,2.35627132 L32.8040573,2.35627132 C32.3152611,2.35627132 32.3152611,2.08800702 32.3152611,1.85132822 L32.3152611,1.50162148 C32.3152611,1.18792646 32.5832067,1.14770098 32.8166278,1.14770098 L33.791777,1.14770098 L33.791777,0.176482219 L0.145711142,0.176482219 M72.8717177,9.23383721 L0.00407212182,9.23383721 L0.00407212182,0.0348431989 L33.933416,0.0348431989 L33.933416,1.28934 L32.8166278,1.28934 C32.4844135,1.28934 32.4569001,1.38976206 32.4569001,1.50162148 L32.4569001,1.85132822 C32.4569001,2.09321225 32.4569001,2.2146323 32.8040573,2.2146323 L72.8717177,2.2146323" id="path-2"/>
    <path d="M0.145711142,9.09219819 L72.7300787,9.09219819 L72.7300787,2.35627132 L32.8040573,2.35627132 C32.3152611,2.35627132 32.3152611,2.08800702 32.3152611,1.85132822 L32.3152611,1.50162148 C32.3152611,1.18792646 32.5832067,1.14770098 32.8166278,1.14770098 L33.791777,1.14770098 L33.791777,0.176482219 L0.145711142,0.176482219 M72.8717177,9.23383721 L0.00407212182,9.23383721 L0.00407212182,0.0348431989 L33.933416,0.0348431989 L33.933416,1.28934 L32.8166278,1.28934 C32.4844135,1.28934 32.4569001,1.38976206 32.4569001,1.50162148 L32.4569001,1.85132822 C32.4569001,2.09321225 32.4569001,2.2146323 32.8040573,2.2146323 L72.8717177,2.2146323" id="path-7"/>
    <path d="M0.145711142,9.09219819 L72.7300787,9.09219819 L72.7300787,2.35627132 L32.8040573,2.35627132 C32.3152611,2.35627132 32.3152611,2.08800702 32.3152611,1.85132822 L32.3152611,1.50162148 C32.3152611,1.18792646 32.5832067,1.14770098 32.8166278,1.14770098 L33.791777,1.14770098 L33.791777,0.176482219 L0.145711142,0.176482219 M72.8717177,9.23383721 L0.00407212182,9.23383721 L0.00407212182,0.0348431989 L33.933416,0.0348431989 L33.933416,1.28934 L32.8166278,1.28934 C32.4844135,1.28934 32.4569001,1.38976206 32.4569001,1.50162148 L32.4569001,1.85132822 C32.4569001,2.09321225 32.4569001,2.2146323 32.8040573,2.2146323 L72.8717177,2.2146323" id="path-9"/>
    <path d="M0.145711142,9.09219819 L72.7300787,9.09219819 L72.7300787,2.35627132 L32.8040573,2.35627132 C32.3152611,2.35627132 32.3152611,2.08800702 32.3152611,1.85132822 L32.3152611,1.50162148 C32.3152611,1.18792646 32.5832067,1.14770098 32.8166278,1.14770098 L33.791777,1.14770098 L33.791777,0.176482219 L0.145711142,0.176482219 M72.8717177,9.23383721 L0.00407212182,9.23383721 L0.00407212182,0.0348431989 L33.933416,0.0348431989 L33.933416,1.28934 L32.8166278,1.28934 C32.4844135,1.28934 32.4569001,1.38976206 32.4569001,1.50162148 L32.4569001,1.85132822 C32.4569001,2.09321225 32.4569001,2.2146323 32.8040573,2.2146323 L72.8717177,2.2146323" id="path-11"/>
    <path d="M0.145711142,9.09219819 L72.7300787,9.09219819 L72.7300787,2.35627132 L32.8040573,2.35627132 C32.3152611,2.35627132 32.3152611,2.08800702 32.3152611,1.85132822 L32.3152611,1.50162148 C32.3152611,1.18792646 32.5832067,1.14770098 32.8166278,1.14770098 L33.791777,1.14770098 L33.791777,0.176482219 L0.145711142,0.176482219 M72.8717177,9.23383721 L0.00407212182,9.23383721 L0.00407212182,0.0348431989 L33.933416,0.0348431989 L33.933416,1.28934 L32.8166278,1.28934 C32.4844135,1.28934 32.4569001,1.38976206 32.4569001,1.50162148 L32.4569001,1.85132822 C32.4569001,2.09321225 32.4569001,2.2146323 32.8040573,2.2146323 L72.8717177,2.2146323" id="path-13"/>
    <path d="M0.145711142,9.09219819 L72.7300787,9.09219819 L72.7300787,2.35627132 L32.8040573,2.35627132 C32.3152611,2.35627132 32.3152611,2.08800702 32.3152611,1.85132822 L32.3152611,1.50162148 C32.3152611,1.18792646 32.5832067,1.14770098 32.8166278,1.14770098 L33.791777,1.14770098 L33.791777,0.176482219 L0.145711142,0.176482219 M72.8717177,9.23383721 L0.00407212182,9.23383721 L0.00407212182,0.0348431989 L33.933416,0.0348431989 L33.933416,1.28934 L32.8166278,1.28934 C32.4844135,1.28934 32.4569001,1.38976206 32.4569001,1.50162148 L32.4569001,1.85132822 C32.4569001,2.09321225 32.4569001,2.2146323 32.8040573,2.2146323 L72.8717177,2.2146323" id="path-15"/>
    <path d="M0.145711142,9.09219819 L72.7300787,9.09219819 L72.7300787,2.35627132 L32.8040573,2.35627132 C32.3152611,2.35627132 32.3152611,2.08800702 32.3152611,1.85132822 L32.3152611,1.50162148 C32.3152611,1.18792646 32.5832067,1.14770098 32.8166278,1.14770098 L33.791777,1.14770098 L33.791777,0.176482219 L0.145711142,0.176482219 M72.8717177,9.23383721 L0.00407212182,9.23383721 L0.00407212182,0.0348431989 L33.933416,0.0348431989 L33.933416,1.28934 L32.8166278,1.28934 C32.4844135,1.28934 32.4569001,1.38976206 32.4569001,1.50162148 L32.4569001,1.85132822 C32.4569001,2.09321225 32.4569001,2.2146323 32.8040573,2.2146323 L72.8717177,2.2146323" id="path-17"/>
    <path d="M0.145711142,9.09219819 L72.7300787,9.09219819 L72.7300787,2.35627132 L32.8040573,2.35627132 C32.3152611,2.35627132 32.3152611,2.08800702 32.3152611,1.85132822 L32.3152611,1.50162148 C32.3152611,1.18792646 32.5832067,1.14770098 32.8166278,1.14770098 L33.791777,1.14770098 L33.791777,0.176482219 L0.145711142,0.176482219 M72.8717177,9.23383721 L0.00407212182,9.23383721 L0.00407212182,0.0348431989 L33.933416,0.0348431989 L33.933416,1.28934 L32.8166278,1.28934 C32.4844135,1.28934 32.4569001,1.38976206 32.4569001,1.50162148 L32.4569001,1.85132822 C32.4569001,2.09321225 32.4569001,2.2146323 32.8040573,2.2146323 L72.8717177,2.2146323" id="path-19"/>
    <path d="M0.145711142,9.09219819 L72.7300787,9.09219819 L72.7300787,2.35627132 L32.8040573,2.35627132 C32.3152611,2.35627132 32.3152611,2.08800702 32.3152611,1.85132822 L32.3152611,1.50162148 C32.3152611,1.18792646 32.5832067,1.14770098 32.8166278,1.14770098 L33.791777,1.14770098 L33.791777,0.176482219 L0.145711142,0.176482219 M72.8717177,9.23383721 L0.00407212182,9.23383721 L0.00407212182,0.0348431989 L33.933416,0.0348431989 L33.933416,1.28934 L32.8166278,1.28934 C32.4844135,1.28934 32.4569001,1.38976206 32.4569001,1.50162148 L32.4569001,1.85132822 C32.4569001,2.09321225 32.4569001,2.2146323 32.8040573,2.2146323 L72.8717177,2.2146323" id="path-21"/>
    <path d="M0.145711142,9.09219819 L72.7300787,9.09219819 L72.7300787,2.35627132 L32.8040573,2.35627132 C32.3152611,2.35627132 32.3152611,2.08800702 32.3152611,1.85132822 L32.3152611,1.50162148 C32.3152611,1.18792646 32.5832067,1.14770098 32.8166278,1.14770098 L33.791777,1.14770098 L33.791777,0.176482219 L0.145711142,0.176482219 M72.8717177,9.23383721 L0.00407212182,9.23383721 L0.00407212182,0.0348431989 L33.933416,0.0348431989 L33.933416,1.28934 L32.8166278,1.28934 C32.4844135,1.28934 32.4569001,1.38976206 32.4569001,1.50162148 L32.4569001,1.85132822 C32.4569001,2.09321225 32.4569001,2.2146323 32.8040573,2.2146323 L72.8717177,2.2146323" id="path-23"/>
    <path d="M0.145711142,9.09219819 L72.7300787,9.09219819 L72.7300787,2.35627132 L32.8040573,2.35627132 C32.3152611,2.35627132 32.3152611,2.08800702 32.3152611,1.85132822 L32.3152611,1.50162148 C32.3152611,1.18792646 32.5832067,1.14770098 32.8166278,1.14770098 L33.791777,1.14770098 L33.791777,0.176482219 L0.145711142,0.176482219 M72.8717177,9.23383721 L0.00407212182,9.23383721 L0.00407212182,0.0348431989 L33.933416,0.0348431989 L33.933416,1.28934 L32.8166278,1.28934 C32.4844135,1.28934 32.4569001,1.38976206 32.4569001,1.50162148 L32.4569001,1.85132822 C32.4569001,2.09321225 32.4569001,2.2146323 32.8040573,2.2146323 L72.8717177,2.2146323" id="path-25"/>
    <path d="M0.145711142,9.09219819 L72.7300787,9.09219819 L72.7300787,2.35627132 L32.8040573,2.35627132 C32.3152611,2.35627132 32.3152611,2.08800702 32.3152611,1.85132822 L32.3152611,1.50162148 C32.3152611,1.18792646 32.5832067,1.14770098 32.8166278,1.14770098 L33.791777,1.14770098 L33.791777,0.176482219 L0.145711142,0.176482219 M72.8717177,9.23383721 L0.00407212182,9.23383721 L0.00407212182,0.0348431989 L33.933416,0.0348431989 L33.933416,1.28934 L32.8166278,1.28934 C32.4844135,1.28934 32.4569001,1.38976206 32.4569001,1.50162148 L32.4569001,1.85132822 C32.4569001,2.09321225 32.4569001,2.2146323 32.8040573,2.2146323 L72.8717177,2.2146323" id="path-27"/>
    <path d="M0.145711142,9.09219819 L72.7300787,9.09219819 L72.7300787,2.35627132 L32.8040573,2.35627132 C32.3152611,2.35627132 32.3152611,2.08800702 32.3152611,1.85132822 L32.3152611,1.50162148 C32.3152611,1.18792646 32.5832067,1.14770098 32.8166278,1.14770098 L33.791777,1.14770098 L33.791777,0.176482219 L0.145711142,0.176482219 M72.8717177,9.23383721 L0.00407212182,9.23383721 L0.00407212182,0.0348431989 L33.933416,0.0348431989 L33.933416,1.28934 L32.8166278,1.28934 C32.4844135,1.28934 32.4569001,1.38976206 32.4569001,1.50162148 L32.4569001,1.85132822 C32.4569001,2.09321225 32.4569001,2.2146323 32.8040573,2.2146323 L72.8717177,2.2146323" id="path-29"/>
    <path d="M0.145711142,9.09219819 L72.7300787,9.09219819 L72.7300787,2.35627132 L32.8040573,2.35627132 C32.3152611,2.35627132 32.3152611,2.08800702 32.3152611,1.85132822 L32.3152611,1.50162148 C32.3152611,1.18792646 32.5832067,1.14770098 32.8166278,1.14770098 L33.791777,1.14770098 L33.791777,0.176482219 L0.145711142,0.176482219 M72.8717177,9.23383721 L0.00407212182,9.23383721 L0.00407212182,0.0348431989 L33.933416,0.0348431989 L33.933416,1.28934 L32.8166278,1.28934 C32.4844135,1.28934 32.4569001,1.38976206 32.4569001,1.50162148 L32.4569001,1.85132822 C32.4569001,2.09321225 32.4569001,2.2146323 32.8040573,2.2146323 L72.8717177,2.2146323" id="path-31"/>
    <path d="M0.145711142,9.09219819 L72.7300787,9.09219819 L72.7300787,2.35627132 L32.8040573,2.35627132 C32.3152611,2.35627132 32.3152611,2.08800702 32.3152611,1.85132822 L32.3152611,1.50162148 C32.3152611,1.18792646 32.5832067,1.14770098 32.8166278,1.14770098 L33.791777,1.14770098 L33.791777,0.176482219 L0.145711142,0.176482219 M72.8717177,9.23383721 L0.00407212182,9.23383721 L0.00407212182,0.0348431989 L33.933416,0.0348431989 L33.933416,1.28934 L32.8166278,1.28934 C32.4844135,1.28934 32.4569001,1.38976206 32.4569001,1.50162148 L32.4569001,1.85132822 C32.4569001,2.09321225 32.4569001,2.2146323 32.8040573,2.2146323 L72.8717177,2.2146323" id="path-33"/>
    <path d="M0.145711142,9.09219819 L72.7300787,9.09219819 L72.7300787,2.35627132 L32.8040573,2.35627132 C32.3152611,2.35627132 32.3152611,2.08800702 32.3152611,1.85132822 L32.3152611,1.50162148 C32.3152611,1.18792646 32.5832067,1.14770098 32.8166278,1.14770098 L33.791777,1.14770098 L33.791777,0.176482219 L0.145711142,0.176482219 M72.8717177,9.23383721 L0.00407212182,9.23383721 L0.00407212182,0.0348431989 L33.933416,0.0348431989 L33.933416,1.28934 L32.8166278,1.28934 C32.4844135,1.28934 32.4569001,1.38976206 32.4569001,1.50162148 L32.4569001,1.85132822 C32.4569001,2.09321225 32.4569001,2.2146323 32.8040573,2.2146323 L72.8717177,2.2146323" id="path-35"/>
    <path d="M0.145711142,9.09219819 L72.7300787,9.09219819 L72.7300787,2.35627132 L32.8040573,2.35627132 C32.3152611,2.35627132 32.3152611,2.08800702 32.3152611,1.85132822 L32.3152611,1.50162148 C32.3152611,1.18792646 32.5832067,1.14770098 32.8166278,1.14770098 L33.791777,1.14770098 L33.791777,0.176482219 L0.145711142,0.176482219 M72.8717177,9.23383721 L0.00407212182,9.23383721 L0.00407212182,0.0348431989 L33.933416,0.0348431989 L33.933416,1.28934 L32.8166278,1.28934 C32.4844135,1.28934 32.4569001,1.38976206 32.4569001,1.50162148 L32.4569001,1.85132822 C32.4569001,2.09321225 32.4569001,2.2146323 32.8040573,2.2146323 L72.8717177,2.2146323" id="path-37"/>
    <path d="M0.145711142,9.09219819 L72.7300787,9.09219819 L72.7300787,2.35627132 L32.8040573,2.35627132 C32.3152611,2.35627132 32.3152611,2.08800702 32.3152611,1.85132822 L32.3152611,1.50162148 C32.3152611,1.18792646 32.5832067,1.14770098 32.8166278,1.14770098 L33.791777,1.14770098 L33.791777,0.176482219 L0.145711142,0.176482219 M72.8717177,9.23383721 L0.00407212182,9.23383721 L0.00407212182,0.0348431989 L33.933416,0.0348431989 L33.933416,1.28934 L32.8166278,1.28934 C32.4844135,1.28934 32.4569001,1.38976206 32.4569001,1.50162148 L32.4569001,1.85132822 C32.4569001,2.09321225 32.4569001,2.2146323 32.8040573,2.2146323 L72.8717177,2.2146323" id="path-39"/>
    <path d="M0.145711142,9.09219819 L72.7300787,9.09219819 L72.7300787,2.35627132 L32.8040573,2.35627132 C32.3152611,2.35627132 32.3152611,2.08800702 32.3152611,1.85132822 L32.3152611,1.50162148 C32.3152611,1.18792646 32.5832067,1.14770098 32.8166278,1.14770098 L33.791777,1.14770098 L33.791777,0.176482219 L0.145711142,0.176482219 M72.8717177,9.23383721 L0.00407212182,9.23383721 L0.00407212182,0.0348431989 L33.933416,0.0348431989 L33.933416,1.28934 L32.8166278,1.28934 C32.4844135,1.28934 32.4569001,1.38976206 32.4569001,1.50162148 L32.4569001,1.85132822 C32.4569001,2.09321225 32.4569001,2.2146323 32.8040573,2.2146323 L72.8717177,2.2146323" id="path-41"/>
    <path d="M0.145711142,9.09219819 L72.7300787,9.09219819 L72.7300787,2.35627132 L32.8040573,2.35627132 C32.3152611,2.35627132 32.3152611,2.08800702 32.3152611,1.85132822 L32.3152611,1.50162148 C32.3152611,1.18792646 32.5832067,1.14770098 32.8166278,1.14770098 L33.791777,1.14770098 L33.791777,0.176482219 L0.145711142,0.176482219 M72.8717177,9.23383721 L0.00407212182,9.23383721 L0.00407212182,0.0348431989 L33.933416,0.0348431989 L33.933416,1.28934 L32.8166278,1.28934 C32.4844135,1.28934 32.4569001,1.38976206 32.4569001,1.50162148 L32.4569001,1.85132822 C32.4569001,2.09321225 32.4569001,2.2146323 32.8040573,2.2146323 L72.8717177,2.2146323" id="path-43"/>
    <path d="M0.145711142,9.09219819 L72.7300787,9.09219819 L72.7300787,2.35627132 L32.8040573,2.35627132 C32.3152611,2.35627132 32.3152611,2.08800702 32.3152611,1.85132822 L32.3152611,1.50162148 C32.3152611,1.18792646 32.5832067,1.14770098 32.8166278,1.14770098 L33.791777,1.14770098 L33.791777,0.176482219 L0.145711142,0.176482219 M72.8717177,9.23383721 L0.00407212182,9.23383721 L0.00407212182,0.0348431989 L33.933416,0.0348431989 L33.933416,1.28934 L32.8166278,1.28934 C32.4844135,1.28934 32.4569001,1.38976206 32.4569001,1.50162148 L32.4569001,1.85132822 C32.4569001,2.09321225 32.4569001,2.2146323 32.8040573,2.2146323 L72.8717177,2.2146323" id="path-45"/>
    <path d="M0.145711142,9.09219819 L72.7300787,9.09219819 L72.7300787,2.35627132 L32.8040573,2.35627132 C32.3152611,2.35627132 32.3152611,2.08800702 32.3152611,1.85132822 L32.3152611,1.50162148 C32.3152611,1.18792646 32.5832067,1.14770098 32.8166278,1.14770098 L33.791777,1.14770098 L33.791777,0.176482219 L0.145711142,0.176482219 M72.8717177,9.23383721 L0.00407212182,9.23383721 L0.00407212182,0.0348431989 L33.933416,0.0348431989 L33.933416,1.28934 L32.8166278,1.28934 C32.4844135,1.28934 32.4569001,1.38976206 32.4569001,1.50162148 L32.4569001,1.85132822 C32.4569001,2.09321225 32.4569001,2.2146323 32.8040573,2.2146323 L72.8717177,2.2146323" id="path-47"/>
    <path d="M0.145711142,9.09219819 L72.7300787,9.09219819 L72.7300787,2.35627132 L32.8040573,2.35627132 C32.3152611,2.35627132 32.3152611,2.08800702 32.3152611,1.85132822 L32.3152611,1.50162148 C32.3152611,1.18792646 32.5832067,1.14770098 32.8166278,1.14770098 L33.791777,1.14770098 L33.791777,0.176482219 L0.145711142,0.176482219 M72.8717177,9.23383721 L0.00407212182,9.23383721 L0.00407212182,0.0348431989 L33.933416,0.0348431989 L33.933416,1.28934 L32.8166278,1.28934 C32.4844135,1.28934 32.4569001,1.38976206 32.4569001,1.50162148 L32.4569001,1.85132822 C32.4569001,2.09321225 32.4569001,2.2146323 32.8040573,2.2146323 L72.8717177,2.2146323" id="path-49"/>
    <path d="M0.145711142,9.09219819 L72.7300787,9.09219819 L72.7300787,2.35627132 L32.8040573,2.35627132 C32.3152611,2.35627132 32.3152611,2.08800702 32.3152611,1.85132822 L32.3152611,1.50162148 C32.3152611,1.18792646 32.5832067,1.14770098 32.8166278,1.14770098 L33.791777,1.14770098 L33.791777,0.176482219 L0.145711142,0.176482219 M72.8717177,9.23383721 L0.00407212182,9.23383721 L0.00407212182,0.0348431989 L33.933416,0.0348431989 L33.933416,1.28934 L32.8166278,1.28934 C32.4844135,1.28934 32.4569001,1.38976206 32.4569001,1.50162148 L32.4569001,1.85132822 C32.4569001,2.09321225 32.4569001,2.2146323 32.8040573,2.2146323 L72.8717177,2.2146323" id="path-51"/>
    <path d="M0.145711142,9.09219819 L72.7300787,9.09219819 L72.7300787,2.35627132 L32.8040573,2.35627132 C32.3152611,2.35627132 32.3152611,2.08800702 32.3152611,1.85132822 L32.3152611,1.50162148 C32.3152611,1.18792646 32.5832067,1.14770098 32.8166278,1.14770098 L33.791777,1.14770098 L33.791777,0.176482219 L0.145711142,0.176482219 M72.8717177,9.23383721 L0.00407212182,9.23383721 L0.00407212182,0.0348431989 L33.933416,0.0348431989 L33.933416,1.28934 L32.8166278,1.28934 C32.4844135,1.28934 32.4569001,1.38976206 32.4569001,1.50162148 L32.4569001,1.85132822 C32.4569001,2.09321225 32.4569001,2.2146323 32.8040573,2.2146323 L72.8717177,2.2146323" id="path-53"/>
    <path d="M0.145711142,9.09219819 L72.7300787,9.09219819 L72.7300787,2.35627132 L32.8040573,2.35627132 C32.3152611,2.35627132 32.3152611,2.08800702 32.3152611,1.85132822 L32.3152611,1.50162148 C32.3152611,1.18792646 32.5832067,1.14770098 32.8166278,1.14770098 L33.791777,1.14770098 L33.791777,0.176482219 L0.145711142,0.176482219 M72.8717177,9.23383721 L0.00407212182,9.23383721 L0.00407212182,0.0348431989 L33.933416,0.0348431989 L33.933416,1.28934 L32.8166278,1.28934 C32.4844135,1.28934 32.4569001,1.38976206 32.4569001,1.50162148 L32.4569001,1.85132822 C32.4569001,2.09321225 32.4569001,2.2146323 32.8040573,2.2146323 L72.8717177,2.2146323" id="path-55"/>
    <path d="M0.145711142,9.09219819 L72.7300787,9.09219819 L72.7300787,2.35627132 L32.8040573,2.35627132 C32.3152611,2.35627132 32.3152611,2.08800702 32.3152611,1.85132822 L32.3152611,1.50162148 C32.3152611,1.18792646 32.5832067,1.14770098 32.8166278,1.14770098 L33.791777,1.14770098 L33.791777,0.176482219 L0.145711142,0.176482219 M72.8717177,9.23383721 L0.00407212182,9.23383721 L0.00407212182,0.0348431989 L33.933416,0.0348431989 L33.933416,1.28934 L32.8166278,1.28934 C32.4844135,1.28934 32.4569001,1.38976206 32.4569001,1.50162148 L32.4569001,1.85132822 C32.4569001,2.09321225 32.4569001,2.2146323 32.8040573,2.2146323 L72.8717177,2.2146323" id="path-57"/>
    <path d="M0.145711142,9.09219819 L72.7300787,9.09219819 L72.7300787,2.35627132 L32.8040573,2.35627132 C32.3152611,2.35627132 32.3152611,2.08800702 32.3152611,1.85132822 L32.3152611,1.50162148 C32.3152611,1.18792646 32.5832067,1.14770098 32.8166278,1.14770098 L33.791777,1.14770098 L33.791777,0.176482219 L0.145711142,0.176482219 M72.8717177,9.23383721 L0.00407212182,9.23383721 L0.00407212182,0.0348431989 L33.933416,0.0348431989 L33.933416,1.28934 L32.8166278,1.28934 C32.4844135,1.28934 32.4569001,1.38976206 32.4569001,1.50162148 L32.4569001,1.85132822 C32.4569001,2.09321225 32.4569001,2.2146323 32.8040573,2.2146323 L72.8717177,2.2146323" id="path-59"/>
    <path d="M0.145711142,9.09219819 L72.7300787,9.09219819 L72.7300787,2.35627132 L32.8040573,2.35627132 C32.3152611,2.35627132 32.3152611,2.08800702 32.3152611,1.85132822 L32.3152611,1.50162148 C32.3152611,1.18792646 32.5832067,1.14770098 32.8166278,1.14770098 L33.791777,1.14770098 L33.791777,0.176482219 L0.145711142,0.176482219 M72.8717177,9.23383721 L0.00407212182,9.23383721 L0.00407212182,0.0348431989 L33.933416,0.0348431989 L33.933416,1.28934 L32.8166278,1.28934 C32.4844135,1.28934 32.4569001,1.38976206 32.4569001,1.50162148 L32.4569001,1.85132822 C32.4569001,2.09321225 32.4569001,2.2146323 32.8040573,2.2146323 L72.8717177,2.2146323" id="path-61"/>
    <path d="M0.145711142,9.09219819 L72.7300787,9.09219819 L72.7300787,2.35627132 L32.8040573,2.35627132 C32.3152611,2.35627132 32.3152611,2.08800702 32.3152611,1.85132822 L32.3152611,1.50162148 C32.3152611,1.18792646 32.5832067,1.14770098 32.8166278,1.14770098 L33.791777,1.14770098 L33.791777,0.176482219 L0.145711142,0.176482219 M72.8717177,9.23383721 L0.00407212182,9.23383721 L0.00407212182,0.0348431989 L33.933416,0.0348431989 L33.933416,1.28934 L32.8166278,1.28934 C32.4844135,1.28934 32.4569001,1.38976206 32.4569001,1.50162148 L32.4569001,1.85132822 C32.4569001,2.09321225 32.4569001,2.2146323 32.8040573,2.2146323 L72.8717177,2.2146323" id="path-63"/>
    <path d="M0.145711142,9.09219819 L72.7300787,9.09219819 L72.7300787,2.35627132 L32.8040573,2.35627132 C32.3152611,2.35627132 32.3152611,2.08800702 32.3152611,1.85132822 L32.3152611,1.50162148 C32.3152611,1.18792646 32.5832067,1.14770098 32.8166278,1.14770098 L33.791777,1.14770098 L33.791777,0.176482219 L0.145711142,0.176482219 M72.8717177,9.23383721 L0.00407212182,9.23383721 L0.00407212182,0.0348431989 L33.933416,0.0348431989 L33.933416,1.28934 L32.8166278,1.28934 C32.4844135,1.28934 32.4569001,1.38976206 32.4569001,1.50162148 L32.4569001,1.85132822 C32.4569001,2.09321225 32.4569001,2.2146323 32.8040573,2.2146323 L72.8717177,2.2146323" id="path-65"/>
    <path d="M0.145711142,9.09219819 L72.7300787,9.09219819 L72.7300787,2.35627132 L32.8040573,2.35627132 C32.3152611,2.35627132 32.3152611,2.08800702 32.3152611,1.85132822 L32.3152611,1.50162148 C32.3152611,1.18792646 32.5832067,1.14770098 32.8166278,1.14770098 L33.791777,1.14770098 L33.791777,0.176482219 L0.145711142,0.176482219 M72.8717177,9.23383721 L0.00407212182,9.23383721 L0.00407212182,0.0348431989 L33.933416,0.0348431989 L33.933416,1.28934 L32.8166278,1.28934 C32.4844135,1.28934 32.4569001,1.38976206 32.4569001,1.50162148 L32.4569001,1.85132822 C32.4569001,2.09321225 32.4569001,2.2146323 32.8040573,2.2146323 L72.8717177,2.2146323" id="path-67"/>
    <path d="M0.145711142,9.09219819 L72.7300787,9.09219819 L72.7300787,2.35627132 L32.8040573,2.35627132 C32.3152611,2.35627132 32.3152611,2.08800702 32.3152611,1.85132822 L32.3152611,1.50162148 C32.3152611,1.18792646 32.5832067,1.14770098 32.8166278,1.14770098 L33.791777,1.14770098 L33.791777,0.176482219 L0.145711142,0.176482219 M72.8717177,9.23383721 L0.00407212182,9.23383721 L0.00407212182,0.0348431989 L33.933416,0.0348431989 L33.933416,1.28934 L32.8166278,1.28934 C32.4844135,1.28934 32.4569001,1.38976206 32.4569001,1.50162148 L32.4569001,1.85132822 C32.4569001,2.09321225 32.4569001,2.2146323 32.8040573,2.2146323 L72.8717177,2.2146323" id="path-69"/>
    <path d="M0.145711142,9.09219819 L72.7300787,9.09219819 L72.7300787,2.35627132 L32.8040573,2.35627132 C32.3152611,2.35627132 32.3152611,2.08800702 32.3152611,1.85132822 L32.3152611,1.50162148 C32.3152611,1.18792646 32.5832067,1.14770098 32.8166278,1.14770098 L33.791777,1.14770098 L33.791777,0.176482219 L0.145711142,0.176482219 M72.8717177,9.23383721 L0.00407212182,9.23383721 L0.00407212182,0.0348431989 L33.933416,0.0348431989 L33.933416,1.28934 L32.8166278,1.28934 C32.4844135,1.28934 32.4569001,1.38976206 32.4569001,1.50162148 L32.4569001,1.85132822 C32.4569001,2.09321225 32.4569001,2.2146323 32.8040573,2.2146323 L72.8717177,2.2146323" id="path-71"/>
    <path d="M0.145711142,9.09219819 L72.7300787,9.09219819 L72.7300787,2.35627132 L32.8040573,2.35627132 C32.3152611,2.35627132 32.3152611,2.08800702 32.3152611,1.85132822 L32.3152611,1.50162148 C32.3152611,1.18792646 32.5832067,1.14770098 32.8166278,1.14770098 L33.791777,1.14770098 L33.791777,0.176482219 L0.145711142,0.176482219 M72.8717177,9.23383721 L0.00407212182,9.23383721 L0.00407212182,0.0348431989 L33.933416,0.0348431989 L33.933416,1.28934 L32.8166278,1.28934 C32.4844135,1.28934 32.4569001,1.38976206 32.4569001,1.50162148 L32.4569001,1.85132822 C32.4569001,2.09321225 32.4569001,2.2146323 32.8040573,2.2146323 L72.8717177,2.2146323" id="path-73"/>
    <path d="M0.145711142,9.09219819 L72.7300787,9.09219819 L72.7300787,2.35627132 L32.8040573,2.35627132 C32.3152611,2.35627132 32.3152611,2.08800702 32.3152611,1.85132822 L32.3152611,1.50162148 C32.3152611,1.18792646 32.5832067,1.14770098 32.8166278,1.14770098 L33.791777,1.14770098 L33.791777,0.176482219 L0.145711142,0.176482219 M72.8717177,9.23383721 L0.00407212182,9.23383721 L0.00407212182,0.0348431989 L33.933416,0.0348431989 L33.933416,1.28934 L32.8166278,1.28934 C32.4844135,1.28934 32.4569001,1.38976206 32.4569001,1.50162148 L32.4569001,1.85132822 C32.4569001,2.09321225 32.4569001,2.2146323 32.8040573,2.2146323 L72.8717177,2.2146323" id="path-75"/>
    <path d="M0.145711142,9.09219819 L72.7300787,9.09219819 L72.7300787,2.35627132 L32.8040573,2.35627132 C32.3152611,2.35627132 32.3152611,2.08800702 32.3152611,1.85132822 L32.3152611,1.50162148 C32.3152611,1.18792646 32.5832067,1.14770098 32.8166278,1.14770098 L33.791777,1.14770098 L33.791777,0.176482219 L0.145711142,0.176482219 M72.8717177,9.23383721 L0.00407212182,9.23383721 L0.00407212182,0.0348431989 L33.933416,0.0348431989 L33.933416,1.28934 L32.8166278,1.28934 C32.4844135,1.28934 32.4569001,1.38976206 32.4569001,1.50162148 L32.4569001,1.85132822 C32.4569001,2.09321225 32.4569001,2.2146323 32.8040573,2.2146323 L72.8717177,2.2146323" id="path-77"/>
    <path d="M0.145711142,9.09219819 L72.7300787,9.09219819 L72.7300787,2.35627132 L32.8040573,2.35627132 C32.3152611,2.35627132 32.3152611,2.08800702 32.3152611,1.85132822 L32.3152611,1.50162148 C32.3152611,1.18792646 32.5832067,1.14770098 32.8166278,1.14770098 L33.791777,1.14770098 L33.791777,0.176482219 L0.145711142,0.176482219 M72.8717177,9.23383721 L0.00407212182,9.23383721 L0.00407212182,0.0348431989 L33.933416,0.0348431989 L33.933416,1.28934 L32.8166278,1.28934 C32.4844135,1.28934 32.4569001,1.38976206 32.4569001,1.50162148 L32.4569001,1.85132822 C32.4569001,2.09321225 32.4569001,2.2146323 32.8040573,2.2146323 L72.8717177,2.2146323" id="path-79"/>
    <path d="M0.145711142,9.09219819 L72.7300787,9.09219819 L72.7300787,2.35627132 L32.8040573,2.35627132 C32.3152611,2.35627132 32.3152611,2.08800702 32.3152611,1.85132822 L32.3152611,1.50162148 C32.3152611,1.18792646 32.5832067,1.14770098 32.8166278,1.14770098 L33.791777,1.14770098 L33.791777,0.176482219 L0.145711142,0.176482219 M72.8717177,9.23383721 L0.00407212182,9.23383721 L0.00407212182,0.0348431989 L33.933416,0.0348431989 L33.933416,1.28934 L32.8166278,1.28934 C32.4844135,1.28934 32.4569001,1.38976206 32.4569001,1.50162148 L32.4569001,1.85132822 C32.4569001,2.09321225 32.4569001,2.2146323 32.8040573,2.2146323 L72.8717177,2.2146323" id="path-81"/>
    <path d="M0.145711142,9.09219819 L72.7300787,9.09219819 L72.7300787,2.35627132 L32.8040573,2.35627132 C32.3152611,2.35627132 32.3152611,2.08800702 32.3152611,1.85132822 L32.3152611,1.50162148 C32.3152611,1.18792646 32.5832067,1.14770098 32.8166278,1.14770098 L33.791777,1.14770098 L33.791777,0.176482219 L0.145711142,0.176482219 M72.8717177,9.23383721 L0.00407212182,9.23383721 L0.00407212182,0.0348431989 L33.933416,0.0348431989 L33.933416,1.28934 L32.8166278,1.28934 C32.4844135,1.28934 32.4569001,1.38976206 32.4569001,1.50162148 L32.4569001,1.85132822 C32.4569001,2.09321225 32.4569001,2.2146323 32.8040573,2.2146323 L72.8717177,2.2146323" id="path-83"/>
    <path d="M0.145711142,9.09219819 L72.7300787,9.09219819 L72.7300787,2.35627132 L32.8040573,2.35627132 C32.3152611,2.35627132 32.3152611,2.08800702 32.3152611,1.85132822 L32.3152611,1.50162148 C32.3152611,1.18792646 32.5832067,1.14770098 32.8166278,1.14770098 L33.791777,1.14770098 L33.791777,0.176482219 L0.145711142,0.176482219 M72.8717177,9.23383721 L0.00407212182,9.23383721 L0.00407212182,0.0348431989 L33.933416,0.0348431989 L33.933416,1.28934 L32.8166278,1.28934 C32.4844135,1.28934 32.4569001,1.38976206 32.4569001,1.50162148 L32.4569001,1.85132822 C32.4569001,2.09321225 32.4569001,2.2146323 32.8040573,2.2146323 L72.8717177,2.2146323" id="path-85"/>
    <path d="M0.145711142,9.09219819 L72.7300787,9.09219819 L72.7300787,2.35627132 L32.8040573,2.35627132 C32.3152611,2.35627132 32.3152611,2.08800702 32.3152611,1.85132822 L32.3152611,1.50162148 C32.3152611,1.18792646 32.5832067,1.14770098 32.8166278,1.14770098 L33.791777,1.14770098 L33.791777,0.176482219 L0.145711142,0.176482219 M72.8717177,9.23383721 L0.00407212182,9.23383721 L0.00407212182,0.0348431989 L33.933416,0.0348431989 L33.933416,1.28934 L32.8166278,1.28934 C32.4844135,1.28934 32.4569001,1.38976206 32.4569001,1.50162148 L32.4569001,1.85132822 C32.4569001,2.09321225 32.4569001,2.2146323 32.8040573,2.2146323 L72.8717177,2.2146323" id="path-87"/>
    <path d="M0.145711142,9.09219819 L72.7300787,9.09219819 L72.7300787,2.35627132 L32.8040573,2.35627132 C32.3152611,2.35627132 32.3152611,2.08800702 32.3152611,1.85132822 L32.3152611,1.50162148 C32.3152611,1.18792646 32.5832067,1.14770098 32.8166278,1.14770098 L33.791777,1.14770098 L33.791777,0.176482219 L0.145711142,0.176482219 M72.8717177,9.23383721 L0.00407212182,9.23383721 L0.00407212182,0.0348431989 L33.933416,0.0348431989 L33.933416,1.28934 L32.8166278,1.28934 C32.4844135,1.28934 32.4569001,1.38976206 32.4569001,1.50162148 L32.4569001,1.85132822 C32.4569001,2.09321225 32.4569001,2.2146323 32.8040573,2.2146323 L72.8717177,2.2146323" id="path-89"/>
    <path d="M0.145711142,9.09219819 L72.7300787,9.09219819 L72.7300787,2.35627132 L32.8040573,2.35627132 C32.3152611,2.35627132 32.3152611,2.08800702 32.3152611,1.85132822 L32.3152611,1.50162148 C32.3152611,1.18792646 32.5832067,1.14770098 32.8166278,1.14770098 L33.791777,1.14770098 L33.791777,0.176482219 L0.145711142,0.176482219 M72.8717177,9.23383721 L0.00407212182,9.23383721 L0.00407212182,0.0348431989 L33.933416,0.0348431989 L33.933416,1.28934 L32.8166278,1.28934 C32.4844135,1.28934 32.4569001,1.38976206 32.4569001,1.50162148 L32.4569001,1.85132822 C32.4569001,2.09321225 32.4569001,2.2146323 32.8040573,2.2146323 L72.8717177,2.2146323" id="path-91"/>
    <path d="M0.145711142,9.09219819 L72.7300787,9.09219819 L72.7300787,2.35627132 L32.8040573,2.35627132 C32.3152611,2.35627132 32.3152611,2.08800702 32.3152611,1.85132822 L32.3152611,1.50162148 C32.3152611,1.18792646 32.5832067,1.14770098 32.8166278,1.14770098 L33.791777,1.14770098 L33.791777,0.176482219 L0.145711142,0.176482219 M72.8717177,9.23383721 L0.00407212182,9.23383721 L0.00407212182,0.0348431989 L33.933416,0.0348431989 L33.933416,1.28934 L32.8166278,1.28934 C32.4844135,1.28934 32.4569001,1.38976206 32.4569001,1.50162148 L32.4569001,1.85132822 C32.4569001,2.09321225 32.4569001,2.2146323 32.8040573,2.2146323 L72.8717177,2.2146323" id="path-93"/>
    <path d="M0.145711142,9.09219819 L72.7300787,9.09219819 L72.7300787,2.35627132 L32.8040573,2.35627132 C32.3152611,2.35627132 32.3152611,2.08800702 32.3152611,1.85132822 L32.3152611,1.50162148 C32.3152611,1.18792646 32.5832067,1.14770098 32.8166278,1.14770098 L33.791777,1.14770098 L33.791777,0.176482219 L0.145711142,0.176482219 M72.8717177,9.23383721 L0.00407212182,9.23383721 L0.00407212182,0.0348431989 L33.933416,0.0348431989 L33.933416,1.28934 L32.8166278,1.28934 C32.4844135,1.28934 32.4569001,1.38976206 32.4569001,1.50162148 L32.4569001,1.85132822 C32.4569001,2.09321225 32.4569001,2.2146323 32.8040573,2.2146323 L72.8717177,2.2146323" id="path-95"/>
    <path d="M0.145711142,9.09219819 L72.7300787,9.09219819 L72.7300787,2.35627132 L32.8040573,2.35627132 C32.3152611,2.35627132 32.3152611,2.08800702 32.3152611,1.85132822 L32.3152611,1.50162148 C32.3152611,1.18792646 32.5832067,1.14770098 32.8166278,1.14770098 L33.791777,1.14770098 L33.791777,0.176482219 L0.145711142,0.176482219 M72.8717177,9.23383721 L0.00407212182,9.23383721 L0.00407212182,0.0348431989 L33.933416,0.0348431989 L33.933416,1.28934 L32.8166278,1.28934 C32.4844135,1.28934 32.4569001,1.38976206 32.4569001,1.50162148 L32.4569001,1.85132822 C32.4569001,2.09321225 32.4569001,2.2146323 32.8040573,2.2146323 L72.8717177,2.2146323" id="path-97"/>
    <path d="M0.145711142,9.09219819 L72.7300787,9.09219819 L72.7300787,2.35627132 L32.8040573,2.35627132 C32.3152611,2.35627132 32.3152611,2.08800702 32.3152611,1.85132822 L32.3152611,1.50162148 C32.3152611,1.18792646 32.5832067,1.14770098 32.8166278,1.14770098 L33.791777,1.14770098 L33.791777,0.176482219 L0.145711142,0.176482219 M72.8717177,9.23383721 L0.00407212182,9.23383721 L0.00407212182,0.0348431989 L33.933416,0.0348431989 L33.933416,1.28934 L32.8166278,1.28934 C32.4844135,1.28934 32.4569001,1.38976206 32.4569001,1.50162148 L32.4569001,1.85132822 C32.4569001,2.09321225 32.4569001,2.2146323 32.8040573,2.2146323 L72.8717177,2.2146323" id="path-99"/>
    <path d="M0.145711142,9.09219819 L72.7300787,9.09219819 L72.7300787,2.35627132 L32.8040573,2.35627132 C32.3152611,2.35627132 32.3152611,2.08800702 32.3152611,1.85132822 L32.3152611,1.50162148 C32.3152611,1.18792646 32.5832067,1.14770098 32.8166278,1.14770098 L33.791777,1.14770098 L33.791777,0.176482219 L0.145711142,0.176482219 M72.8717177,9.23383721 L0.00407212182,9.23383721 L0.00407212182,0.0348431989 L33.933416,0.0348431989 L33.933416,1.28934 L32.8166278,1.28934 C32.4844135,1.28934 32.4569001,1.38976206 32.4569001,1.50162148 L32.4569001,1.85132822 C32.4569001,2.09321225 32.4569001,2.2146323 32.8040573,2.2146323 L72.8717177,2.2146323" id="path-101"/>
    <path d="M0.145711142,9.09219819 L72.7300787,9.09219819 L72.7300787,2.35627132 L32.8040573,2.35627132 C32.3152611,2.35627132 32.3152611,2.08800702 32.3152611,1.85132822 L32.3152611,1.50162148 C32.3152611,1.18792646 32.5832067,1.14770098 32.8166278,1.14770098 L33.791777,1.14770098 L33.791777,0.176482219 L0.145711142,0.176482219 M72.8717177,9.23383721 L0.00407212182,9.23383721 L0.00407212182,0.0348431989 L33.933416,0.0348431989 L33.933416,1.28934 L32.8166278,1.28934 C32.4844135,1.28934 32.4569001,1.38976206 32.4569001,1.50162148 L32.4569001,1.85132822 C32.4569001,2.09321225 32.4569001,2.2146323 32.8040573,2.2146323 L72.8717177,2.2146323" id="path-103"/>
    <path d="M0.145711142,9.09219819 L72.7300787,9.09219819 L72.7300787,2.35627132 L32.8040573,2.35627132 C32.3152611,2.35627132 32.3152611,2.08800702 32.3152611,1.85132822 L32.3152611,1.50162148 C32.3152611,1.18792646 32.5832067,1.14770098 32.8166278,1.14770098 L33.791777,1.14770098 L33.791777,0.176482219 L0.145711142,0.176482219 M72.8717177,9.23383721 L0.00407212182,9.23383721 L0.00407212182,0.0348431989 L33.933416,0.0348431989 L33.933416,1.28934 L32.8166278,1.28934 C32.4844135,1.28934 32.4569001,1.38976206 32.4569001,1.50162148 L32.4569001,1.85132822 C32.4569001,2.09321225 32.4569001,2.2146323 32.8040573,2.2146323 L72.8717177,2.2146323" id="path-105"/>
    <path d="M0.145711142,9.09219819 L72.7300787,9.09219819 L72.7300787,2.35627132 L32.8040573,2.35627132 C32.3152611,2.35627132 32.3152611,2.08800702 32.3152611,1.85132822 L32.3152611,1.50162148 C32.3152611,1.18792646 32.5832067,1.14770098 32.8166278,1.14770098 L33.791777,1.14770098 L33.791777,0.176482219 L0.145711142,0.176482219 M72.8717177,9.23383721 L0.00407212182,9.23383721 L0.00407212182,0.0348431989 L33.933416,0.0348431989 L33.933416,1.28934 L32.8166278,1.28934 C32.4844135,1.28934 32.4569001,1.38976206 32.4569001,1.50162148 L32.4569001,1.85132822 C32.4569001,2.09321225 32.4569001,2.2146323 32.8040573,2.2146323 L72.8717177,2.2146323" id="path-107"/>
    <path d="M0.145711142,9.09219819 L72.7300787,9.09219819 L72.7300787,2.35627132 L32.8040573,2.35627132 C32.3152611,2.35627132 32.3152611,2.08800702 32.3152611,1.85132822 L32.3152611,1.50162148 C32.3152611,1.18792646 32.5832067,1.14770098 32.8166278,1.14770098 L33.791777,1.14770098 L33.791777,0.176482219 L0.145711142,0.176482219 M72.8717177,9.23383721 L0.00407212182,9.23383721 L0.00407212182,0.0348431989 L33.933416,0.0348431989 L33.933416,1.28934 L32.8166278,1.28934 C32.4844135,1.28934 32.4569001,1.38976206 32.4569001,1.50162148 L32.4569001,1.85132822 C32.4569001,2.09321225 32.4569001,2.2146323 32.8040573,2.2146323 L72.8717177,2.2146323" id="path-109"/>
    <path d="M0.145711142,9.09219819 L72.7300787,9.09219819 L72.7300787,2.35627132 L32.8040573,2.35627132 C32.3152611,2.35627132 32.3152611,2.08800702 32.3152611,1.85132822 L32.3152611,1.50162148 C32.3152611,1.18792646 32.5832067,1.14770098 32.8166278,1.14770098 L33.791777,1.14770098 L33.791777,0.176482219 L0.145711142,0.176482219 M72.8717177,9.23383721 L0.00407212182,9.23383721 L0.00407212182,0.0348431989 L33.933416,0.0348431989 L33.933416,1.28934 L32.8166278,1.28934 C32.4844135,1.28934 32.4569001,1.38976206 32.4569001,1.50162148 L32.4569001,1.85132822 C32.4569001,2.09321225 32.4569001,2.2146323 32.8040573,2.2146323 L72.8717177,2.2146323" id="path-111"/>
    <path d="M0.145711142,9.09219819 L72.7300787,9.09219819 L72.7300787,2.35627132 L32.8040573,2.35627132 C32.3152611,2.35627132 32.3152611,2.08800702 32.3152611,1.85132822 L32.3152611,1.50162148 C32.3152611,1.18792646 32.5832067,1.14770098 32.8166278,1.14770098 L33.791777,1.14770098 L33.791777,0.176482219 L0.145711142,0.176482219 M72.8717177,9.23383721 L0.00407212182,9.23383721 L0.00407212182,0.0348431989 L33.933416,0.0348431989 L33.933416,1.28934 L32.8166278,1.28934 C32.4844135,1.28934 32.4569001,1.38976206 32.4569001,1.50162148 L32.4569001,1.85132822 C32.4569001,2.09321225 32.4569001,2.2146323 32.8040573,2.2146323 L72.8717177,2.2146323" id="path-113"/>
    <path d="M0.145711142,9.09219819 L72.7300787,9.09219819 L72.7300787,2.35627132 L32.8040573,2.35627132 C32.3152611,2.35627132 32.3152611,2.08800702 32.3152611,1.85132822 L32.3152611,1.50162148 C32.3152611,1.18792646 32.5832067,1.14770098 32.8166278,1.14770098 L33.791777,1.14770098 L33.791777,0.176482219 L0.145711142,0.176482219 M72.8717177,9.23383721 L0.00407212182,9.23383721 L0.00407212182,0.0348431989 L33.933416,0.0348431989 L33.933416,1.28934 L32.8166278,1.28934 C32.4844135,1.28934 32.4569001,1.38976206 32.4569001,1.50162148 L32.4569001,1.85132822 C32.4569001,2.09321225 32.4569001,2.2146323 32.8040573,2.2146323 L72.8717177,2.2146323" id="path-115"/>
    <path d="M0.145711142,9.09219819 L72.7300787,9.09219819 L72.7300787,2.35627132 L32.8040573,2.35627132 C32.3152611,2.35627132 32.3152611,2.08800702 32.3152611,1.85132822 L32.3152611,1.50162148 C32.3152611,1.18792646 32.5832067,1.14770098 32.8166278,1.14770098 L33.791777,1.14770098 L33.791777,0.176482219 L0.145711142,0.176482219 M72.8717177,9.23383721 L0.00407212182,9.23383721 L0.00407212182,0.0348431989 L33.933416,0.0348431989 L33.933416,1.28934 L32.8166278,1.28934 C32.4844135,1.28934 32.4569001,1.38976206 32.4569001,1.50162148 L32.4569001,1.85132822 C32.4569001,2.09321225 32.4569001,2.2146323 32.8040573,2.2146323 L72.8717177,2.2146323" id="path-117"/>
    <path d="M0.145711142,9.09219819 L72.7300787,9.09219819 L72.7300787,2.35627132 L32.8040573,2.35627132 C32.3152611,2.35627132 32.3152611,2.08800702 32.3152611,1.85132822 L32.3152611,1.50162148 C32.3152611,1.18792646 32.5832067,1.14770098 32.8166278,1.14770098 L33.791777,1.14770098 L33.791777,0.176482219 L0.145711142,0.176482219 M72.8717177,9.23383721 L0.00407212182,9.23383721 L0.00407212182,0.0348431989 L33.933416,0.0348431989 L33.933416,1.28934 L32.8166278,1.28934 C32.4844135,1.28934 32.4569001,1.38976206 32.4569001,1.50162148 L32.4569001,1.85132822 C32.4569001,2.09321225 32.4569001,2.2146323 32.8040573,2.2146323 L72.8717177,2.2146323" id="path-119"/>
    <path d="M0.145711142,9.09219819 L72.7300787,9.09219819 L72.7300787,2.35627132 L32.8040573,2.35627132 C32.3152611,2.35627132 32.3152611,2.08800702 32.3152611,1.85132822 L32.3152611,1.50162148 C32.3152611,1.18792646 32.5832067,1.14770098 32.8166278,1.14770098 L33.791777,1.14770098 L33.791777,0.176482219 L0.145711142,0.176482219 M72.8717177,9.23383721 L0.00407212182,9.23383721 L0.00407212182,0.0348431989 L33.933416,0.0348431989 L33.933416,1.28934 L32.8166278,1.28934 C32.4844135,1.28934 32.4569001,1.38976206 32.4569001,1.50162148 L32.4569001,1.85132822 C32.4569001,2.09321225 32.4569001,2.2146323 32.8040573,2.2146323 L72.8717177,2.2146323" id="path-121"/>
    <path d="M0.145711142,9.09219819 L72.7300787,9.09219819 L72.7300787,2.35627132 L32.8040573,2.35627132 C32.3152611,2.35627132 32.3152611,2.08800702 32.3152611,1.85132822 L32.3152611,1.50162148 C32.3152611,1.18792646 32.5832067,1.14770098 32.8166278,1.14770098 L33.791777,1.14770098 L33.791777,0.176482219 L0.145711142,0.176482219 M72.8717177,9.23383721 L0.00407212182,9.23383721 L0.00407212182,0.0348431989 L33.933416,0.0348431989 L33.933416,1.28934 L32.8166278,1.28934 C32.4844135,1.28934 32.4569001,1.38976206 32.4569001,1.50162148 L32.4569001,1.85132822 C32.4569001,2.09321225 32.4569001,2.2146323 32.8040573,2.2146323 L72.8717177,2.2146323" id="path-123"/>
    <path d="M0.145711142,9.09219819 L72.7300787,9.09219819 L72.7300787,2.35627132 L32.8040573,2.35627132 C32.3152611,2.35627132 32.3152611,2.08800702 32.3152611,1.85132822 L32.3152611,1.50162148 C32.3152611,1.18792646 32.5832067,1.14770098 32.8166278,1.14770098 L33.791777,1.14770098 L33.791777,0.176482219 L0.145711142,0.176482219 M72.8717177,9.23383721 L0.00407212182,9.23383721 L0.00407212182,0.0348431989 L33.933416,0.0348431989 L33.933416,1.28934 L32.8166278,1.28934 C32.4844135,1.28934 32.4569001,1.38976206 32.4569001,1.50162148 L32.4569001,1.85132822 C32.4569001,2.09321225 32.4569001,2.2146323 32.8040573,2.2146323 L72.8717177,2.2146323" id="path-125"/>
    <path d="M0.145711142,9.09219819 L72.7300787,9.09219819 L72.7300787,2.35627132 L32.8040573,2.35627132 C32.3152611,2.35627132 32.3152611,2.08800702 32.3152611,1.85132822 L32.3152611,1.50162148 C32.3152611,1.18792646 32.5832067,1.14770098 32.8166278,1.14770098 L33.791777,1.14770098 L33.791777,0.176482219 L0.145711142,0.176482219 M72.8717177,9.23383721 L0.00407212182,9.23383721 L0.00407212182,0.0348431989 L33.933416,0.0348431989 L33.933416,1.28934 L32.8166278,1.28934 C32.4844135,1.28934 32.4569001,1.38976206 32.4569001,1.50162148 L32.4569001,1.85132822 C32.4569001,2.09321225 32.4569001,2.2146323 32.8040573,2.2146323 L72.8717177,2.2146323" id="path-127"/>
    <path d="M0.145711142,9.09219819 L72.7300787,9.09219819 L72.7300787,2.35627132 L32.8040573,2.35627132 C32.3152611,2.35627132 32.3152611,2.08800702 32.3152611,1.85132822 L32.3152611,1.50162148 C32.3152611,1.18792646 32.5832067,1.14770098 32.8166278,1.14770098 L33.791777,1.14770098 L33.791777,0.176482219 L0.145711142,0.176482219 M72.8717177,9.23383721 L0.00407212182,9.23383721 L0.00407212182,0.0348431989 L33.933416,0.0348431989 L33.933416,1.28934 L32.8166278,1.28934 C32.4844135,1.28934 32.4569001,1.38976206 32.4569001,1.50162148 L32.4569001,1.85132822 C32.4569001,2.09321225 32.4569001,2.2146323 32.8040573,2.2146323 L72.8717177,2.2146323" id="path-129"/>
    <path d="M0.145711142,9.09219819 L72.7300787,9.09219819 L72.7300787,2.35627132 L32.8040573,2.35627132 C32.3152611,2.35627132 32.3152611,2.08800702 32.3152611,1.85132822 L32.3152611,1.50162148 C32.3152611,1.18792646 32.5832067,1.14770098 32.8166278,1.14770098 L33.791777,1.14770098 L33.791777,0.176482219 L0.145711142,0.176482219 M72.8717177,9.23383721 L0.00407212182,9.23383721 L0.00407212182,0.0348431989 L33.933416,0.0348431989 L33.933416,1.28934 L32.8166278,1.28934 C32.4844135,1.28934 32.4569001,1.38976206 32.4569001,1.50162148 L32.4569001,1.85132822 C32.4569001,2.09321225 32.4569001,2.2146323 32.8040573,2.2146323 L72.8717177,2.2146323" id="path-131"/>
    <path d="M0.145711142,9.09219819 L72.7300787,9.09219819 L72.7300787,2.35627132 L32.8040573,2.35627132 C32.3152611,2.35627132 32.3152611,2.08800702 32.3152611,1.85132822 L32.3152611,1.50162148 C32.3152611,1.18792646 32.5832067,1.14770098 32.8166278,1.14770098 L33.791777,1.14770098 L33.791777,0.176482219 L0.145711142,0.176482219 M72.8717177,9.23383721 L0.00407212182,9.23383721 L0.00407212182,0.0348431989 L33.933416,0.0348431989 L33.933416,1.28934 L32.8166278,1.28934 C32.4844135,1.28934 32.4569001,1.38976206 32.4569001,1.50162148 L32.4569001,1.85132822 C32.4569001,2.09321225 32.4569001,2.2146323 32.8040573,2.2146323 L72.8717177,2.2146323" id="path-133"/>
    <path d="M0.145711142,9.09219819 L72.7300787,9.09219819 L72.7300787,2.35627132 L32.8040573,2.35627132 C32.3152611,2.35627132 32.3152611,2.08800702 32.3152611,1.85132822 L32.3152611,1.50162148 C32.3152611,1.18792646 32.5832067,1.14770098 32.8166278,1.14770098 L33.791777,1.14770098 L33.791777,0.176482219 L0.145711142,0.176482219 M72.8717177,9.23383721 L0.00407212182,9.23383721 L0.00407212182,0.0348431989 L33.933416,0.0348431989 L33.933416,1.28934 L32.8166278,1.28934 C32.4844135,1.28934 32.4569001,1.38976206 32.4569001,1.50162148 L32.4569001,1.85132822 C32.4569001,2.09321225 32.4569001,2.2146323 32.8040573,2.2146323 L72.8717177,2.2146323" id="path-135"/>
    <path d="M0.145711142,9.09219819 L72.7300787,9.09219819 L72.7300787,2.35627132 L32.8040573,2.35627132 C32.3152611,2.35627132 32.3152611,2.08800702 32.3152611,1.85132822 L32.3152611,1.50162148 C32.3152611,1.18792646 32.5832067,1.14770098 32.8166278,1.14770098 L33.791777,1.14770098 L33.791777,0.176482219 L0.145711142,0.176482219 M72.8717177,9.23383721 L0.00407212182,9.23383721 L0.00407212182,0.0348431989 L33.933416,0.0348431989 L33.933416,1.28934 L32.8166278,1.28934 C32.4844135,1.28934 32.4569001,1.38976206 32.4569001,1.50162148 L32.4569001,1.85132822 C32.4569001,2.09321225 32.4569001,2.2146323 32.8040573,2.2146323 L72.8717177,2.2146323" id="path-137"/>
    <path d="M0.145711142,9.09219819 L72.7300787,9.09219819 L72.7300787,2.35627132 L32.8040573,2.35627132 C32.3152611,2.35627132 32.3152611,2.08800702 32.3152611,1.85132822 L32.3152611,1.50162148 C32.3152611,1.18792646 32.5832067,1.14770098 32.8166278,1.14770098 L33.791777,1.14770098 L33.791777,0.176482219 L0.145711142,0.176482219 M72.8717177,9.23383721 L0.00407212182,9.23383721 L0.00407212182,0.0348431989 L33.933416,0.0348431989 L33.933416,1.28934 L32.8166278,1.28934 C32.4844135,1.28934 32.4569001,1.38976206 32.4569001,1.50162148 L32.4569001,1.85132822 C32.4569001,2.09321225 32.4569001,2.2146323 32.8040573,2.2146323 L72.8717177,2.2146323" id="path-139"/>
    <path d="M0.145711142,9.09219819 L72.7300787,9.09219819 L72.7300787,2.35627132 L32.8040573,2.35627132 C32.3152611,2.35627132 32.3152611,2.08800702 32.3152611,1.85132822 L32.3152611,1.50162148 C32.3152611,1.18792646 32.5832067,1.14770098 32.8166278,1.14770098 L33.791777,1.14770098 L33.791777,0.176482219 L0.145711142,0.176482219 M72.8717177,9.23383721 L0.00407212182,9.23383721 L0.00407212182,0.0348431989 L33.933416,0.0348431989 L33.933416,1.28934 L32.8166278,1.28934 C32.4844135,1.28934 32.4569001,1.38976206 32.4569001,1.50162148 L32.4569001,1.85132822 C32.4569001,2.09321225 32.4569001,2.2146323 32.8040573,2.2146323 L72.8717177,2.2146323" id="path-141"/>
    <path d="M0.145711142,9.09219819 L72.7300787,9.09219819 L72.7300787,2.35627132 L32.8040573,2.35627132 C32.3152611,2.35627132 32.3152611,2.08800702 32.3152611,1.85132822 L32.3152611,1.50162148 C32.3152611,1.18792646 32.5832067,1.14770098 32.8166278,1.14770098 L33.791777,1.14770098 L33.791777,0.176482219 L0.145711142,0.176482219 M72.8717177,9.23383721 L0.00407212182,9.23383721 L0.00407212182,0.0348431989 L33.933416,0.0348431989 L33.933416,1.28934 L32.8166278,1.28934 C32.4844135,1.28934 32.4569001,1.38976206 32.4569001,1.50162148 L32.4569001,1.85132822 C32.4569001,2.09321225 32.4569001,2.2146323 32.8040573,2.2146323 L72.8717177,2.2146323" id="path-143"/>
    <polygon id="polygon-3" points="0 14.3076983 158.620067 14.3076983 140.600152 0.104321005 18.5299816 0.104321005"/>
    <path d="M0.0510474537,0.0967928248 L0.287431969,0.232180257 L2.10628755,4.58050602 L0.334708873,4.41571317 L0.0510474537,0.0967928248 Z M0.47624954,0.344594709 L7.01728463,5.59805591 C5.55431101,5.20782154 4.18618125,4.87364125 3.16929276,4.74499256 L0.47624954,0.344594709 Z" id="path-4"/>
    <polygon id="polygon-4" points="0.972495715 0.529398614 15.9263373 0.529398614 15.9263373 65.6258738 0.972495715 65.6258738"/>
    <polygon id="polygon-5" points="0.972400328 0.529398614 6.31217229 0.529398614 6.31217229 9.92197928 0.972400328 9.92197928"/>
    <polygon id="polygon-6" points="0.972686489 0.529398614 30.5322066 0.529398614 30.5322066 65.4706789 0.972686489 65.4706789"/>
    <polygon id="polygon-7" points="0.0757103959 0.0554966176 9.64343205 0.0554966176 9.64343205 44.9379917 0.0757103959 44.9379917"/>
  </defs>
  <g id="Landing-page" stroke="none" stroke-width="1" fill="none" fill-rule="evenodd" transform="matrix(1, 0, 0, 1, 5.42471, 25.483883)">
    <g id="Landing-page---v2" transform="translate(-259.000000, -2304.000000)">
      <g id="Group-26" transform="translate(180.000000, 1674.250000)">
        <g id="Group-29" transform="translate(0.000000, 150.000000)">
          <g id="Group-83" transform="translate(79.000000, 479.000000)">
            <g id="Group-82" transform="translate(0.000000, 0.391442)">
              <polygon id="Fill-6" fill="#E29D6C" points="10.1205944 117.56631 19.6883917 117.56631 19.6883917 72.6838152 10.1205944 72.6838152"/>
              <polygon id="Fill-8" fill="#FCDAA6" points="8.36212406 117.56631 16.8576993 117.56631 16.8576993 5.80306331 8.36212406 5.80306331"/>
              <polygon id="Fill-8-Copy" fill="#FCDAA6" transform="translate(22.521854, 14.438082) rotate(-315.000000) translate(-22.521854, -14.438082) " points="19.6899958 31.3378571 25.3537126 31.3378571 25.3537126 -2.46169383 19.6899958 -2.46169383"/>
              <polygon id="Fill-8-Copy-3" fill="#FCDAA6" transform="translate(67.886298, 14.438082) rotate(-315.000000) translate(-67.886298, -14.438082) " points="65.0544398 31.3378571 70.7181567 31.3378571 70.7181567 -2.46169383 65.0544398 -2.46169383"/>
              <polygon id="Fill-8-Copy-5" fill="#FCDAA6" transform="translate(113.144828, 14.438082) rotate(-315.000000) translate(-113.144828, -14.438082) " points="110.31297 31.3378571 115.976687 31.3378571 115.976687 -2.46169383 110.31297 -2.46169383"/>
              <polygon id="Fill-8-Copy-2" fill="#FCDAA6" transform="translate(46.421746, 14.438082) rotate(-45.000000) translate(-46.421746, -14.438082) " points="43.5898875 31.3378571 49.2536043 31.3378571 49.2536043 -2.46169383 43.5898875 -2.46169383"/>
              <polygon id="Fill-8-Copy-4" fill="#FCDAA6" transform="translate(91.786190, 14.438082) rotate(-45.000000) translate(-91.786190, -14.438082) " points="88.9543315 31.3378571 94.6180484 31.3378571 94.6180484 -2.46169383 88.9543315 -2.46169383"/>
              <polygon id="Fill-8-Copy-6" fill="#FCDAA6" transform="translate(137.044720, 14.438082) rotate(-45.000000) translate(-137.044720, -14.438082) " points="134.212862 31.3378571 139.876578 31.3378571 139.876578 -2.46169383 134.212862 -2.46169383"/>
              <polygon id="Fill-10" fill="#E29D6C" points="21.4469756 117.56631 31.0147729 117.56631 31.0147729 72.6838152 21.4469756 72.6838152"/>
              <polygon id="Fill-12" fill="#FCDAA6" points="19.6899958 117.56631 28.185571 117.56631 28.185571 72.6838152 19.6899958 72.6838152"/>
              <polygon id="Fill-14" fill="#E29D6C" points="32.7731676 117.56631 42.341154 117.56631 42.341154 72.6838152 32.7731676 72.6838152"/>
              <polygon id="Fill-16" fill="#FCDAA6" points="31.0178676 117.56631 39.5134428 117.56631 39.5134428 72.6838152 31.0178676 72.6838152"/>
              <polygon id="Fill-18" fill="#E29D6C" points="44.0995487 117.56631 53.667346 117.56631 53.667346 72.6838152 44.0995487 72.6838152"/>
              <polygon id="Fill-20" fill="#FCDAA6" points="42.3457393 117.56631 50.8413146 117.56631 50.8413146 72.6838152 42.3457393 72.6838152"/>
              <polygon id="Fill-24" fill="#FCDAA6" points="53.6736111 117.56631 62.1691863 117.56631 62.1691863 3.53930251 53.6736111 3.53930251"/>
              <polygon id="Fill-38" fill="#E29D6C" points="100.731076 117.56631 110.298873 117.56631 110.298873 72.6838152 100.731076 72.6838152"/>
              <polygon id="Fill-40" fill="#FCDAA6" points="98.9850981 117.56631 107.480673 117.56631 107.480673 3.53930251 98.9850981 3.53930251"/>
              <polygon id="Fill-42" fill="#E29D6C" points="112.07629 117.56631 121.644088 117.56631 121.644088 72.6838152 112.07629 72.6838152"/>
              <polygon id="Fill-44" fill="#FCDAA6" points="110.31297 117.56631 118.808545 117.56631 118.808545 72.6838152 110.31297 72.6838152"/>
              <polygon id="Fill-46" fill="#E29D6C" points="123.402482 117.56631 132.970469 117.56631 132.970469 72.6838152 123.402482 72.6838152"/>
              <polygon id="Fill-48" fill="#FCDAA6" points="121.640842 117.56631 130.136417 117.56631 130.136417 72.6838152 121.640842 72.6838152"/>
              <polygon id="Fill-50" fill="#E29D6C" points="134.728863 117.56631 144.296661 117.56631 144.296661 72.6838152 134.728863 72.6838152"/>
              <polygon id="Fill-52" fill="#FCDAA6" points="132.968713 117.56631 141.464289 117.56631 141.464289 72.6838152 132.968713 72.6838152"/>
              <g id="Group-56" transform="translate(145.979534, 72.628319)">
                <g id="Clip-55"/>
              </g>
              <polygon id="Fill-57" fill="#FCDAA6" points="144.296585 117.56631 152.79216 117.56631 152.79216 5.80306331 144.296585 5.80306331"/>
              <polygon id="Fill-57-Copy" fill="#FCDAA6" points="0.864194938 6.03388139 159.448266 6.03388139 159.448266 0.370164574 0.864194938 0.370164574"/>
              <path d="M15.7471009,98.6327523 C17.3165222,98.6327523 18.6401305,99.6349129 19.1506651,101.015436 C20.0771909,100.863978 20.8335386,101.733777 20.5688169,102.622675 C21.1360776,102.906305 21.6087949,103.322107 21.9491513,103.832642 C22.4596859,103.586829 23.0458553,103.700281 23.4240291,104.116272 C25.2581721,103.379023 27.2814019,104.740259 27.2814019,106.725672 C27.2814019,107.671106 26.8086847,108.503089 26.1090631,109.013623 C26.241424,109.089258 26.3548761,109.183801 26.4683283,109.297254 C28.2079278,108.91908 29.8718925,110.242688 29.8718925,112.057922 C29.8718925,113.608435 28.623919,114.875317 27.0544977,114.875317 L4.02371288,114.875317 C2.0383004,114.875317 0.412153037,113.268079 0.412153037,111.263757 C0.412153037,109.240717 2.05720909,107.633478 4.06153026,107.652198 C4.11825633,106.74458 4.66660835,105.950415 5.44186466,105.572242 C4.7611518,103.757196 6.10366882,101.752686 8.07017261,101.752686 C8.99669843,101.752686 9.80977211,102.187586 10.3203068,102.868299 C10.8308414,102.490125 11.4548282,102.244501 12.135541,102.187586 C12.1544497,100.239991 13.7616884,98.6327523 15.7471009,98.6327523" id="Fill-59" fill="#139956"/>
              <path d="M15.7471009,98.6327523 C17.3165222,98.6327523 18.6401305,99.6349129 19.1506651,101.015436 C20.0771909,100.863978 20.8335386,101.733777 20.5688169,102.622675 C21.1360776,102.906305 21.6087949,103.322107 21.9491513,103.832642 C22.4596859,103.586829 23.0458553,103.700281 23.4240291,104.116272 C25.2581721,103.379023 27.2814019,104.740259 27.2814019,106.725672 C27.2814019,107.671106 26.8086847,108.503089 26.1090631,109.013623 C26.241424,109.089258 26.3548761,109.183801 26.4683283,109.297254 C28.2079278,108.91908 29.8718925,110.242688 29.8718925,112.057922 C29.8718925,113.608435 28.623919,114.875317 27.0544977,114.875317 L4.02371288,114.875317 C3.0215523,114.875317 2.13284385,114.478235 1.47103969,113.816431 C4.93133002,114.11897 11.6439151,114.326965 12.7406191,111.831018 C19.5099302,114.875317 22.5542294,107.954737 18.545587,105.780237 C19.831378,103.586829 18.9993956,99.8050911 15.7471009,98.6327523" id="Fill-61" fill="#006633"/>
              <path d="M138.619476,92.8277465 C140.737249,92.8277465 142.552484,94.1704526 143.233197,96.0613217 C144.48117,95.8342283 145.521148,97.0254758 145.142974,98.235821 C145.899322,98.6139948 146.561126,99.1812556 147.014935,99.8808771 C147.695647,99.5594294 148.508721,99.7105098 149.019256,100.277771 C151.496483,99.2945186 154.256963,101.109942 154.256963,103.832604 C154.256963,105.118395 153.632976,106.234008 152.668633,106.933819 C152.838811,107.047082 153.009179,107.179442 153.14135,107.330712 C155.504937,106.820177 157.755071,108.635601 157.755071,111.074633 C157.755071,113.192406 156.053289,114.894188 153.935515,114.894188 L122.698359,114.894188 C119.994416,114.894188 117.801008,112.700969 117.801008,109.997026 C117.801008,107.255266 120.032234,105.061669 122.773994,105.099487 C122.83072,103.851702 123.587067,102.792626 124.646143,102.282092 C123.719428,99.8050532 125.534662,97.1012996 128.219696,97.1012996 C129.467859,97.1012996 130.564374,97.6872799 131.264185,98.6139948 C131.963617,98.1032711 132.814508,97.7818234 133.741034,97.7063777 C133.759943,95.0022459 135.934442,92.8277465 138.619476,92.8277465" id="Fill-75" fill="#139956"/>
              <path d="M138.619476,92.8277465 C140.737249,92.8277465 142.552484,94.1704526 143.233197,96.0613217 C144.48117,95.8342283 145.521148,97.0254758 145.142974,98.235821 C145.899322,98.6139948 146.561126,99.1812556 147.014935,99.8808771 C147.695647,99.5594294 148.508721,99.7105098 149.019256,100.277771 C151.496483,99.2945186 154.256963,101.109942 154.256963,103.832604 C154.256963,105.118395 153.632976,106.234008 152.668633,106.933819 C152.838811,107.047082 153.009179,107.179442 153.14135,107.330712 C155.504937,106.820177 157.755071,108.635601 157.755071,111.074633 C157.755071,113.192406 156.053289,114.894188 153.935515,114.894188 L122.698359,114.894188 C121.337122,114.894188 120.126777,114.346025 119.238069,113.457317 C123.946332,113.873308 133.06051,114.13784 134.554108,110.753374 C143.724823,114.894188 147.865826,105.47766 142.420312,102.546813 C144.178631,99.5594294 143.04411,94.4160765 138.619476,92.8277465" id="Fill-77" fill="#006633"/>
              <polygon id="Fill-79" fill="#33CC66" points="0.864194938 120.544753 159.448266 120.544753 159.448266 114.525467 0.864194938 114.525467"/>
              <polygon id="Fill-81" fill="#28A151" points="0.864194938 120.544753 159.448266 120.544753 159.448266 116.566575 0.864194938 116.566575"/>
            </g>
          </g>
        </g>
      </g>
    </g>
  </g>
</svg>