<svg xmlns="http://www.w3.org/2000/svg" x="0px" y="0px"
width="100" height="100"
viewBox="0 0 192 192"
style=" fill:#000000;"><g fill="none" fill-rule="nonzero" stroke="none" stroke-width="1" stroke-linecap="butt" stroke-linejoin="miter" stroke-miterlimit="10" stroke-dasharray="" stroke-dashoffset="0" font-family="none" font-weight="none" font-size="none" text-anchor="none" style="mix-blend-mode: normal"><path d="M0,192v-192h192v192z" fill="none"></path><g fill="#1e87f0"><path d="M57.525,33.22875c-13.76256,0 -24.96,11.19744 -24.96,24.96v74.88c0,13.76256 11.19744,24.96 24.96,24.96h74.88c13.76256,0 24.96,-11.19552 24.96,-24.96v-48c0,-1.05984 -0.86016,-1.92 -1.92,-1.92c-1.05984,0 -1.92,0.86016 -1.92,1.92v48c0,11.6448 -9.4752,21.12 -21.12,21.12h-74.88c-11.6448,0 -21.12,-9.4752 -21.12,-21.12v-74.88c0,-11.6448 9.4752,-21.12 21.12,-21.12h74.88c11.6448,0 21.12,9.4752 21.12,21.12c0,1.05984 0.86016,1.92 1.92,1.92c1.05984,0 1.92,-0.86016 1.92,-1.92c0,-13.76256 -11.19744,-24.96 -24.96,-24.96zM62.97375,42.82875c-11.47392,0 -20.80875,9.33483 -20.80875,20.80875v63.98625c0,11.47392 9.33483,20.805 20.80875,20.805h63.9825c11.472,0 20.80875,-9.33108 20.80875,-20.805v-7.035c0,-0.52992 -0.43008,-0.96 -0.96,-0.96c-0.52992,0 -0.96,0.43008 -0.96,0.96v7.035c0,10.41408 -8.47467,18.885 -18.88875,18.885h-63.9825c-10.41408,0 -18.88875,-8.47092 -18.88875,-18.885v-63.98625c0,-10.41408 8.47467,-18.88875 18.88875,-18.88875h64.63125c0.52992,0 0.96,-0.43008 0.96,-0.96c0,-0.52992 -0.43008,-0.96 -0.96,-0.96zM161.76375,58.39125c-1.21536,0 -2.35752,0.47658 -3.21,1.3425l-63.6,63.0525l-18.63,-19.78875c-0.8832,-0.89664 -2.02464,-1.37625 -3.24,-1.37625c-1.21536,0 -2.35752,0.47658 -3.21,1.3425c-1.74912,1.77408 -1.74912,4.65717 0,6.43125l22.095,22.41c0.8256,0.83904 1.94607,1.2975 3.15375,1.2975c0.11904,0 0.23721,-0.00165 0.35625,-0.01125c0.144,0.03072 0.31965,0.05625 0.52125,0.05625c0.31296,0 0.56484,-0.06285 0.705,-0.10125c0.24192,-0.03072 0.50424,-0.09186 0.75,-0.1725c0.23424,-0.08448 0.39189,-0.14619 0.55125,-0.22875c0.44736,-0.20928 0.85824,-0.49431 1.2,-0.84375l65.7525,-65.62875c1.75872,-1.78368 1.75845,-4.67034 0.01125,-6.4425c-0.85248,-0.86208 -1.99089,-1.33875 -3.20625,-1.33875zM161.76375,60.31125c0.66816,0 1.33437,0.25611 1.84125,0.76875c1.01184,1.0272 1.01184,2.7078 0,3.735l-65.7675,65.64375c-0.20736,0.2112 -0.44598,0.35538 -0.6975,0.4725c-0.09216,0.04608 -0.18525,0.08544 -0.28125,0.12c-0.1632,0.05376 -0.32979,0.08388 -0.49875,0.105c-0.12288,0.01728 -0.23328,0.075 -0.36,0.075c-0.13632,0 -0.25194,-0.05763 -0.3825,-0.07875c-0.0096,-0.00192 -0.0204,-0.00183 -0.03,-0.00375c-0.1536,0.02496 -0.30948,0.0375 -0.465,0.0375c-0.65088,0 -1.29531,-0.22638 -1.78875,-0.7275l-22.095,-22.41c-1.01184,-1.0272 -1.01184,-2.7078 0,-3.735c0.50688,-0.51264 1.17309,-0.76875 1.84125,-0.76875c0.66816,0 1.33437,0.25611 1.84125,0.76875l19.9875,21.225l65.01375,-64.45875c0.50688,-0.51456 1.17309,-0.76875 1.84125,-0.76875zM146.805,100.42875c-0.52992,0 -0.96,0.43008 -0.96,0.96v3.84c0,0.52992 0.43008,0.96 0.96,0.96c0.52992,0 0.96,-0.43008 0.96,-0.96v-3.84c0,-0.52992 -0.43008,-0.96 -0.96,-0.96zM146.805,108.10875c-0.52992,0 -0.96,0.43008 -0.96,0.96v7.68c0,0.52992 0.43008,0.96 0.96,0.96c0.52992,0 0.96,-0.43008 0.96,-0.96v-7.68c0,-0.52992 -0.43008,-0.96 -0.96,-0.96z"></path></g></g></svg>
