<?xml version="1.0" encoding="UTF-8"?>
<svg width="129px" height="97px" viewBox="0 0 129 97" version="1.1" xmlns="http://www.w3.org/2000/svg" xmlns:xlink="http://www.w3.org/1999/xlink">
    <!-- Generator: Sketch 51.3 (57544) - http://www.bohemiancoding.com/sketch -->
    <title>drywall icon</title>
    <desc>Created with Sketch.</desc>
    <defs></defs>
    <g id="Dashboard" stroke="none" stroke-width="1" fill="none" fill-rule="evenodd">
        <g id="New-Project-JV-1" transform="translate(-351.000000, -368.000000)" fill-rule="nonzero">
            <g id="Group-6-Copy" transform="translate(305.000000, 333.000000)">
                <g id="drywall-icon" transform="translate(46.049755, 35.531407)">
                    <path d="M127.429748,27.6242822 L127.429748,82.3494017 C127.429748,84.8004933 124.489893,86.786892 120.862296,86.786892 L7.03422673,86.786892 C3.40663028,86.786892 0.466775632,84.8004933 0.466775632,82.3494017 L0.466775632,20.2284649 L0.466775632,5.43813977 C0.466775632,2.98704822 3.40663028,1.00064951 7.03422673,1.00064951 L120.862296,1.00064951 C124.489893,1.00064951 127.429748,2.98704822 127.429748,5.43813977 L127.429748,27.6242822 Z" id="Combined-Shape" fill="#ECF6FF"></path>
                    <g id="brick-wall" opacity="0.046473" transform="translate(0.314593, 0.444443)">
                        <polygon id="Shape" fill="#E15649" points="0 86.5441957 32.0700029 86.5441957 32.0700029 74.180715 0 74.180715"></polygon>
                        <polygon id="Shape" fill="#BC342E" points="32.0700029 86.5441957 64.1400058 86.5441957 64.1400058 74.180715 32.0700029 74.180715"></polygon>
                        <polygon id="Shape" fill="#A52525" points="64.1400058 86.5441957 96.2100087 86.5441957 96.2100087 74.180715 64.1400058 74.180715"></polygon>
                        <polygon id="Shape" fill="#E15649" points="96.2100087 86.5441957 128.280012 86.5441957 128.280012 74.180715 96.2100087 74.180715"></polygon>
                        <polygon id="Shape" fill="#BC342E" points="0 74.180715 16.0350015 74.180715 16.0350015 61.8172343 0 61.8172343"></polygon>
                        <g id="Group" transform="translate(16.035001, 61.696546)" fill="#A52525">
                            <polygon id="Shape" points="96.2100087 12.4841693 112.24501 12.4841693 112.24501 0.120688585 96.2100087 0.120688585"></polygon>
                            <polygon id="Shape" points="0 12.4841693 32.0700029 12.4841693 32.0700029 0.120688585 0 0.120688585"></polygon>
                        </g>
                        <polygon id="Shape" fill="#E15649" points="48.1050044 74.180715 80.1750073 74.180715 80.1750073 61.8172343 48.1050044 61.8172343"></polygon>
                        <polygon id="Shape" fill="#BC342E" points="80.1750073 74.180715 112.24501 74.180715 112.24501 61.8172343 80.1750073 61.8172343"></polygon>
                        <polygon id="Shape" fill="#E15649" points="0 61.8172343 32.0700029 61.8172343 32.0700029 49.4537537 0 49.4537537"></polygon>
                        <polygon id="Shape" fill="#BC342E" points="32.0700029 61.8172343 64.1400058 61.8172343 64.1400058 49.4537537 32.0700029 49.4537537"></polygon>
                        <polygon id="Shape" fill="#A52525" points="64.1400058 61.8172343 96.2100087 61.8172343 96.2100087 49.4537537 64.1400058 49.4537537"></polygon>
                        <polygon id="Shape" fill="#E15649" points="96.2100087 61.8172343 128.280012 61.8172343 128.280012 49.4537537 96.2100087 49.4537537"></polygon>
                        <polygon id="Shape" fill="#BC342E" points="0 49.4537537 16.0350015 49.4537537 16.0350015 37.090273 0 37.090273"></polygon>
                        <g id="Group" transform="translate(16.035001, 37.017927)" fill="#A52525">
                            <polygon id="Shape" points="96.2100087 12.4358262 112.24501 12.4358262 112.24501 0.0723455386 96.2100087 0.0723455386"></polygon>
                            <polygon id="Shape" points="0 12.4358262 32.0700029 12.4358262 32.0700029 0.0723455386 0 0.0723455386"></polygon>
                        </g>
                        <polygon id="Shape" fill="#E15649" points="48.1050044 49.4537537 80.1750073 49.4537537 80.1750073 37.090273 48.1050044 37.090273"></polygon>
                        <polygon id="Shape" fill="#BC342E" points="80.1750073 49.4537537 112.24501 49.4537537 112.24501 37.090273 80.1750073 37.090273"></polygon>
                        <polygon id="Shape" fill="#E15649" points="0 37.090442 32.0700029 37.090442 32.0700029 24.7269613 0 24.7269613"></polygon>
                        <polygon id="Shape" fill="#BC342E" points="32.0700029 37.090442 64.1400058 37.090442 64.1400058 24.7269613 32.0700029 24.7269613"></polygon>
                        <polygon id="Shape" fill="#A52525" points="64.1400058 37.090442 96.2100087 37.090442 96.2100087 24.7269613 64.1400058 24.7269613"></polygon>
                        <polygon id="Shape" fill="#E15649" points="96.2100087 37.090442 128.280012 37.090442 128.280012 24.7269613 96.2100087 24.7269613"></polygon>
                        <polygon id="Shape" fill="#BC342E" points="0 24.7269613 16.0350015 24.7269613 16.0350015 12.3634807 0 12.3634807"></polygon>
                        <g id="Group" transform="translate(16.035001, 12.339309)" fill="#A52525">
                            <polygon id="Shape" points="96.2100087 12.3876522 112.24501 12.3876522 112.24501 0.0241715234 96.2100087 0.0241715234"></polygon>
                            <polygon id="Shape" points="0 12.3876522 32.0700029 12.3876522 32.0700029 0.0241715234 0 0.0241715234"></polygon>
                        </g>
                        <polygon id="Shape" fill="#E15649" points="48.1050044 24.7269613 80.1750073 24.7269613 80.1750073 12.3634807 48.1050044 12.3634807"></polygon>
                        <polygon id="Shape" fill="#BC342E" points="80.1750073 24.7269613 112.24501 24.7269613 112.24501 12.3634807 80.1750073 12.3634807"></polygon>
                        <polygon id="Shape" fill="#E15649" points="0 12.3634807 32.0700029 12.3634807 32.0700029 0 0 0"></polygon>
                        <polygon id="Shape" fill="#BC342E" points="32.0700029 12.3634807 64.1400058 12.3634807 64.1400058 0 32.0700029 0"></polygon>
                        <polygon id="Shape" fill="#A52525" points="64.1400058 12.3634807 96.2100087 12.3634807 96.2100087 0 64.1400058 0"></polygon>
                        <polygon id="Shape" fill="#E15649" points="96.2100087 12.3634807 128.280012 12.3634807 128.280012 0 96.2100087 0"></polygon>
                    </g>
                    <rect id="Rectangle-8" fill="#A4D2FF" opacity="0.545926339" x="17.0029825" y="13.565134" width="24.3011096" height="28.6549905" rx="5"></rect>
                    <rect id="Rectangle-8-Copy" fill="#A4D2FF" opacity="0.545926339" transform="translate(95.509531, 61.298397) rotate(-90.000000) translate(-95.509531, -61.298397) " x="85.4802841" y="46.9709021" width="20.0584934" height="28.6549905" rx="5"></rect>
                    <g id="Group-2" transform="translate(38.275602, 32.353405)">
                        <path d="M49.8114799,19.9639604 L49.8114799,26.5414187 C49.8086126,28.0346989 48.7848946,29.3329852 47.3324772,29.6842608 C46.603401,29.8620494 40.0911796,29.6842608 35.230671,31.3044304 C34.0901002,31.6721945 33.0742683,32.3510886 32.2985941,33.2644053 C31.3738072,34.3763005 30.7744878,35.7219016 30.5651562,37.1528123 C30.4956178,37.4725449 30.4526046,37.7980127 30.4353993,38.1249142 C30.3880845,38.5493126 30.3665779,38.9772954 30.3708791,39.4045613 L30.3708791,58.5698767 C30.3708791,58.7318937 30.3708791,58.8939106 30.3543906,59.0559276 C30.1988257,60.793667 29.1908796,62.3414306 27.6653395,63.1873601 C27.2882556,63.3845044 26.8839302,63.5264486 26.4659837,63.6081739 C26.321889,63.6375663 26.1756436,63.6597899 26.0286814,63.6734108 C25.9756315,63.6863149 25.9211479,63.69205 25.8666644,63.6891823 C25.5748904,63.7085384 25.2823996,63.7028032 24.9920595,63.6734108 C24.8450973,63.6597899 24.6988519,63.6375663 24.5547572,63.6081739 C24.1368108,63.5264486 23.7324853,63.3845044 23.3554015,63.1873601 C21.8298613,62.3414306 20.8219152,60.793667 20.6663503,59.0559276 C20.6498618,58.8939106 20.6498618,58.7318937 20.6498618,58.5698767 L20.6498618,39.4045613 C20.6541631,38.9772954 20.6326565,38.5493126 20.5853417,38.1249142 C20.5681363,37.7980127 20.5251232,37.4725449 20.4555848,37.1528123 C20.2462532,35.7219016 19.6469338,34.3763005 18.7221468,33.2644053 C17.9464726,32.3510886 16.9306407,31.6721945 15.79007,31.3044304 C10.9295613,29.6842608 4.41733997,29.8620494 3.68826372,29.6842608 C2.23584632,29.3329852 1.21212838,28.0346989 1.20926101,26.5414187 L1.20926101,19.9639604 L49.8114799,19.9639604 Z" id="Shape" fill="#1E87F0"></path>
                        <path d="M48.6309959,0.522642535 L2.38974506,0.522642535 C1.91444767,0.521208849 1.46209055,0.72910662 1.15311127,1.0911358 C0.844132167,1.45316479 0.710073844,1.93276361 0.786064006,2.40232607 L1.20926101,19.9639604 L49.7949916,19.9639604 L50.2346769,2.40232607 C50.3106671,1.93276361 50.1766088,1.45316479 49.8676297,1.0911358 C49.5586504,0.72910662 49.1062933,0.521208849 48.6309959,0.522642535 Z" id="Shape" fill="#D3D9DC"></path>
                        <polygon id="Shape" fill="#ECF0F1" points="36.8508405 19.9639604 25.5103705 19.9639604 12.5497309 0.522642535 23.8902009 0.522642535"></polygon>
                    </g>
                </g>
            </g>
        </g>
    </g>
</svg>