<?xml version="1.0" encoding="UTF-8"?>
<svg width="103px" height="102px" viewBox="0 0 103 102" version="1.1" xmlns="http://www.w3.org/2000/svg" xmlns:xlink="http://www.w3.org/1999/xlink">
    <!-- Generator: Sketch 51.3 (57544) - http://www.bohemiancoding.com/sketch -->
    <title>electrical icon</title>
    <desc>Created with Sketch.</desc>
    <defs></defs>
    <g id="Dashboard" stroke="none" stroke-width="1" fill="none" fill-rule="evenodd">
        <g id="New-Project-JV-1" transform="translate(-115.000000, -631.000000)">
            <g id="Group-6-Copy-4" transform="translate(56.000000, 600.000000)">
                <g id="electrical-icon" transform="translate(59.469072, 31.500000)">
                    <path d="M65.1028935,49.9564746 L65.3276976,49.9564746 L65.3276976,0 L0,0 L0,65.3276976 L57.6420861,65.3276976 L61.4848919,65.3276976 L61.4848919,59.563489 L61.4848919,55.7206833 L61.4848919,53.5744763 C61.4848919,51.5762173 63.1046345,49.9564746 65.1028935,49.9564746 Z" id="Shape" fill="#E7ECED" fill-rule="nonzero"></path>
                    <circle id="Oval" fill="#CBD4D8" fill-rule="nonzero" cx="32.6638488" cy="32.6638488" r="24.9782373"></circle>
                    <circle id="Oval" fill="#38454F" fill-rule="nonzero" cx="23.0568345" cy="32.6638488" r="5.76420861"></circle>
                    <circle id="Oval" fill="#38454F" fill-rule="nonzero" cx="42.2708632" cy="32.6638488" r="5.76420861"></circle>
                    <path d="M32.6638488,7.68561148 C32.0144146,7.68561148 31.3784303,7.73364656 30.7424459,7.78360303 L30.7424459,13.4498201 C30.7424459,14.5123559 31.601313,15.371223 32.6638488,15.371223 C33.7263846,15.371223 34.5852517,14.5123559 34.5852517,13.4498201 L34.5852517,7.78360303 C33.9492673,7.73364656 33.313283,7.68561148 32.6638488,7.68561148 Z" id="Shape" fill="#1E87F0" fill-rule="nonzero"></path>
                    <path d="M32.6638488,49.9564746 C31.601313,49.9564746 30.7424459,50.8153417 30.7424459,51.8778775 L30.7424459,57.5440946 C31.3784303,57.5940511 32.0144146,57.6420861 32.6638488,57.6420861 C33.313283,57.6420861 33.9492673,57.5940511 34.5852517,57.5440946 L34.5852517,51.8778775 C34.5852517,50.8153417 33.7263846,49.9564746 32.6638488,49.9564746 Z" id="Shape" fill="#1E87F0" fill-rule="nonzero"></path>
                    <path d="M30.7424459,90.3059349 C30.7424459,83.9653055 35.9302337,78.7775177 42.2708632,78.7775177 L44.192266,78.7775177 C50.5328955,78.7775177 55.7206833,83.9653055 55.7206833,90.3059349 L55.7206833,92.2273378 C55.7206833,96.4755596 59.158073,99.9129493 63.4062947,99.9129493 L73.0133091,99.9129493 C77.2615308,99.9129493 80.6989206,96.4755596 80.6989206,92.2273378" id="Shape" stroke="#38454F" stroke-width="2" stroke-linecap="round"></path>
                    <rect id="Rectangle-path" fill="#546A79" fill-rule="nonzero" x="76.8561148" y="84.5417263" width="9.60701436" height="7.68561148"></rect>
                    <path d="M92.2273378,49.9564746 L92.2273378,53.7992804 L86.4631292,53.7992804 L86.4631292,49.9564746 L76.8561148,49.9564746 L76.8561148,53.7992804 L71.0919062,53.7992804 L71.0919062,49.9564746 L65.1028935,49.9564746 C63.1046345,49.9564746 61.4848919,51.5762173 61.4848919,53.5744763 L61.4848919,74.4812609 C61.4848919,80.037958 65.9886602,84.5417263 71.5453573,84.5417263 L91.7738867,84.5417263 C97.3305838,84.5417263 101.834352,80.037958 101.834352,74.4812609 L101.834352,53.5091486 C101.834352,51.5473962 100.243431,49.9564746 98.2816783,49.9564746 L92.2273378,49.9564746 Z" id="Shape" fill="#38454F" fill-rule="nonzero"></path>
                    <path d="M76.8561148,53.7992804 L71.0919062,53.7992804 L71.0919062,31.7031474 C71.0919062,30.1122258 72.383089,28.8210431 73.9740105,28.8210431 C75.5649321,28.8210431 76.8561148,30.1122258 76.8561148,31.7031474 L76.8561148,53.7992804 Z" id="Shape" fill="#1E87F0" fill-rule="nonzero"></path>
                    <path d="M92.2273378,53.7992804 L86.4631292,53.7992804 L86.4631292,31.7031474 C86.4631292,30.1122258 87.7543119,28.8210431 89.3452335,28.8210431 C90.9361551,28.8210431 92.2273378,30.1122258 92.2273378,31.7031474 L92.2273378,53.7992804 Z" id="Shape" fill="#1E87F0" fill-rule="nonzero"></path>
                    <path d="M98.2816783,49.9564746 L92.2273378,49.9564746 L92.2273378,53.7992804 L86.4631292,53.7992804 L86.4631292,49.9564746 L76.8561148,49.9564746 L76.8561148,53.7992804 L71.0919062,53.7992804 L71.0919062,49.9564746 L65.1028935,49.9564746 C63.1046345,49.9564746 61.4848919,51.5762173 61.4848919,53.5744763 L61.4848919,54.0894122 C61.4848919,56.0511646 63.0758135,57.6420861 65.0375658,57.6420861 L71.0919062,57.6420861 L76.8561148,57.6420861 L86.4631292,57.6420861 L92.2273378,57.6420861 L98.2163506,57.6420861 C100.21461,57.6420861 101.834352,56.0223435 101.834352,54.0240845 L101.834352,53.5091486 C101.834352,51.5473962 100.243431,49.9564746 98.2816783,49.9564746 Z" id="Shape" fill="#546A79" fill-rule="nonzero"></path>
                </g>
            </g>
        </g>
    </g>
</svg>