<?xml version="1.0" encoding="utf-8"?>
<svg viewBox="0 0 170 170" xmlns="http://www.w3.org/2000/svg">
  <defs>
    <polygon id="path-1" points="4.00129961e-05 0.0297696691 76.9661983 0.0297696691 76.9661983 4.01119615 4.00129961e-05 4.01119615"/>
    <polygon id="path-3" points="0.10078544 0.0182726015 12.5700027 0.0182726015 12.5700027 12.4877093 0.10078544 12.4877093"/>
    <polygon id="path-5" points="0.191451476 0.191451476 43.1029032 0.191451476 43.1029032 3.87495492 0.191451476 3.87495492"/>
    <polygon id="polygon-1" points="0 0.0124819386 77.6824126 0.0124819386 77.6824126 76.2478785 0 76.2478785"/>
    <polygon id="polygon-2" points="89.8018393 0.642280036 90.2537698 0.642280036 90.2537698 6.89659781 89.8018393 6.89659781"/>
    <path d="M0.145711142,9.09219819 L72.7300787,9.09219819 L72.7300787,2.35627132 L32.8040573,2.35627132 C32.3152611,2.35627132 32.3152611,2.08800702 32.3152611,1.85132822 L32.3152611,1.50162148 C32.3152611,1.18792646 32.5832067,1.14770098 32.8166278,1.14770098 L33.791777,1.14770098 L33.791777,0.176482219 L0.145711142,0.176482219 M72.8717177,9.23383721 L0.00407212182,9.23383721 L0.00407212182,0.0348431989 L33.933416,0.0348431989 L33.933416,1.28934 L32.8166278,1.28934 C32.4844135,1.28934 32.4569001,1.38976206 32.4569001,1.50162148 L32.4569001,1.85132822 C32.4569001,2.09321225 32.4569001,2.2146323 32.8040573,2.2146323 L72.8717177,2.2146323" id="path-2"/>
    <path d="M0.145711142,9.09219819 L72.7300787,9.09219819 L72.7300787,2.35627132 L32.8040573,2.35627132 C32.3152611,2.35627132 32.3152611,2.08800702 32.3152611,1.85132822 L32.3152611,1.50162148 C32.3152611,1.18792646 32.5832067,1.14770098 32.8166278,1.14770098 L33.791777,1.14770098 L33.791777,0.176482219 L0.145711142,0.176482219 M72.8717177,9.23383721 L0.00407212182,9.23383721 L0.00407212182,0.0348431989 L33.933416,0.0348431989 L33.933416,1.28934 L32.8166278,1.28934 C32.4844135,1.28934 32.4569001,1.38976206 32.4569001,1.50162148 L32.4569001,1.85132822 C32.4569001,2.09321225 32.4569001,2.2146323 32.8040573,2.2146323 L72.8717177,2.2146323" id="path-7"/>
    <path d="M0.145711142,9.09219819 L72.7300787,9.09219819 L72.7300787,2.35627132 L32.8040573,2.35627132 C32.3152611,2.35627132 32.3152611,2.08800702 32.3152611,1.85132822 L32.3152611,1.50162148 C32.3152611,1.18792646 32.5832067,1.14770098 32.8166278,1.14770098 L33.791777,1.14770098 L33.791777,0.176482219 L0.145711142,0.176482219 M72.8717177,9.23383721 L0.00407212182,9.23383721 L0.00407212182,0.0348431989 L33.933416,0.0348431989 L33.933416,1.28934 L32.8166278,1.28934 C32.4844135,1.28934 32.4569001,1.38976206 32.4569001,1.50162148 L32.4569001,1.85132822 C32.4569001,2.09321225 32.4569001,2.2146323 32.8040573,2.2146323 L72.8717177,2.2146323" id="path-9"/>
    <path d="M0.145711142,9.09219819 L72.7300787,9.09219819 L72.7300787,2.35627132 L32.8040573,2.35627132 C32.3152611,2.35627132 32.3152611,2.08800702 32.3152611,1.85132822 L32.3152611,1.50162148 C32.3152611,1.18792646 32.5832067,1.14770098 32.8166278,1.14770098 L33.791777,1.14770098 L33.791777,0.176482219 L0.145711142,0.176482219 M72.8717177,9.23383721 L0.00407212182,9.23383721 L0.00407212182,0.0348431989 L33.933416,0.0348431989 L33.933416,1.28934 L32.8166278,1.28934 C32.4844135,1.28934 32.4569001,1.38976206 32.4569001,1.50162148 L32.4569001,1.85132822 C32.4569001,2.09321225 32.4569001,2.2146323 32.8040573,2.2146323 L72.8717177,2.2146323" id="path-11"/>
    <path d="M0.145711142,9.09219819 L72.7300787,9.09219819 L72.7300787,2.35627132 L32.8040573,2.35627132 C32.3152611,2.35627132 32.3152611,2.08800702 32.3152611,1.85132822 L32.3152611,1.50162148 C32.3152611,1.18792646 32.5832067,1.14770098 32.8166278,1.14770098 L33.791777,1.14770098 L33.791777,0.176482219 L0.145711142,0.176482219 M72.8717177,9.23383721 L0.00407212182,9.23383721 L0.00407212182,0.0348431989 L33.933416,0.0348431989 L33.933416,1.28934 L32.8166278,1.28934 C32.4844135,1.28934 32.4569001,1.38976206 32.4569001,1.50162148 L32.4569001,1.85132822 C32.4569001,2.09321225 32.4569001,2.2146323 32.8040573,2.2146323 L72.8717177,2.2146323" id="path-13"/>
    <path d="M0.145711142,9.09219819 L72.7300787,9.09219819 L72.7300787,2.35627132 L32.8040573,2.35627132 C32.3152611,2.35627132 32.3152611,2.08800702 32.3152611,1.85132822 L32.3152611,1.50162148 C32.3152611,1.18792646 32.5832067,1.14770098 32.8166278,1.14770098 L33.791777,1.14770098 L33.791777,0.176482219 L0.145711142,0.176482219 M72.8717177,9.23383721 L0.00407212182,9.23383721 L0.00407212182,0.0348431989 L33.933416,0.0348431989 L33.933416,1.28934 L32.8166278,1.28934 C32.4844135,1.28934 32.4569001,1.38976206 32.4569001,1.50162148 L32.4569001,1.85132822 C32.4569001,2.09321225 32.4569001,2.2146323 32.8040573,2.2146323 L72.8717177,2.2146323" id="path-15"/>
    <path d="M0.145711142,9.09219819 L72.7300787,9.09219819 L72.7300787,2.35627132 L32.8040573,2.35627132 C32.3152611,2.35627132 32.3152611,2.08800702 32.3152611,1.85132822 L32.3152611,1.50162148 C32.3152611,1.18792646 32.5832067,1.14770098 32.8166278,1.14770098 L33.791777,1.14770098 L33.791777,0.176482219 L0.145711142,0.176482219 M72.8717177,9.23383721 L0.00407212182,9.23383721 L0.00407212182,0.0348431989 L33.933416,0.0348431989 L33.933416,1.28934 L32.8166278,1.28934 C32.4844135,1.28934 32.4569001,1.38976206 32.4569001,1.50162148 L32.4569001,1.85132822 C32.4569001,2.09321225 32.4569001,2.2146323 32.8040573,2.2146323 L72.8717177,2.2146323" id="path-17"/>
    <path d="M0.145711142,9.09219819 L72.7300787,9.09219819 L72.7300787,2.35627132 L32.8040573,2.35627132 C32.3152611,2.35627132 32.3152611,2.08800702 32.3152611,1.85132822 L32.3152611,1.50162148 C32.3152611,1.18792646 32.5832067,1.14770098 32.8166278,1.14770098 L33.791777,1.14770098 L33.791777,0.176482219 L0.145711142,0.176482219 M72.8717177,9.23383721 L0.00407212182,9.23383721 L0.00407212182,0.0348431989 L33.933416,0.0348431989 L33.933416,1.28934 L32.8166278,1.28934 C32.4844135,1.28934 32.4569001,1.38976206 32.4569001,1.50162148 L32.4569001,1.85132822 C32.4569001,2.09321225 32.4569001,2.2146323 32.8040573,2.2146323 L72.8717177,2.2146323" id="path-19"/>
    <path d="M0.145711142,9.09219819 L72.7300787,9.09219819 L72.7300787,2.35627132 L32.8040573,2.35627132 C32.3152611,2.35627132 32.3152611,2.08800702 32.3152611,1.85132822 L32.3152611,1.50162148 C32.3152611,1.18792646 32.5832067,1.14770098 32.8166278,1.14770098 L33.791777,1.14770098 L33.791777,0.176482219 L0.145711142,0.176482219 M72.8717177,9.23383721 L0.00407212182,9.23383721 L0.00407212182,0.0348431989 L33.933416,0.0348431989 L33.933416,1.28934 L32.8166278,1.28934 C32.4844135,1.28934 32.4569001,1.38976206 32.4569001,1.50162148 L32.4569001,1.85132822 C32.4569001,2.09321225 32.4569001,2.2146323 32.8040573,2.2146323 L72.8717177,2.2146323" id="path-21"/>
    <path d="M0.145711142,9.09219819 L72.7300787,9.09219819 L72.7300787,2.35627132 L32.8040573,2.35627132 C32.3152611,2.35627132 32.3152611,2.08800702 32.3152611,1.85132822 L32.3152611,1.50162148 C32.3152611,1.18792646 32.5832067,1.14770098 32.8166278,1.14770098 L33.791777,1.14770098 L33.791777,0.176482219 L0.145711142,0.176482219 M72.8717177,9.23383721 L0.00407212182,9.23383721 L0.00407212182,0.0348431989 L33.933416,0.0348431989 L33.933416,1.28934 L32.8166278,1.28934 C32.4844135,1.28934 32.4569001,1.38976206 32.4569001,1.50162148 L32.4569001,1.85132822 C32.4569001,2.09321225 32.4569001,2.2146323 32.8040573,2.2146323 L72.8717177,2.2146323" id="path-23"/>
    <path d="M0.145711142,9.09219819 L72.7300787,9.09219819 L72.7300787,2.35627132 L32.8040573,2.35627132 C32.3152611,2.35627132 32.3152611,2.08800702 32.3152611,1.85132822 L32.3152611,1.50162148 C32.3152611,1.18792646 32.5832067,1.14770098 32.8166278,1.14770098 L33.791777,1.14770098 L33.791777,0.176482219 L0.145711142,0.176482219 M72.8717177,9.23383721 L0.00407212182,9.23383721 L0.00407212182,0.0348431989 L33.933416,0.0348431989 L33.933416,1.28934 L32.8166278,1.28934 C32.4844135,1.28934 32.4569001,1.38976206 32.4569001,1.50162148 L32.4569001,1.85132822 C32.4569001,2.09321225 32.4569001,2.2146323 32.8040573,2.2146323 L72.8717177,2.2146323" id="path-25"/>
    <path d="M0.145711142,9.09219819 L72.7300787,9.09219819 L72.7300787,2.35627132 L32.8040573,2.35627132 C32.3152611,2.35627132 32.3152611,2.08800702 32.3152611,1.85132822 L32.3152611,1.50162148 C32.3152611,1.18792646 32.5832067,1.14770098 32.8166278,1.14770098 L33.791777,1.14770098 L33.791777,0.176482219 L0.145711142,0.176482219 M72.8717177,9.23383721 L0.00407212182,9.23383721 L0.00407212182,0.0348431989 L33.933416,0.0348431989 L33.933416,1.28934 L32.8166278,1.28934 C32.4844135,1.28934 32.4569001,1.38976206 32.4569001,1.50162148 L32.4569001,1.85132822 C32.4569001,2.09321225 32.4569001,2.2146323 32.8040573,2.2146323 L72.8717177,2.2146323" id="path-27"/>
    <path d="M0.145711142,9.09219819 L72.7300787,9.09219819 L72.7300787,2.35627132 L32.8040573,2.35627132 C32.3152611,2.35627132 32.3152611,2.08800702 32.3152611,1.85132822 L32.3152611,1.50162148 C32.3152611,1.18792646 32.5832067,1.14770098 32.8166278,1.14770098 L33.791777,1.14770098 L33.791777,0.176482219 L0.145711142,0.176482219 M72.8717177,9.23383721 L0.00407212182,9.23383721 L0.00407212182,0.0348431989 L33.933416,0.0348431989 L33.933416,1.28934 L32.8166278,1.28934 C32.4844135,1.28934 32.4569001,1.38976206 32.4569001,1.50162148 L32.4569001,1.85132822 C32.4569001,2.09321225 32.4569001,2.2146323 32.8040573,2.2146323 L72.8717177,2.2146323" id="path-29"/>
    <path d="M0.145711142,9.09219819 L72.7300787,9.09219819 L72.7300787,2.35627132 L32.8040573,2.35627132 C32.3152611,2.35627132 32.3152611,2.08800702 32.3152611,1.85132822 L32.3152611,1.50162148 C32.3152611,1.18792646 32.5832067,1.14770098 32.8166278,1.14770098 L33.791777,1.14770098 L33.791777,0.176482219 L0.145711142,0.176482219 M72.8717177,9.23383721 L0.00407212182,9.23383721 L0.00407212182,0.0348431989 L33.933416,0.0348431989 L33.933416,1.28934 L32.8166278,1.28934 C32.4844135,1.28934 32.4569001,1.38976206 32.4569001,1.50162148 L32.4569001,1.85132822 C32.4569001,2.09321225 32.4569001,2.2146323 32.8040573,2.2146323 L72.8717177,2.2146323" id="path-31"/>
    <path d="M0.145711142,9.09219819 L72.7300787,9.09219819 L72.7300787,2.35627132 L32.8040573,2.35627132 C32.3152611,2.35627132 32.3152611,2.08800702 32.3152611,1.85132822 L32.3152611,1.50162148 C32.3152611,1.18792646 32.5832067,1.14770098 32.8166278,1.14770098 L33.791777,1.14770098 L33.791777,0.176482219 L0.145711142,0.176482219 M72.8717177,9.23383721 L0.00407212182,9.23383721 L0.00407212182,0.0348431989 L33.933416,0.0348431989 L33.933416,1.28934 L32.8166278,1.28934 C32.4844135,1.28934 32.4569001,1.38976206 32.4569001,1.50162148 L32.4569001,1.85132822 C32.4569001,2.09321225 32.4569001,2.2146323 32.8040573,2.2146323 L72.8717177,2.2146323" id="path-33"/>
    <path d="M0.145711142,9.09219819 L72.7300787,9.09219819 L72.7300787,2.35627132 L32.8040573,2.35627132 C32.3152611,2.35627132 32.3152611,2.08800702 32.3152611,1.85132822 L32.3152611,1.50162148 C32.3152611,1.18792646 32.5832067,1.14770098 32.8166278,1.14770098 L33.791777,1.14770098 L33.791777,0.176482219 L0.145711142,0.176482219 M72.8717177,9.23383721 L0.00407212182,9.23383721 L0.00407212182,0.0348431989 L33.933416,0.0348431989 L33.933416,1.28934 L32.8166278,1.28934 C32.4844135,1.28934 32.4569001,1.38976206 32.4569001,1.50162148 L32.4569001,1.85132822 C32.4569001,2.09321225 32.4569001,2.2146323 32.8040573,2.2146323 L72.8717177,2.2146323" id="path-35"/>
    <path d="M0.145711142,9.09219819 L72.7300787,9.09219819 L72.7300787,2.35627132 L32.8040573,2.35627132 C32.3152611,2.35627132 32.3152611,2.08800702 32.3152611,1.85132822 L32.3152611,1.50162148 C32.3152611,1.18792646 32.5832067,1.14770098 32.8166278,1.14770098 L33.791777,1.14770098 L33.791777,0.176482219 L0.145711142,0.176482219 M72.8717177,9.23383721 L0.00407212182,9.23383721 L0.00407212182,0.0348431989 L33.933416,0.0348431989 L33.933416,1.28934 L32.8166278,1.28934 C32.4844135,1.28934 32.4569001,1.38976206 32.4569001,1.50162148 L32.4569001,1.85132822 C32.4569001,2.09321225 32.4569001,2.2146323 32.8040573,2.2146323 L72.8717177,2.2146323" id="path-37"/>
    <path d="M0.145711142,9.09219819 L72.7300787,9.09219819 L72.7300787,2.35627132 L32.8040573,2.35627132 C32.3152611,2.35627132 32.3152611,2.08800702 32.3152611,1.85132822 L32.3152611,1.50162148 C32.3152611,1.18792646 32.5832067,1.14770098 32.8166278,1.14770098 L33.791777,1.14770098 L33.791777,0.176482219 L0.145711142,0.176482219 M72.8717177,9.23383721 L0.00407212182,9.23383721 L0.00407212182,0.0348431989 L33.933416,0.0348431989 L33.933416,1.28934 L32.8166278,1.28934 C32.4844135,1.28934 32.4569001,1.38976206 32.4569001,1.50162148 L32.4569001,1.85132822 C32.4569001,2.09321225 32.4569001,2.2146323 32.8040573,2.2146323 L72.8717177,2.2146323" id="path-39"/>
    <path d="M0.145711142,9.09219819 L72.7300787,9.09219819 L72.7300787,2.35627132 L32.8040573,2.35627132 C32.3152611,2.35627132 32.3152611,2.08800702 32.3152611,1.85132822 L32.3152611,1.50162148 C32.3152611,1.18792646 32.5832067,1.14770098 32.8166278,1.14770098 L33.791777,1.14770098 L33.791777,0.176482219 L0.145711142,0.176482219 M72.8717177,9.23383721 L0.00407212182,9.23383721 L0.00407212182,0.0348431989 L33.933416,0.0348431989 L33.933416,1.28934 L32.8166278,1.28934 C32.4844135,1.28934 32.4569001,1.38976206 32.4569001,1.50162148 L32.4569001,1.85132822 C32.4569001,2.09321225 32.4569001,2.2146323 32.8040573,2.2146323 L72.8717177,2.2146323" id="path-41"/>
    <path d="M0.145711142,9.09219819 L72.7300787,9.09219819 L72.7300787,2.35627132 L32.8040573,2.35627132 C32.3152611,2.35627132 32.3152611,2.08800702 32.3152611,1.85132822 L32.3152611,1.50162148 C32.3152611,1.18792646 32.5832067,1.14770098 32.8166278,1.14770098 L33.791777,1.14770098 L33.791777,0.176482219 L0.145711142,0.176482219 M72.8717177,9.23383721 L0.00407212182,9.23383721 L0.00407212182,0.0348431989 L33.933416,0.0348431989 L33.933416,1.28934 L32.8166278,1.28934 C32.4844135,1.28934 32.4569001,1.38976206 32.4569001,1.50162148 L32.4569001,1.85132822 C32.4569001,2.09321225 32.4569001,2.2146323 32.8040573,2.2146323 L72.8717177,2.2146323" id="path-43"/>
    <path d="M0.145711142,9.09219819 L72.7300787,9.09219819 L72.7300787,2.35627132 L32.8040573,2.35627132 C32.3152611,2.35627132 32.3152611,2.08800702 32.3152611,1.85132822 L32.3152611,1.50162148 C32.3152611,1.18792646 32.5832067,1.14770098 32.8166278,1.14770098 L33.791777,1.14770098 L33.791777,0.176482219 L0.145711142,0.176482219 M72.8717177,9.23383721 L0.00407212182,9.23383721 L0.00407212182,0.0348431989 L33.933416,0.0348431989 L33.933416,1.28934 L32.8166278,1.28934 C32.4844135,1.28934 32.4569001,1.38976206 32.4569001,1.50162148 L32.4569001,1.85132822 C32.4569001,2.09321225 32.4569001,2.2146323 32.8040573,2.2146323 L72.8717177,2.2146323" id="path-45"/>
    <path d="M0.145711142,9.09219819 L72.7300787,9.09219819 L72.7300787,2.35627132 L32.8040573,2.35627132 C32.3152611,2.35627132 32.3152611,2.08800702 32.3152611,1.85132822 L32.3152611,1.50162148 C32.3152611,1.18792646 32.5832067,1.14770098 32.8166278,1.14770098 L33.791777,1.14770098 L33.791777,0.176482219 L0.145711142,0.176482219 M72.8717177,9.23383721 L0.00407212182,9.23383721 L0.00407212182,0.0348431989 L33.933416,0.0348431989 L33.933416,1.28934 L32.8166278,1.28934 C32.4844135,1.28934 32.4569001,1.38976206 32.4569001,1.50162148 L32.4569001,1.85132822 C32.4569001,2.09321225 32.4569001,2.2146323 32.8040573,2.2146323 L72.8717177,2.2146323" id="path-47"/>
    <path d="M0.145711142,9.09219819 L72.7300787,9.09219819 L72.7300787,2.35627132 L32.8040573,2.35627132 C32.3152611,2.35627132 32.3152611,2.08800702 32.3152611,1.85132822 L32.3152611,1.50162148 C32.3152611,1.18792646 32.5832067,1.14770098 32.8166278,1.14770098 L33.791777,1.14770098 L33.791777,0.176482219 L0.145711142,0.176482219 M72.8717177,9.23383721 L0.00407212182,9.23383721 L0.00407212182,0.0348431989 L33.933416,0.0348431989 L33.933416,1.28934 L32.8166278,1.28934 C32.4844135,1.28934 32.4569001,1.38976206 32.4569001,1.50162148 L32.4569001,1.85132822 C32.4569001,2.09321225 32.4569001,2.2146323 32.8040573,2.2146323 L72.8717177,2.2146323" id="path-49"/>
    <path d="M0.145711142,9.09219819 L72.7300787,9.09219819 L72.7300787,2.35627132 L32.8040573,2.35627132 C32.3152611,2.35627132 32.3152611,2.08800702 32.3152611,1.85132822 L32.3152611,1.50162148 C32.3152611,1.18792646 32.5832067,1.14770098 32.8166278,1.14770098 L33.791777,1.14770098 L33.791777,0.176482219 L0.145711142,0.176482219 M72.8717177,9.23383721 L0.00407212182,9.23383721 L0.00407212182,0.0348431989 L33.933416,0.0348431989 L33.933416,1.28934 L32.8166278,1.28934 C32.4844135,1.28934 32.4569001,1.38976206 32.4569001,1.50162148 L32.4569001,1.85132822 C32.4569001,2.09321225 32.4569001,2.2146323 32.8040573,2.2146323 L72.8717177,2.2146323" id="path-51"/>
    <path d="M0.145711142,9.09219819 L72.7300787,9.09219819 L72.7300787,2.35627132 L32.8040573,2.35627132 C32.3152611,2.35627132 32.3152611,2.08800702 32.3152611,1.85132822 L32.3152611,1.50162148 C32.3152611,1.18792646 32.5832067,1.14770098 32.8166278,1.14770098 L33.791777,1.14770098 L33.791777,0.176482219 L0.145711142,0.176482219 M72.8717177,9.23383721 L0.00407212182,9.23383721 L0.00407212182,0.0348431989 L33.933416,0.0348431989 L33.933416,1.28934 L32.8166278,1.28934 C32.4844135,1.28934 32.4569001,1.38976206 32.4569001,1.50162148 L32.4569001,1.85132822 C32.4569001,2.09321225 32.4569001,2.2146323 32.8040573,2.2146323 L72.8717177,2.2146323" id="path-53"/>
    <path d="M0.145711142,9.09219819 L72.7300787,9.09219819 L72.7300787,2.35627132 L32.8040573,2.35627132 C32.3152611,2.35627132 32.3152611,2.08800702 32.3152611,1.85132822 L32.3152611,1.50162148 C32.3152611,1.18792646 32.5832067,1.14770098 32.8166278,1.14770098 L33.791777,1.14770098 L33.791777,0.176482219 L0.145711142,0.176482219 M72.8717177,9.23383721 L0.00407212182,9.23383721 L0.00407212182,0.0348431989 L33.933416,0.0348431989 L33.933416,1.28934 L32.8166278,1.28934 C32.4844135,1.28934 32.4569001,1.38976206 32.4569001,1.50162148 L32.4569001,1.85132822 C32.4569001,2.09321225 32.4569001,2.2146323 32.8040573,2.2146323 L72.8717177,2.2146323" id="path-55"/>
    <path d="M0.145711142,9.09219819 L72.7300787,9.09219819 L72.7300787,2.35627132 L32.8040573,2.35627132 C32.3152611,2.35627132 32.3152611,2.08800702 32.3152611,1.85132822 L32.3152611,1.50162148 C32.3152611,1.18792646 32.5832067,1.14770098 32.8166278,1.14770098 L33.791777,1.14770098 L33.791777,0.176482219 L0.145711142,0.176482219 M72.8717177,9.23383721 L0.00407212182,9.23383721 L0.00407212182,0.0348431989 L33.933416,0.0348431989 L33.933416,1.28934 L32.8166278,1.28934 C32.4844135,1.28934 32.4569001,1.38976206 32.4569001,1.50162148 L32.4569001,1.85132822 C32.4569001,2.09321225 32.4569001,2.2146323 32.8040573,2.2146323 L72.8717177,2.2146323" id="path-57"/>
    <path d="M0.145711142,9.09219819 L72.7300787,9.09219819 L72.7300787,2.35627132 L32.8040573,2.35627132 C32.3152611,2.35627132 32.3152611,2.08800702 32.3152611,1.85132822 L32.3152611,1.50162148 C32.3152611,1.18792646 32.5832067,1.14770098 32.8166278,1.14770098 L33.791777,1.14770098 L33.791777,0.176482219 L0.145711142,0.176482219 M72.8717177,9.23383721 L0.00407212182,9.23383721 L0.00407212182,0.0348431989 L33.933416,0.0348431989 L33.933416,1.28934 L32.8166278,1.28934 C32.4844135,1.28934 32.4569001,1.38976206 32.4569001,1.50162148 L32.4569001,1.85132822 C32.4569001,2.09321225 32.4569001,2.2146323 32.8040573,2.2146323 L72.8717177,2.2146323" id="path-59"/>
    <path d="M0.145711142,9.09219819 L72.7300787,9.09219819 L72.7300787,2.35627132 L32.8040573,2.35627132 C32.3152611,2.35627132 32.3152611,2.08800702 32.3152611,1.85132822 L32.3152611,1.50162148 C32.3152611,1.18792646 32.5832067,1.14770098 32.8166278,1.14770098 L33.791777,1.14770098 L33.791777,0.176482219 L0.145711142,0.176482219 M72.8717177,9.23383721 L0.00407212182,9.23383721 L0.00407212182,0.0348431989 L33.933416,0.0348431989 L33.933416,1.28934 L32.8166278,1.28934 C32.4844135,1.28934 32.4569001,1.38976206 32.4569001,1.50162148 L32.4569001,1.85132822 C32.4569001,2.09321225 32.4569001,2.2146323 32.8040573,2.2146323 L72.8717177,2.2146323" id="path-61"/>
    <path d="M0.145711142,9.09219819 L72.7300787,9.09219819 L72.7300787,2.35627132 L32.8040573,2.35627132 C32.3152611,2.35627132 32.3152611,2.08800702 32.3152611,1.85132822 L32.3152611,1.50162148 C32.3152611,1.18792646 32.5832067,1.14770098 32.8166278,1.14770098 L33.791777,1.14770098 L33.791777,0.176482219 L0.145711142,0.176482219 M72.8717177,9.23383721 L0.00407212182,9.23383721 L0.00407212182,0.0348431989 L33.933416,0.0348431989 L33.933416,1.28934 L32.8166278,1.28934 C32.4844135,1.28934 32.4569001,1.38976206 32.4569001,1.50162148 L32.4569001,1.85132822 C32.4569001,2.09321225 32.4569001,2.2146323 32.8040573,2.2146323 L72.8717177,2.2146323" id="path-63"/>
    <path d="M0.145711142,9.09219819 L72.7300787,9.09219819 L72.7300787,2.35627132 L32.8040573,2.35627132 C32.3152611,2.35627132 32.3152611,2.08800702 32.3152611,1.85132822 L32.3152611,1.50162148 C32.3152611,1.18792646 32.5832067,1.14770098 32.8166278,1.14770098 L33.791777,1.14770098 L33.791777,0.176482219 L0.145711142,0.176482219 M72.8717177,9.23383721 L0.00407212182,9.23383721 L0.00407212182,0.0348431989 L33.933416,0.0348431989 L33.933416,1.28934 L32.8166278,1.28934 C32.4844135,1.28934 32.4569001,1.38976206 32.4569001,1.50162148 L32.4569001,1.85132822 C32.4569001,2.09321225 32.4569001,2.2146323 32.8040573,2.2146323 L72.8717177,2.2146323" id="path-65"/>
    <path d="M0.145711142,9.09219819 L72.7300787,9.09219819 L72.7300787,2.35627132 L32.8040573,2.35627132 C32.3152611,2.35627132 32.3152611,2.08800702 32.3152611,1.85132822 L32.3152611,1.50162148 C32.3152611,1.18792646 32.5832067,1.14770098 32.8166278,1.14770098 L33.791777,1.14770098 L33.791777,0.176482219 L0.145711142,0.176482219 M72.8717177,9.23383721 L0.00407212182,9.23383721 L0.00407212182,0.0348431989 L33.933416,0.0348431989 L33.933416,1.28934 L32.8166278,1.28934 C32.4844135,1.28934 32.4569001,1.38976206 32.4569001,1.50162148 L32.4569001,1.85132822 C32.4569001,2.09321225 32.4569001,2.2146323 32.8040573,2.2146323 L72.8717177,2.2146323" id="path-67"/>
    <path d="M0.145711142,9.09219819 L72.7300787,9.09219819 L72.7300787,2.35627132 L32.8040573,2.35627132 C32.3152611,2.35627132 32.3152611,2.08800702 32.3152611,1.85132822 L32.3152611,1.50162148 C32.3152611,1.18792646 32.5832067,1.14770098 32.8166278,1.14770098 L33.791777,1.14770098 L33.791777,0.176482219 L0.145711142,0.176482219 M72.8717177,9.23383721 L0.00407212182,9.23383721 L0.00407212182,0.0348431989 L33.933416,0.0348431989 L33.933416,1.28934 L32.8166278,1.28934 C32.4844135,1.28934 32.4569001,1.38976206 32.4569001,1.50162148 L32.4569001,1.85132822 C32.4569001,2.09321225 32.4569001,2.2146323 32.8040573,2.2146323 L72.8717177,2.2146323" id="path-69"/>
    <path d="M0.145711142,9.09219819 L72.7300787,9.09219819 L72.7300787,2.35627132 L32.8040573,2.35627132 C32.3152611,2.35627132 32.3152611,2.08800702 32.3152611,1.85132822 L32.3152611,1.50162148 C32.3152611,1.18792646 32.5832067,1.14770098 32.8166278,1.14770098 L33.791777,1.14770098 L33.791777,0.176482219 L0.145711142,0.176482219 M72.8717177,9.23383721 L0.00407212182,9.23383721 L0.00407212182,0.0348431989 L33.933416,0.0348431989 L33.933416,1.28934 L32.8166278,1.28934 C32.4844135,1.28934 32.4569001,1.38976206 32.4569001,1.50162148 L32.4569001,1.85132822 C32.4569001,2.09321225 32.4569001,2.2146323 32.8040573,2.2146323 L72.8717177,2.2146323" id="path-71"/>
    <path d="M0.145711142,9.09219819 L72.7300787,9.09219819 L72.7300787,2.35627132 L32.8040573,2.35627132 C32.3152611,2.35627132 32.3152611,2.08800702 32.3152611,1.85132822 L32.3152611,1.50162148 C32.3152611,1.18792646 32.5832067,1.14770098 32.8166278,1.14770098 L33.791777,1.14770098 L33.791777,0.176482219 L0.145711142,0.176482219 M72.8717177,9.23383721 L0.00407212182,9.23383721 L0.00407212182,0.0348431989 L33.933416,0.0348431989 L33.933416,1.28934 L32.8166278,1.28934 C32.4844135,1.28934 32.4569001,1.38976206 32.4569001,1.50162148 L32.4569001,1.85132822 C32.4569001,2.09321225 32.4569001,2.2146323 32.8040573,2.2146323 L72.8717177,2.2146323" id="path-73"/>
    <path d="M0.145711142,9.09219819 L72.7300787,9.09219819 L72.7300787,2.35627132 L32.8040573,2.35627132 C32.3152611,2.35627132 32.3152611,2.08800702 32.3152611,1.85132822 L32.3152611,1.50162148 C32.3152611,1.18792646 32.5832067,1.14770098 32.8166278,1.14770098 L33.791777,1.14770098 L33.791777,0.176482219 L0.145711142,0.176482219 M72.8717177,9.23383721 L0.00407212182,9.23383721 L0.00407212182,0.0348431989 L33.933416,0.0348431989 L33.933416,1.28934 L32.8166278,1.28934 C32.4844135,1.28934 32.4569001,1.38976206 32.4569001,1.50162148 L32.4569001,1.85132822 C32.4569001,2.09321225 32.4569001,2.2146323 32.8040573,2.2146323 L72.8717177,2.2146323" id="path-75"/>
    <path d="M0.145711142,9.09219819 L72.7300787,9.09219819 L72.7300787,2.35627132 L32.8040573,2.35627132 C32.3152611,2.35627132 32.3152611,2.08800702 32.3152611,1.85132822 L32.3152611,1.50162148 C32.3152611,1.18792646 32.5832067,1.14770098 32.8166278,1.14770098 L33.791777,1.14770098 L33.791777,0.176482219 L0.145711142,0.176482219 M72.8717177,9.23383721 L0.00407212182,9.23383721 L0.00407212182,0.0348431989 L33.933416,0.0348431989 L33.933416,1.28934 L32.8166278,1.28934 C32.4844135,1.28934 32.4569001,1.38976206 32.4569001,1.50162148 L32.4569001,1.85132822 C32.4569001,2.09321225 32.4569001,2.2146323 32.8040573,2.2146323 L72.8717177,2.2146323" id="path-77"/>
    <path d="M0.145711142,9.09219819 L72.7300787,9.09219819 L72.7300787,2.35627132 L32.8040573,2.35627132 C32.3152611,2.35627132 32.3152611,2.08800702 32.3152611,1.85132822 L32.3152611,1.50162148 C32.3152611,1.18792646 32.5832067,1.14770098 32.8166278,1.14770098 L33.791777,1.14770098 L33.791777,0.176482219 L0.145711142,0.176482219 M72.8717177,9.23383721 L0.00407212182,9.23383721 L0.00407212182,0.0348431989 L33.933416,0.0348431989 L33.933416,1.28934 L32.8166278,1.28934 C32.4844135,1.28934 32.4569001,1.38976206 32.4569001,1.50162148 L32.4569001,1.85132822 C32.4569001,2.09321225 32.4569001,2.2146323 32.8040573,2.2146323 L72.8717177,2.2146323" id="path-79"/>
    <path d="M0.145711142,9.09219819 L72.7300787,9.09219819 L72.7300787,2.35627132 L32.8040573,2.35627132 C32.3152611,2.35627132 32.3152611,2.08800702 32.3152611,1.85132822 L32.3152611,1.50162148 C32.3152611,1.18792646 32.5832067,1.14770098 32.8166278,1.14770098 L33.791777,1.14770098 L33.791777,0.176482219 L0.145711142,0.176482219 M72.8717177,9.23383721 L0.00407212182,9.23383721 L0.00407212182,0.0348431989 L33.933416,0.0348431989 L33.933416,1.28934 L32.8166278,1.28934 C32.4844135,1.28934 32.4569001,1.38976206 32.4569001,1.50162148 L32.4569001,1.85132822 C32.4569001,2.09321225 32.4569001,2.2146323 32.8040573,2.2146323 L72.8717177,2.2146323" id="path-81"/>
    <path d="M0.145711142,9.09219819 L72.7300787,9.09219819 L72.7300787,2.35627132 L32.8040573,2.35627132 C32.3152611,2.35627132 32.3152611,2.08800702 32.3152611,1.85132822 L32.3152611,1.50162148 C32.3152611,1.18792646 32.5832067,1.14770098 32.8166278,1.14770098 L33.791777,1.14770098 L33.791777,0.176482219 L0.145711142,0.176482219 M72.8717177,9.23383721 L0.00407212182,9.23383721 L0.00407212182,0.0348431989 L33.933416,0.0348431989 L33.933416,1.28934 L32.8166278,1.28934 C32.4844135,1.28934 32.4569001,1.38976206 32.4569001,1.50162148 L32.4569001,1.85132822 C32.4569001,2.09321225 32.4569001,2.2146323 32.8040573,2.2146323 L72.8717177,2.2146323" id="path-83"/>
    <path d="M0.145711142,9.09219819 L72.7300787,9.09219819 L72.7300787,2.35627132 L32.8040573,2.35627132 C32.3152611,2.35627132 32.3152611,2.08800702 32.3152611,1.85132822 L32.3152611,1.50162148 C32.3152611,1.18792646 32.5832067,1.14770098 32.8166278,1.14770098 L33.791777,1.14770098 L33.791777,0.176482219 L0.145711142,0.176482219 M72.8717177,9.23383721 L0.00407212182,9.23383721 L0.00407212182,0.0348431989 L33.933416,0.0348431989 L33.933416,1.28934 L32.8166278,1.28934 C32.4844135,1.28934 32.4569001,1.38976206 32.4569001,1.50162148 L32.4569001,1.85132822 C32.4569001,2.09321225 32.4569001,2.2146323 32.8040573,2.2146323 L72.8717177,2.2146323" id="path-85"/>
    <path d="M0.145711142,9.09219819 L72.7300787,9.09219819 L72.7300787,2.35627132 L32.8040573,2.35627132 C32.3152611,2.35627132 32.3152611,2.08800702 32.3152611,1.85132822 L32.3152611,1.50162148 C32.3152611,1.18792646 32.5832067,1.14770098 32.8166278,1.14770098 L33.791777,1.14770098 L33.791777,0.176482219 L0.145711142,0.176482219 M72.8717177,9.23383721 L0.00407212182,9.23383721 L0.00407212182,0.0348431989 L33.933416,0.0348431989 L33.933416,1.28934 L32.8166278,1.28934 C32.4844135,1.28934 32.4569001,1.38976206 32.4569001,1.50162148 L32.4569001,1.85132822 C32.4569001,2.09321225 32.4569001,2.2146323 32.8040573,2.2146323 L72.8717177,2.2146323" id="path-87"/>
    <path d="M0.145711142,9.09219819 L72.7300787,9.09219819 L72.7300787,2.35627132 L32.8040573,2.35627132 C32.3152611,2.35627132 32.3152611,2.08800702 32.3152611,1.85132822 L32.3152611,1.50162148 C32.3152611,1.18792646 32.5832067,1.14770098 32.8166278,1.14770098 L33.791777,1.14770098 L33.791777,0.176482219 L0.145711142,0.176482219 M72.8717177,9.23383721 L0.00407212182,9.23383721 L0.00407212182,0.0348431989 L33.933416,0.0348431989 L33.933416,1.28934 L32.8166278,1.28934 C32.4844135,1.28934 32.4569001,1.38976206 32.4569001,1.50162148 L32.4569001,1.85132822 C32.4569001,2.09321225 32.4569001,2.2146323 32.8040573,2.2146323 L72.8717177,2.2146323" id="path-89"/>
    <path d="M0.145711142,9.09219819 L72.7300787,9.09219819 L72.7300787,2.35627132 L32.8040573,2.35627132 C32.3152611,2.35627132 32.3152611,2.08800702 32.3152611,1.85132822 L32.3152611,1.50162148 C32.3152611,1.18792646 32.5832067,1.14770098 32.8166278,1.14770098 L33.791777,1.14770098 L33.791777,0.176482219 L0.145711142,0.176482219 M72.8717177,9.23383721 L0.00407212182,9.23383721 L0.00407212182,0.0348431989 L33.933416,0.0348431989 L33.933416,1.28934 L32.8166278,1.28934 C32.4844135,1.28934 32.4569001,1.38976206 32.4569001,1.50162148 L32.4569001,1.85132822 C32.4569001,2.09321225 32.4569001,2.2146323 32.8040573,2.2146323 L72.8717177,2.2146323" id="path-91"/>
    <path d="M0.145711142,9.09219819 L72.7300787,9.09219819 L72.7300787,2.35627132 L32.8040573,2.35627132 C32.3152611,2.35627132 32.3152611,2.08800702 32.3152611,1.85132822 L32.3152611,1.50162148 C32.3152611,1.18792646 32.5832067,1.14770098 32.8166278,1.14770098 L33.791777,1.14770098 L33.791777,0.176482219 L0.145711142,0.176482219 M72.8717177,9.23383721 L0.00407212182,9.23383721 L0.00407212182,0.0348431989 L33.933416,0.0348431989 L33.933416,1.28934 L32.8166278,1.28934 C32.4844135,1.28934 32.4569001,1.38976206 32.4569001,1.50162148 L32.4569001,1.85132822 C32.4569001,2.09321225 32.4569001,2.2146323 32.8040573,2.2146323 L72.8717177,2.2146323" id="path-93"/>
    <path d="M0.145711142,9.09219819 L72.7300787,9.09219819 L72.7300787,2.35627132 L32.8040573,2.35627132 C32.3152611,2.35627132 32.3152611,2.08800702 32.3152611,1.85132822 L32.3152611,1.50162148 C32.3152611,1.18792646 32.5832067,1.14770098 32.8166278,1.14770098 L33.791777,1.14770098 L33.791777,0.176482219 L0.145711142,0.176482219 M72.8717177,9.23383721 L0.00407212182,9.23383721 L0.00407212182,0.0348431989 L33.933416,0.0348431989 L33.933416,1.28934 L32.8166278,1.28934 C32.4844135,1.28934 32.4569001,1.38976206 32.4569001,1.50162148 L32.4569001,1.85132822 C32.4569001,2.09321225 32.4569001,2.2146323 32.8040573,2.2146323 L72.8717177,2.2146323" id="path-95"/>
    <path d="M0.145711142,9.09219819 L72.7300787,9.09219819 L72.7300787,2.35627132 L32.8040573,2.35627132 C32.3152611,2.35627132 32.3152611,2.08800702 32.3152611,1.85132822 L32.3152611,1.50162148 C32.3152611,1.18792646 32.5832067,1.14770098 32.8166278,1.14770098 L33.791777,1.14770098 L33.791777,0.176482219 L0.145711142,0.176482219 M72.8717177,9.23383721 L0.00407212182,9.23383721 L0.00407212182,0.0348431989 L33.933416,0.0348431989 L33.933416,1.28934 L32.8166278,1.28934 C32.4844135,1.28934 32.4569001,1.38976206 32.4569001,1.50162148 L32.4569001,1.85132822 C32.4569001,2.09321225 32.4569001,2.2146323 32.8040573,2.2146323 L72.8717177,2.2146323" id="path-97"/>
    <path d="M0.145711142,9.09219819 L72.7300787,9.09219819 L72.7300787,2.35627132 L32.8040573,2.35627132 C32.3152611,2.35627132 32.3152611,2.08800702 32.3152611,1.85132822 L32.3152611,1.50162148 C32.3152611,1.18792646 32.5832067,1.14770098 32.8166278,1.14770098 L33.791777,1.14770098 L33.791777,0.176482219 L0.145711142,0.176482219 M72.8717177,9.23383721 L0.00407212182,9.23383721 L0.00407212182,0.0348431989 L33.933416,0.0348431989 L33.933416,1.28934 L32.8166278,1.28934 C32.4844135,1.28934 32.4569001,1.38976206 32.4569001,1.50162148 L32.4569001,1.85132822 C32.4569001,2.09321225 32.4569001,2.2146323 32.8040573,2.2146323 L72.8717177,2.2146323" id="path-99"/>
    <path d="M0.145711142,9.09219819 L72.7300787,9.09219819 L72.7300787,2.35627132 L32.8040573,2.35627132 C32.3152611,2.35627132 32.3152611,2.08800702 32.3152611,1.85132822 L32.3152611,1.50162148 C32.3152611,1.18792646 32.5832067,1.14770098 32.8166278,1.14770098 L33.791777,1.14770098 L33.791777,0.176482219 L0.145711142,0.176482219 M72.8717177,9.23383721 L0.00407212182,9.23383721 L0.00407212182,0.0348431989 L33.933416,0.0348431989 L33.933416,1.28934 L32.8166278,1.28934 C32.4844135,1.28934 32.4569001,1.38976206 32.4569001,1.50162148 L32.4569001,1.85132822 C32.4569001,2.09321225 32.4569001,2.2146323 32.8040573,2.2146323 L72.8717177,2.2146323" id="path-101"/>
    <path d="M0.145711142,9.09219819 L72.7300787,9.09219819 L72.7300787,2.35627132 L32.8040573,2.35627132 C32.3152611,2.35627132 32.3152611,2.08800702 32.3152611,1.85132822 L32.3152611,1.50162148 C32.3152611,1.18792646 32.5832067,1.14770098 32.8166278,1.14770098 L33.791777,1.14770098 L33.791777,0.176482219 L0.145711142,0.176482219 M72.8717177,9.23383721 L0.00407212182,9.23383721 L0.00407212182,0.0348431989 L33.933416,0.0348431989 L33.933416,1.28934 L32.8166278,1.28934 C32.4844135,1.28934 32.4569001,1.38976206 32.4569001,1.50162148 L32.4569001,1.85132822 C32.4569001,2.09321225 32.4569001,2.2146323 32.8040573,2.2146323 L72.8717177,2.2146323" id="path-103"/>
    <path d="M0.145711142,9.09219819 L72.7300787,9.09219819 L72.7300787,2.35627132 L32.8040573,2.35627132 C32.3152611,2.35627132 32.3152611,2.08800702 32.3152611,1.85132822 L32.3152611,1.50162148 C32.3152611,1.18792646 32.5832067,1.14770098 32.8166278,1.14770098 L33.791777,1.14770098 L33.791777,0.176482219 L0.145711142,0.176482219 M72.8717177,9.23383721 L0.00407212182,9.23383721 L0.00407212182,0.0348431989 L33.933416,0.0348431989 L33.933416,1.28934 L32.8166278,1.28934 C32.4844135,1.28934 32.4569001,1.38976206 32.4569001,1.50162148 L32.4569001,1.85132822 C32.4569001,2.09321225 32.4569001,2.2146323 32.8040573,2.2146323 L72.8717177,2.2146323" id="path-105"/>
    <path d="M0.145711142,9.09219819 L72.7300787,9.09219819 L72.7300787,2.35627132 L32.8040573,2.35627132 C32.3152611,2.35627132 32.3152611,2.08800702 32.3152611,1.85132822 L32.3152611,1.50162148 C32.3152611,1.18792646 32.5832067,1.14770098 32.8166278,1.14770098 L33.791777,1.14770098 L33.791777,0.176482219 L0.145711142,0.176482219 M72.8717177,9.23383721 L0.00407212182,9.23383721 L0.00407212182,0.0348431989 L33.933416,0.0348431989 L33.933416,1.28934 L32.8166278,1.28934 C32.4844135,1.28934 32.4569001,1.38976206 32.4569001,1.50162148 L32.4569001,1.85132822 C32.4569001,2.09321225 32.4569001,2.2146323 32.8040573,2.2146323 L72.8717177,2.2146323" id="path-107"/>
    <path d="M0.145711142,9.09219819 L72.7300787,9.09219819 L72.7300787,2.35627132 L32.8040573,2.35627132 C32.3152611,2.35627132 32.3152611,2.08800702 32.3152611,1.85132822 L32.3152611,1.50162148 C32.3152611,1.18792646 32.5832067,1.14770098 32.8166278,1.14770098 L33.791777,1.14770098 L33.791777,0.176482219 L0.145711142,0.176482219 M72.8717177,9.23383721 L0.00407212182,9.23383721 L0.00407212182,0.0348431989 L33.933416,0.0348431989 L33.933416,1.28934 L32.8166278,1.28934 C32.4844135,1.28934 32.4569001,1.38976206 32.4569001,1.50162148 L32.4569001,1.85132822 C32.4569001,2.09321225 32.4569001,2.2146323 32.8040573,2.2146323 L72.8717177,2.2146323" id="path-109"/>
    <path d="M0.145711142,9.09219819 L72.7300787,9.09219819 L72.7300787,2.35627132 L32.8040573,2.35627132 C32.3152611,2.35627132 32.3152611,2.08800702 32.3152611,1.85132822 L32.3152611,1.50162148 C32.3152611,1.18792646 32.5832067,1.14770098 32.8166278,1.14770098 L33.791777,1.14770098 L33.791777,0.176482219 L0.145711142,0.176482219 M72.8717177,9.23383721 L0.00407212182,9.23383721 L0.00407212182,0.0348431989 L33.933416,0.0348431989 L33.933416,1.28934 L32.8166278,1.28934 C32.4844135,1.28934 32.4569001,1.38976206 32.4569001,1.50162148 L32.4569001,1.85132822 C32.4569001,2.09321225 32.4569001,2.2146323 32.8040573,2.2146323 L72.8717177,2.2146323" id="path-111"/>
    <path d="M0.145711142,9.09219819 L72.7300787,9.09219819 L72.7300787,2.35627132 L32.8040573,2.35627132 C32.3152611,2.35627132 32.3152611,2.08800702 32.3152611,1.85132822 L32.3152611,1.50162148 C32.3152611,1.18792646 32.5832067,1.14770098 32.8166278,1.14770098 L33.791777,1.14770098 L33.791777,0.176482219 L0.145711142,0.176482219 M72.8717177,9.23383721 L0.00407212182,9.23383721 L0.00407212182,0.0348431989 L33.933416,0.0348431989 L33.933416,1.28934 L32.8166278,1.28934 C32.4844135,1.28934 32.4569001,1.38976206 32.4569001,1.50162148 L32.4569001,1.85132822 C32.4569001,2.09321225 32.4569001,2.2146323 32.8040573,2.2146323 L72.8717177,2.2146323" id="path-113"/>
    <path d="M0.145711142,9.09219819 L72.7300787,9.09219819 L72.7300787,2.35627132 L32.8040573,2.35627132 C32.3152611,2.35627132 32.3152611,2.08800702 32.3152611,1.85132822 L32.3152611,1.50162148 C32.3152611,1.18792646 32.5832067,1.14770098 32.8166278,1.14770098 L33.791777,1.14770098 L33.791777,0.176482219 L0.145711142,0.176482219 M72.8717177,9.23383721 L0.00407212182,9.23383721 L0.00407212182,0.0348431989 L33.933416,0.0348431989 L33.933416,1.28934 L32.8166278,1.28934 C32.4844135,1.28934 32.4569001,1.38976206 32.4569001,1.50162148 L32.4569001,1.85132822 C32.4569001,2.09321225 32.4569001,2.2146323 32.8040573,2.2146323 L72.8717177,2.2146323" id="path-115"/>
    <path d="M0.145711142,9.09219819 L72.7300787,9.09219819 L72.7300787,2.35627132 L32.8040573,2.35627132 C32.3152611,2.35627132 32.3152611,2.08800702 32.3152611,1.85132822 L32.3152611,1.50162148 C32.3152611,1.18792646 32.5832067,1.14770098 32.8166278,1.14770098 L33.791777,1.14770098 L33.791777,0.176482219 L0.145711142,0.176482219 M72.8717177,9.23383721 L0.00407212182,9.23383721 L0.00407212182,0.0348431989 L33.933416,0.0348431989 L33.933416,1.28934 L32.8166278,1.28934 C32.4844135,1.28934 32.4569001,1.38976206 32.4569001,1.50162148 L32.4569001,1.85132822 C32.4569001,2.09321225 32.4569001,2.2146323 32.8040573,2.2146323 L72.8717177,2.2146323" id="path-117"/>
    <path d="M0.145711142,9.09219819 L72.7300787,9.09219819 L72.7300787,2.35627132 L32.8040573,2.35627132 C32.3152611,2.35627132 32.3152611,2.08800702 32.3152611,1.85132822 L32.3152611,1.50162148 C32.3152611,1.18792646 32.5832067,1.14770098 32.8166278,1.14770098 L33.791777,1.14770098 L33.791777,0.176482219 L0.145711142,0.176482219 M72.8717177,9.23383721 L0.00407212182,9.23383721 L0.00407212182,0.0348431989 L33.933416,0.0348431989 L33.933416,1.28934 L32.8166278,1.28934 C32.4844135,1.28934 32.4569001,1.38976206 32.4569001,1.50162148 L32.4569001,1.85132822 C32.4569001,2.09321225 32.4569001,2.2146323 32.8040573,2.2146323 L72.8717177,2.2146323" id="path-119"/>
    <path d="M0.145711142,9.09219819 L72.7300787,9.09219819 L72.7300787,2.35627132 L32.8040573,2.35627132 C32.3152611,2.35627132 32.3152611,2.08800702 32.3152611,1.85132822 L32.3152611,1.50162148 C32.3152611,1.18792646 32.5832067,1.14770098 32.8166278,1.14770098 L33.791777,1.14770098 L33.791777,0.176482219 L0.145711142,0.176482219 M72.8717177,9.23383721 L0.00407212182,9.23383721 L0.00407212182,0.0348431989 L33.933416,0.0348431989 L33.933416,1.28934 L32.8166278,1.28934 C32.4844135,1.28934 32.4569001,1.38976206 32.4569001,1.50162148 L32.4569001,1.85132822 C32.4569001,2.09321225 32.4569001,2.2146323 32.8040573,2.2146323 L72.8717177,2.2146323" id="path-121"/>
    <path d="M0.145711142,9.09219819 L72.7300787,9.09219819 L72.7300787,2.35627132 L32.8040573,2.35627132 C32.3152611,2.35627132 32.3152611,2.08800702 32.3152611,1.85132822 L32.3152611,1.50162148 C32.3152611,1.18792646 32.5832067,1.14770098 32.8166278,1.14770098 L33.791777,1.14770098 L33.791777,0.176482219 L0.145711142,0.176482219 M72.8717177,9.23383721 L0.00407212182,9.23383721 L0.00407212182,0.0348431989 L33.933416,0.0348431989 L33.933416,1.28934 L32.8166278,1.28934 C32.4844135,1.28934 32.4569001,1.38976206 32.4569001,1.50162148 L32.4569001,1.85132822 C32.4569001,2.09321225 32.4569001,2.2146323 32.8040573,2.2146323 L72.8717177,2.2146323" id="path-123"/>
    <path d="M0.145711142,9.09219819 L72.7300787,9.09219819 L72.7300787,2.35627132 L32.8040573,2.35627132 C32.3152611,2.35627132 32.3152611,2.08800702 32.3152611,1.85132822 L32.3152611,1.50162148 C32.3152611,1.18792646 32.5832067,1.14770098 32.8166278,1.14770098 L33.791777,1.14770098 L33.791777,0.176482219 L0.145711142,0.176482219 M72.8717177,9.23383721 L0.00407212182,9.23383721 L0.00407212182,0.0348431989 L33.933416,0.0348431989 L33.933416,1.28934 L32.8166278,1.28934 C32.4844135,1.28934 32.4569001,1.38976206 32.4569001,1.50162148 L32.4569001,1.85132822 C32.4569001,2.09321225 32.4569001,2.2146323 32.8040573,2.2146323 L72.8717177,2.2146323" id="path-125"/>
    <path d="M0.145711142,9.09219819 L72.7300787,9.09219819 L72.7300787,2.35627132 L32.8040573,2.35627132 C32.3152611,2.35627132 32.3152611,2.08800702 32.3152611,1.85132822 L32.3152611,1.50162148 C32.3152611,1.18792646 32.5832067,1.14770098 32.8166278,1.14770098 L33.791777,1.14770098 L33.791777,0.176482219 L0.145711142,0.176482219 M72.8717177,9.23383721 L0.00407212182,9.23383721 L0.00407212182,0.0348431989 L33.933416,0.0348431989 L33.933416,1.28934 L32.8166278,1.28934 C32.4844135,1.28934 32.4569001,1.38976206 32.4569001,1.50162148 L32.4569001,1.85132822 C32.4569001,2.09321225 32.4569001,2.2146323 32.8040573,2.2146323 L72.8717177,2.2146323" id="path-127"/>
    <path d="M0.145711142,9.09219819 L72.7300787,9.09219819 L72.7300787,2.35627132 L32.8040573,2.35627132 C32.3152611,2.35627132 32.3152611,2.08800702 32.3152611,1.85132822 L32.3152611,1.50162148 C32.3152611,1.18792646 32.5832067,1.14770098 32.8166278,1.14770098 L33.791777,1.14770098 L33.791777,0.176482219 L0.145711142,0.176482219 M72.8717177,9.23383721 L0.00407212182,9.23383721 L0.00407212182,0.0348431989 L33.933416,0.0348431989 L33.933416,1.28934 L32.8166278,1.28934 C32.4844135,1.28934 32.4569001,1.38976206 32.4569001,1.50162148 L32.4569001,1.85132822 C32.4569001,2.09321225 32.4569001,2.2146323 32.8040573,2.2146323 L72.8717177,2.2146323" id="path-129"/>
    <path d="M0.145711142,9.09219819 L72.7300787,9.09219819 L72.7300787,2.35627132 L32.8040573,2.35627132 C32.3152611,2.35627132 32.3152611,2.08800702 32.3152611,1.85132822 L32.3152611,1.50162148 C32.3152611,1.18792646 32.5832067,1.14770098 32.8166278,1.14770098 L33.791777,1.14770098 L33.791777,0.176482219 L0.145711142,0.176482219 M72.8717177,9.23383721 L0.00407212182,9.23383721 L0.00407212182,0.0348431989 L33.933416,0.0348431989 L33.933416,1.28934 L32.8166278,1.28934 C32.4844135,1.28934 32.4569001,1.38976206 32.4569001,1.50162148 L32.4569001,1.85132822 C32.4569001,2.09321225 32.4569001,2.2146323 32.8040573,2.2146323 L72.8717177,2.2146323" id="path-131"/>
    <path d="M0.145711142,9.09219819 L72.7300787,9.09219819 L72.7300787,2.35627132 L32.8040573,2.35627132 C32.3152611,2.35627132 32.3152611,2.08800702 32.3152611,1.85132822 L32.3152611,1.50162148 C32.3152611,1.18792646 32.5832067,1.14770098 32.8166278,1.14770098 L33.791777,1.14770098 L33.791777,0.176482219 L0.145711142,0.176482219 M72.8717177,9.23383721 L0.00407212182,9.23383721 L0.00407212182,0.0348431989 L33.933416,0.0348431989 L33.933416,1.28934 L32.8166278,1.28934 C32.4844135,1.28934 32.4569001,1.38976206 32.4569001,1.50162148 L32.4569001,1.85132822 C32.4569001,2.09321225 32.4569001,2.2146323 32.8040573,2.2146323 L72.8717177,2.2146323" id="path-133"/>
    <path d="M0.145711142,9.09219819 L72.7300787,9.09219819 L72.7300787,2.35627132 L32.8040573,2.35627132 C32.3152611,2.35627132 32.3152611,2.08800702 32.3152611,1.85132822 L32.3152611,1.50162148 C32.3152611,1.18792646 32.5832067,1.14770098 32.8166278,1.14770098 L33.791777,1.14770098 L33.791777,0.176482219 L0.145711142,0.176482219 M72.8717177,9.23383721 L0.00407212182,9.23383721 L0.00407212182,0.0348431989 L33.933416,0.0348431989 L33.933416,1.28934 L32.8166278,1.28934 C32.4844135,1.28934 32.4569001,1.38976206 32.4569001,1.50162148 L32.4569001,1.85132822 C32.4569001,2.09321225 32.4569001,2.2146323 32.8040573,2.2146323 L72.8717177,2.2146323" id="path-135"/>
    <path d="M0.145711142,9.09219819 L72.7300787,9.09219819 L72.7300787,2.35627132 L32.8040573,2.35627132 C32.3152611,2.35627132 32.3152611,2.08800702 32.3152611,1.85132822 L32.3152611,1.50162148 C32.3152611,1.18792646 32.5832067,1.14770098 32.8166278,1.14770098 L33.791777,1.14770098 L33.791777,0.176482219 L0.145711142,0.176482219 M72.8717177,9.23383721 L0.00407212182,9.23383721 L0.00407212182,0.0348431989 L33.933416,0.0348431989 L33.933416,1.28934 L32.8166278,1.28934 C32.4844135,1.28934 32.4569001,1.38976206 32.4569001,1.50162148 L32.4569001,1.85132822 C32.4569001,2.09321225 32.4569001,2.2146323 32.8040573,2.2146323 L72.8717177,2.2146323" id="path-137"/>
    <path d="M0.145711142,9.09219819 L72.7300787,9.09219819 L72.7300787,2.35627132 L32.8040573,2.35627132 C32.3152611,2.35627132 32.3152611,2.08800702 32.3152611,1.85132822 L32.3152611,1.50162148 C32.3152611,1.18792646 32.5832067,1.14770098 32.8166278,1.14770098 L33.791777,1.14770098 L33.791777,0.176482219 L0.145711142,0.176482219 M72.8717177,9.23383721 L0.00407212182,9.23383721 L0.00407212182,0.0348431989 L33.933416,0.0348431989 L33.933416,1.28934 L32.8166278,1.28934 C32.4844135,1.28934 32.4569001,1.38976206 32.4569001,1.50162148 L32.4569001,1.85132822 C32.4569001,2.09321225 32.4569001,2.2146323 32.8040573,2.2146323 L72.8717177,2.2146323" id="path-139"/>
    <path d="M0.145711142,9.09219819 L72.7300787,9.09219819 L72.7300787,2.35627132 L32.8040573,2.35627132 C32.3152611,2.35627132 32.3152611,2.08800702 32.3152611,1.85132822 L32.3152611,1.50162148 C32.3152611,1.18792646 32.5832067,1.14770098 32.8166278,1.14770098 L33.791777,1.14770098 L33.791777,0.176482219 L0.145711142,0.176482219 M72.8717177,9.23383721 L0.00407212182,9.23383721 L0.00407212182,0.0348431989 L33.933416,0.0348431989 L33.933416,1.28934 L32.8166278,1.28934 C32.4844135,1.28934 32.4569001,1.38976206 32.4569001,1.50162148 L32.4569001,1.85132822 C32.4569001,2.09321225 32.4569001,2.2146323 32.8040573,2.2146323 L72.8717177,2.2146323" id="path-141"/>
    <path d="M0.145711142,9.09219819 L72.7300787,9.09219819 L72.7300787,2.35627132 L32.8040573,2.35627132 C32.3152611,2.35627132 32.3152611,2.08800702 32.3152611,1.85132822 L32.3152611,1.50162148 C32.3152611,1.18792646 32.5832067,1.14770098 32.8166278,1.14770098 L33.791777,1.14770098 L33.791777,0.176482219 L0.145711142,0.176482219 M72.8717177,9.23383721 L0.00407212182,9.23383721 L0.00407212182,0.0348431989 L33.933416,0.0348431989 L33.933416,1.28934 L32.8166278,1.28934 C32.4844135,1.28934 32.4569001,1.38976206 32.4569001,1.50162148 L32.4569001,1.85132822 C32.4569001,2.09321225 32.4569001,2.2146323 32.8040573,2.2146323 L72.8717177,2.2146323" id="path-143"/>
    <polygon id="polygon-3" points="0 14.3076983 158.620067 14.3076983 140.600152 0.104321005 18.5299816 0.104321005"/>
    <path d="M0.0510474537,0.0967928248 L0.287431969,0.232180257 L2.10628755,4.58050602 L0.334708873,4.41571317 L0.0510474537,0.0967928248 Z M0.47624954,0.344594709 L7.01728463,5.59805591 C5.55431101,5.20782154 4.18618125,4.87364125 3.16929276,4.74499256 L0.47624954,0.344594709 Z" id="path-4"/>
    <polygon id="polygon-4" points="0.972495715 0.529398614 15.9263373 0.529398614 15.9263373 65.6258738 0.972495715 65.6258738"/>
    <polygon id="polygon-5" points="0.972400328 0.529398614 6.31217229 0.529398614 6.31217229 9.92197928 0.972400328 9.92197928"/>
    <polygon id="polygon-6" points="0.972686489 0.529398614 30.5322066 0.529398614 30.5322066 65.4706789 0.972686489 65.4706789"/>
  </defs>
  <g id="Landing-page" stroke="none" stroke-width="1" fill="none" fill-rule="evenodd" transform="matrix(1, 0, 0, 1, 3.73297, 24.342552)">
    <g id="Landing-page---v2" transform="translate(-259.000000, -2684.000000)">
      <g id="Group-26" transform="translate(180.000000, 1674.250000)">
        <g id="Group-29" transform="translate(0.000000, 150.000000)">
          <g id="Group-23" transform="translate(160.000000, 920.000000) rotate(-270.000000) translate(-160.000000, -920.000000) translate(100.000000, 840.000000)">
            <polygon id="Fill-6" stroke="#808080" stroke-width="0.6" fill="#EAC4A8" points="20.2741095 159.763582 40.2444975 159.763582 40.2444975 121.378866 20.2741095 121.378866"/>
            <polygon id="Fill-7" stroke="#808080" stroke-width="0.6" fill="#EBBD9A" points="20.2741095 121.378388 40.2444975 121.378388 40.2444975 13.0077612 20.2741095 13.0077612"/>
            <path d="M25.8251321,116.234627 C25.0887525,116.234627 24.4917988,115.637673 24.4917988,114.901294 C24.4917988,114.164914 25.0887525,113.56796 25.8251321,113.56796 C26.5615118,113.56796 27.1584655,114.164914 27.1584655,114.901294 C27.1584655,115.637673 26.5615118,116.234627 25.8251321,116.234627 Z M35.5261812,116.234627 C34.7898015,116.234627 34.1928479,115.637673 34.1928479,114.901294 C34.1928479,114.164914 34.7898015,113.56796 35.5261812,113.56796 C36.2625609,113.56796 36.8595145,114.164914 36.8595145,114.901294 C36.8595145,115.637673 36.2625609,116.234627 35.5261812,116.234627 Z" id="Combined-Shape" fill="#4A4A4A" fill-rule="nonzero"/>
            <path d="M25.8251321,21.6270507 C25.0887525,21.6270507 24.4917988,21.030097 24.4917988,20.2937173 C24.4917988,19.5573377 25.0887525,18.960384 25.8251321,18.960384 C26.5615118,18.960384 27.1584655,19.5573377 27.1584655,20.2937173 C27.1584655,21.030097 26.5615118,21.6270507 25.8251321,21.6270507 Z M35.5261812,21.6270507 C34.7898015,21.6270507 34.1928479,21.030097 34.1928479,20.2937173 C34.1928479,19.5573377 34.7898015,18.960384 35.5261812,18.960384 C36.2625609,18.960384 36.8595145,19.5573377 36.8595145,20.2937173 C36.8595145,21.030097 36.2625609,21.6270507 35.5261812,21.6270507 Z" id="Combined-Shape" fill="#4A4A4A" fill-rule="nonzero"/>
            <polygon id="Fill-8" stroke="#808080" stroke-width="0.6" fill="#DE9F73" points="20.2741095 13.0077612 40.2444975 13.0077612 40.2444975 0 20.2741095 0"/>
            <polygon id="Fill-9" stroke="#808080" stroke-width="0.6" fill="#FCD7BB" points="0.303721393 159.763582 20.2741095 159.763582 20.2741095 77.7342262 0.303721393 77.7342262"/>
            <polygon id="Fill-9-Copy" stroke="#808080" stroke-width="0.6" fill="#FCD7BB" points="99.5845828 159.763104 119.554971 159.763104 119.554971 77.7337486 99.5845828 77.7337486"/>
            <polygon id="Fill-10" stroke="#808080" stroke-width="0.6" fill="#EAC4A8" points="0.303721393 77.7342262 20.2741095 77.7342262 20.2741095 0.00047761194 0.303721393 0.00047761194"/>
            <polygon id="Fill-10-Copy" stroke="#808080" stroke-width="0.6" fill="#EAC4A8" points="99.5845828 77.7337486 119.554971 77.7337486 119.554971 0 99.5845828 0"/>
            <polygon id="Fill-11" stroke="#808080" stroke-width="0.6" fill="#DE9F73" points="40.2444975 159.763582 60.2148856 159.763582 60.2148856 107.932657 40.2444975 107.932657"/>
            <polygon id="Fill-12" stroke="#808080" stroke-width="0.6" fill="#FCD7BB" points="40.2444975 107.933134 60.2148856 107.933134 60.2148856 0.00047761194 40.2444975 0.00047761194"/>
            <polygon id="Fill-13" stroke="#808080" stroke-width="0.6" fill="#DE9F73" points="60.2153632 51.8309254 80.1857512 51.8309254 80.1857512 0 60.2153632 0"/>
            <polygon id="Fill-14" stroke="#808080" stroke-width="0.6" fill="#EBBD9A" points="60.2153632 146.755821 80.1857512 146.755821 80.1857512 51.8309254 60.2153632 51.8309254"/>
            <path d="M65.3500327,140.906079 C64.613653,140.906079 64.0166993,140.309126 64.0166993,139.572746 C64.0166993,138.836366 64.613653,138.239413 65.3500327,138.239413 C66.0864123,138.239413 66.683366,138.836366 66.683366,139.572746 C66.683366,140.309126 66.0864123,140.906079 65.3500327,140.906079 Z M75.0510818,140.906079 C74.3147021,140.906079 73.7177484,140.309126 73.7177484,139.572746 C73.7177484,138.836366 74.3147021,138.239413 75.0510818,138.239413 C75.7874614,138.239413 76.3844151,138.836366 76.3844151,139.572746 C76.3844151,140.309126 75.7874614,140.906079 75.0510818,140.906079 Z" id="Combined-Shape" fill="#4A4A4A" fill-rule="nonzero"/>
            <path d="M5.43839089,85.9641289 C4.70201122,85.9641289 4.10505755,85.3671752 4.10505755,84.6307956 C4.10505755,83.8944159 4.70201122,83.2974622 5.43839089,83.2974622 C6.17477055,83.2974622 6.77172422,83.8944159 6.77172422,84.6307956 C6.77172422,85.3671752 6.17477055,85.9641289 5.43839089,85.9641289 Z M15.13944,85.9641289 C14.4030603,85.9641289 13.8061066,85.3671752 13.8061066,84.6307956 C13.8061066,83.8944159 14.4030603,83.2974622 15.13944,83.2974622 C15.8758196,83.2974622 16.4727733,83.8944159 16.4727733,84.6307956 C16.4727733,85.3671752 15.8758196,85.9641289 15.13944,85.9641289 Z" id="Combined-Shape-Copy" fill="#4A4A4A" fill-rule="nonzero"/>
            <path d="M104.719252,85.9636513 C103.982873,85.9636513 103.385919,85.3666976 103.385919,84.6303179 C103.385919,83.8939383 103.982873,83.2969846 104.719252,83.2969846 C105.455632,83.2969846 106.052586,83.8939383 106.052586,84.6303179 C106.052586,85.3666976 105.455632,85.9636513 104.719252,85.9636513 Z M114.420301,85.9636513 C113.683922,85.9636513 113.086968,85.3666976 113.086968,84.6303179 C113.086968,83.8939383 113.683922,83.2969846 114.420301,83.2969846 C115.156681,83.2969846 115.753635,83.8939383 115.753635,84.6303179 C115.753635,85.3666976 115.156681,85.9636513 114.420301,85.9636513 Z" id="Combined-Shape-Copy-7" fill="#4A4A4A" fill-rule="nonzero"/>
            <polygon id="Fill-15" stroke="#4A4A4A" stroke-width="0.6" fill="#EAC4A8" points="60.2148856 159.763582 80.1852736 159.763582 80.1852736 146.755821 60.2148856 146.755821"/>
            <polygon id="Fill-19" stroke="#808080" stroke-width="0.6" fill="#FCD7BB" points="80.1857512 159.763582 100.156139 159.763582 100.156139 107.932657 80.1857512 107.932657"/>
            <polygon id="Fill-20" stroke="#808080" stroke-width="0.6" fill="#EAC4A8" points="80.1857512 107.933134 100.156139 107.933134 100.156139 0.00047761194 80.1857512 0.00047761194"/>
            <path d="M45.5392621,102.360941 C44.8028824,102.360941 44.2059288,101.763987 44.2059288,101.027608 C44.2059288,100.291228 44.8028824,99.6942742 45.5392621,99.6942742 C46.2756417,99.6942742 46.8725954,100.291228 46.8725954,101.027608 C46.8725954,101.763987 46.2756417,102.360941 45.5392621,102.360941 Z M55.2403112,102.360941 C54.5039315,102.360941 53.9069778,101.763987 53.9069778,101.027608 C53.9069778,100.291228 54.5039315,99.6942742 55.2403112,99.6942742 C55.9766908,99.6942742 56.5736445,100.291228 56.5736445,101.027608 C56.5736445,101.763987 55.9766908,102.360941 55.2403112,102.360941 Z" id="Combined-Shape" fill="#4A4A4A" fill-rule="nonzero"/>
            <path d="M65.3500327,44.5149083 C64.613653,44.5149083 64.0166993,43.9179546 64.0166993,43.1815749 C64.0166993,42.4451953 64.613653,41.8482416 65.3500327,41.8482416 C66.0864123,41.8482416 66.683366,42.4451953 66.683366,43.1815749 C66.683366,43.9179546 66.0864123,44.5149083 65.3500327,44.5149083 Z M75.0510818,44.5149083 C74.3147021,44.5149083 73.7177484,43.9179546 73.7177484,43.1815749 C73.7177484,42.4451953 74.3147021,41.8482416 75.0510818,41.8482416 C75.7874614,41.8482416 76.3844151,42.4451953 76.3844151,43.1815749 C76.3844151,43.9179546 75.7874614,44.5149083 75.0510818,44.5149083 Z" id="Combined-Shape" fill="#4A4A4A" fill-rule="nonzero"/>
            <path d="M85.3204207,102.360941 C84.5840411,102.360941 83.9870874,101.763987 83.9870874,101.027608 C83.9870874,100.291228 84.5840411,99.6942742 85.3204207,99.6942742 C86.0568004,99.6942742 86.6537541,100.291228 86.6537541,101.027608 C86.6537541,101.763987 86.0568004,102.360941 85.3204207,102.360941 Z M95.0214698,102.360941 C94.2850901,102.360941 93.6881365,101.763987 93.6881365,101.027608 C93.6881365,100.291228 94.2850901,99.6942742 95.0214698,99.6942742 C95.7578495,99.6942742 96.3548031,100.291228 96.3548031,101.027608 C96.3548031,101.763987 95.7578495,102.360941 95.0214698,102.360941 Z" id="Combined-Shape-Copy-2" fill="#4A4A4A" fill-rule="nonzero"/>
          </g>
        </g>
      </g>
    </g>
  </g>
</svg>