<?xml version="1.0" encoding="UTF-8"?>
<svg width="125px" height="100px" viewBox="0 0 125 100" version="1.1" xmlns="http://www.w3.org/2000/svg" xmlns:xlink="http://www.w3.org/1999/xlink">
    <!-- Generator: Sketch 51.3 (57544) - http://www.bohemiancoding.com/sketch -->
    <title>handyman</title>
    <desc>Created with Sketch.</desc>
    <defs></defs>
    <g id="Dashboard" stroke="none" stroke-width="1" fill="none" fill-rule="evenodd">
        <g id="New-Project-JV-1" transform="translate(-602.000000, -632.000000)" fill-rule="nonzero">
            <g id="Group-6-Copy-6" transform="translate(554.000000, 600.000000)">
                <g id="handyman" transform="translate(48.000000, 31.000000)">
                    <path d="M110.029237,42.0027628 L110.029237,83.0290267 C110.029237,84.8665582 107.834506,86.3557192 105.126345,86.3557192 L20.1486547,86.3557192 C17.4404935,86.3557192 15.245762,84.8665582 15.245762,83.0290267 L15.245762,36.4582751 L15.245762,25.3702814 C15.245762,23.5327499 17.4404935,22.0435889 20.1486547,22.0435889 L105.126345,22.0435889 C107.834506,22.0435889 110.029237,23.5327499 110.029237,25.3702814 L110.029237,42.0027628 Z" id="Combined-Shape" fill="#ECF6FF"></path>
                    <path d="M62.6374997,25.1839357 L62.6374997,52.0233307 C62.6374997,53.2254444 61.2017056,54.1996541 59.4300256,54.1996541 L3.83759363,54.1996541 C2.06591368,54.1996541 0.630119591,53.2254444 0.630119591,52.0233307 L0.630119591,21.5567301 L0.630119591,14.302961 C0.630119591,13.1008473 2.06591368,12.1266377 3.83759363,12.1266377 L59.4300256,12.1266377 C61.2017056,12.1266377 62.6374997,13.1008473 62.6374997,14.302961 L62.6374997,25.1839357 Z" id="Combined-Shape-Copy" fill="#ECF6FF" opacity="0.570479911"></path>
                    <path d="M124.64488,67.2569521 L124.64488,94.0963471 C124.64488,95.2984608 123.209086,96.2726704 121.437406,96.2726704 L65.8449737,96.2726704 C64.0732937,96.2726704 62.6374997,95.2984608 62.6374997,94.0963471 L62.6374997,63.6297464 L62.6374997,56.3759774 C62.6374997,55.1738637 64.0732937,54.1996541 65.8449737,54.1996541 L121.437406,54.1996541 C123.209086,54.1996541 124.64488,55.1738637 124.64488,56.3759774 L124.64488,67.2569521 Z" id="Combined-Shape-Copy-2" fill="#ECF6FF" opacity="0.570479911"></path>
                    <g id="Group_33-Copy" transform="translate(21.940559, 0.500000)">
                        <g id="Group_28" transform="translate(0.095804, 0.637762)">
                            <g id="Group_27">
                                <g id="Group_26" transform="translate(0.204895, 0.000000)">
                                    <path d="M26.4461538,72.2573427 L7.73496503,62.5503497 C5.48695412,61.3944343 4.02673886,59.1266535 3.90472694,56.6018156 C3.78271501,54.0769777 5.01745736,51.678964 7.14353515,50.3116723 C9.26961295,48.9443806 11.963773,48.8156965 14.2104895,49.9741259 L32.9216783,59.679021 C35.1696892,60.8349364 36.6299045,63.1027171 36.7519164,65.627555 C36.8739283,68.152393 35.639186,70.5504066 33.5131082,71.9176984 C31.3870304,73.2849901 28.6928703,73.4136741 26.4461538,72.2552448 L26.4461538,72.2573427 Z" id="Path_48" fill="#F0C0C0"></path>
                                    <polygon id="Path_98" fill="#1E87F0" points="46.0132867 73.5839161 28.2958042 73.5839161 28.2958042 98.563095 46.0132867 98.563095"></polygon>
                                    <path d="M32.2673261,38.3959874 C36.1495313,38.8731247 38.9101442,42.4066967 38.4337597,46.2889943 L35.9750185,66.0889943 C35.6670955,68.6008463 34.0425059,70.7576183 31.7132169,71.7468751 C29.3839278,72.736132 26.7038137,72.4075821 24.6824476,70.884987 C22.6610815,69.3623919 21.605557,66.8770701 21.91348,64.3652181 L24.385508,44.5652181 C24.8599362,40.685981 28.3877013,37.9247403 32.2673261,38.3959874 Z" id="Path_52" fill="#C8DFF5" transform="translate(30.173976, 55.327088) rotate(-171.000000) translate(-30.173976, -55.327088) "></path>
                                    <polygon id="Path_53" fill="#1E87F0" points="42.486014 73.5839161 60.2153846 73.5839161 64.5683117 98.563095 46.9332177 98.563095"></polygon>
                                    <path d="M46.8475524,98.9293706 C36.610971,98.901737 28.3177214,90.613486 28.2839161,80.3769231 L28.2839161,63.048951 C28.2839161,52.7965378 36.5951392,44.4853147 46.8475524,44.4853147 C57.0999657,44.4853147 65.4111888,52.7965378 65.4111888,63.048951 L65.4111888,80.365035 C65.3785626,90.6040171 57.0865333,98.8963587 46.8475524,98.9293706 Z" id="Path_54" fill="#6BB5FF"></path>
                                    <path d="M46.8475524,89.0293706 C36.7197572,89.0001782 28.5169186,80.7970271 28.4881119,70.6692308 L28.4881119,52.9559441 C28.4881119,42.8161119 36.70807,34.5961538 46.8479021,34.5961538 C56.9877342,34.5961538 65.2076923,42.8161119 65.2076923,52.9559441 L65.2076923,70.6804196 C65.1696936,80.8028476 56.9700018,88.9975425 46.8475524,89.0293706 Z" id="Path_56" fill="#C8DFF5"></path>
                                    <path d="M30.5636364,58.5132867 L30.5636364,38.7230769 C30.5636364,36.6751819 32.2237833,35.015035 34.2716783,35.015035 C36.3195733,35.015035 37.9797203,36.6751819 37.9797203,38.7230769 L37.9797203,58.5230769 C37.9766306,60.5709719 36.3139789,62.2286142 34.2660839,62.2255245 C32.2181889,62.2224348 30.5605467,60.5597831 30.5636364,58.5118881 L30.5636364,58.5132867 Z" id="Path_57" fill="#6BB5FF"></path>
                                    <path d="M44.7615385,46.1972028 C39.3195388,46.1810737 34.9119333,41.7734682 34.8958042,36.3314685 L34.8958042,20.9769231 C34.9119333,15.5349234 39.3195388,11.1273179 44.7615385,11.1111888 C50.2035381,11.1273179 54.6111436,15.5349234 54.6272727,20.9769231 L54.6272727,36.3314685 C54.6111436,41.7734682 50.2035381,46.1810737 44.7615385,46.1972028 Z" id="Path_58" fill="#F0C0C0"></path>
                                    <path d="M26.1181818,25.3545455 L26.1181818,16.5776224 C26.1181818,8.70505431 32.5001592,2.32307692 40.3727273,2.32307692 C48.2452953,2.32307692 54.6272727,8.70505431 54.6272727,16.5776224 L54.6272727,25.3545455 C54.6272727,33.2271135 48.2452953,39.6090909 40.3727273,39.6090909 C32.5001592,39.6090909 26.1181818,33.2271135 26.1181818,25.3545455 Z" id="Path_59" fill="#FFCCCC"></path>
                                    <path d="M46.8482517,90.9097902 C36.6086118,90.8809855 28.3145773,82.5878884 28.2846154,72.3482517 L28.2846154,61.6545455 C28.2980618,56.7687369 32.2554502,52.8113485 37.1412587,52.7979021 L56.5440559,52.7979021 C61.4298645,52.8113485 65.3872529,56.7687369 65.4006993,61.6545455 L65.4006993,72.3482517 C65.3719143,82.584014 57.0839986,90.8759908 46.8482517,90.9097902 Z" id="Path_61" fill="#1E87F0"></path>
                                    <path d="M41.120979,74.2643357 C37.9368431,74.2554999 35.3577869,71.6764436 35.348951,68.4923077 L35.348951,64.6594406 C35.3520237,63.5959263 36.2134089,62.7345412 37.2769231,62.7314685 L47.4608392,62.7314685 C48.5243534,62.7345412 49.3857385,63.5959263 49.3888112,64.6594406 L49.3888112,68.4923077 C49.3799754,71.6764436 46.8009192,74.2554999 43.6167832,74.2643357 L41.120979,74.2643357 Z" id="Path_62" fill="#6BB5FF"></path>
                                    <path d="M32.0034965,56.5622378 C30.9905071,56.5584035 30.1702678,55.7381642 30.1664336,54.7251748 L30.1664336,52.9902098 C30.1702678,51.9772204 30.9905071,51.1569811 32.0034965,51.1531469 L36.5622378,51.1531469 C37.5752272,51.1569811 38.3954665,51.9772204 38.3993007,52.9902098 L38.3993007,54.7251748 C38.3954665,55.7381642 37.5752272,56.5584035 36.5622378,56.5622378 L32.0034965,56.5622378 Z" id="Path_63" fill="#CCCCCC"></path>
                                    <path d="M43.7629371,19.4216783 L43.7629371,11.9391608 L51.8937063,11.9391608 L51.8937063,23.4832168 L47.8223776,23.4832168 C45.580391,23.4812875 43.763708,21.6636656 43.7629371,19.4216783 Z" id="Path_65" fill="#384452"></path>
                                    <path d="M26.1181818,9.53496503 C26.1327789,4.35533994 30.3280672,0.160051618 35.5076923,0.145454545 L45.227972,0.145454545 C50.4075971,0.160051618 54.6028854,4.35533994 54.6174825,9.53496503 L54.6174825,18.9244755 L26.106993,18.9244755 L26.1181818,9.53496503 Z" id="Path_66" fill="#384452"></path>
                                    <path d="M26.1181818,9.53496503 C26.1327789,4.35533994 30.3280672,0.160051618 35.5076923,0.145454545 L38.648951,0.145454545 C43.8285761,0.160051618 48.0238645,4.35533994 48.0384615,9.53496503 L48.0384615,18.9244755 L26.106993,18.9244755 L26.1181818,9.53496503 Z" id="Path_67" fill="#3F5165"></path>
                                    <path d="M21.2531469,18.9251748 C20.302565,18.921723 19.5328224,18.1519805 19.5293706,17.2013986 C19.5336097,16.2529539 20.3046946,15.486874 21.2531469,15.4888112 L48.2426573,15.4888112 C49.1893781,15.4910725 49.9580073,16.2547127 49.9664336,17.2013986 C49.9629818,18.1519805 49.1932392,18.921723 48.2426573,18.9251748 L21.2531469,18.9251748 Z" id="Path_68" fill="#647991"></path>
                                    <path d="M29.7111888,12.6083916 C29.2887153,12.6027453 28.9476043,12.2616344 28.941958,11.8391608 L28.941958,8.18391608 C28.9472368,7.76128751 29.2885602,7.41996407 29.7111888,7.41468531 L39.4524476,7.41468531 C39.8749211,7.42033159 40.216032,7.76144253 40.2216783,8.18391608 L40.2216783,11.8356643 C40.216032,12.2581379 39.8749211,12.5992488 39.4524476,12.6048951 L29.7111888,12.6083916 Z" id="Path_69" fill="#1E87F0"></path>
                                    <path d="M49.5692308,21.7146853 C49.5692308,19.4035861 51.4427469,17.5300699 53.7538462,17.5300699 C56.0649454,17.5300699 57.9384615,19.4035861 57.9384615,21.7146853 C57.9384615,24.0257846 56.0649454,25.8993007 53.7538462,25.8993007 C51.4452983,25.8931527 49.5753787,24.0232332 49.5692308,21.7146853 Z" id="Path_70" fill="#F0C0C0"></path>
                                    <path d="M66.4321678,66.5188811 L54.4685315,47.6944056 C52.3843275,44.3912901 53.3671688,40.0244127 56.6655623,37.9327438 C59.9639558,35.8410749 64.3330448,36.8140377 66.4321678,40.1076923 L78.3958042,58.9307692 C80.4800082,62.2338847 79.4971669,66.6007622 76.1987734,68.692431 C72.9003799,70.7840999 68.5312909,69.8111371 66.4321678,66.5174825 L66.4321678,66.5188811 Z" id="Path_72" fill="#C8DFF5"></path>
                                    <path d="M50.8622378,58.5132867 L50.8622378,38.7230769 C50.8622378,36.6749888 52.5225412,35.0146853 54.5706294,35.0146853 C56.6187175,35.0146853 58.279021,36.6749888 58.279021,38.7230769 L58.279021,58.5230769 C58.2770224,59.8479577 57.5683601,61.0711319 56.4199804,61.7318414 C55.2716006,62.3925509 53.8579696,62.3904183 52.7115886,61.726247 C51.5652075,61.0620756 50.8602389,59.8367689 50.8622378,58.5118881 L50.8622378,58.5132867 Z" id="Path_73" fill="#6BB5FF"></path>
                                    <path d="M52.3020979,56.5622378 C51.2891085,56.5584035 50.4688692,55.7381642 50.465035,54.7251748 L50.465035,52.9902098 C50.4688692,51.9772204 51.2891085,51.1569811 52.3020979,51.1531469 L56.8608392,51.1531469 C57.8738286,51.1569811 58.6940679,51.9772204 58.6979021,52.9902098 L58.6979021,54.7251748 C58.6940679,55.7381642 57.8738286,56.5584035 56.8608392,56.5622378 L52.3020979,56.5622378 Z" id="Path_74" fill="#CCCCCC"></path>
                                    <path d="M0.602797203,54.7937063 C0.602797203,49.8833928 4.58339279,45.9027972 9.49370629,45.9027972 C14.4040198,45.9027972 18.3846154,49.8833928 18.3846154,54.7937063 C18.3846154,59.7040198 14.4040198,63.6846154 9.49370629,63.6846154 C4.58658622,63.6769143 0.610498284,59.7008264 0.602797203,54.7937063 Z" id="Path_75" fill="#FFCCCC"></path>
                                    <path d="M29.0776224,83.1307692 C28.2585797,83.1277016 27.5953753,82.4644972 27.5923077,81.6454545 L27.5923077,78.8104895 C27.5953753,77.9914469 28.2585797,77.3282424 29.0776224,77.3251748 L57.427972,77.3251748 C58.2470147,77.3282424 58.9102191,77.9914469 58.9132867,78.8104895 L58.9132867,81.6454545 C58.9102191,82.4644972 58.2470147,83.1277016 57.427972,83.1307692 L29.0776224,83.1307692 Z" id="Path_76" fill="#6BB5FF"></path>
                                    <path d="M56.2146853,90.106993 C52.3423424,90.0962364 49.2058615,86.9597555 49.1951049,83.0874126 L49.1951049,79.027972 C49.2004779,77.3957489 50.5223223,76.0739045 52.1545455,76.0685315 L68.5881119,76.0685315 C70.220335,76.0739045 71.5421795,77.3957489 71.5475524,79.027972 L71.5475524,83.9699301 C71.5371857,87.3538744 68.7965317,90.0945284 65.4125874,90.1048951 L56.2146853,90.106993 Z" id="Path_77" fill="#6BB5FF"></path>
                                    <path d="M39.1706294,83.2685315 C38.150028,83.2681455 37.3227636,82.4408811 37.3223776,81.4202797 L37.3223776,78.9937063 C37.3227636,77.9731049 38.150028,77.1458405 39.1706294,77.1454545 L45.079021,77.1454545 C46.0996223,77.1458405 46.9268868,77.9731049 46.9272727,78.9937063 L46.9272727,81.4202797 C46.9268868,82.4408811 46.0996223,83.2681455 45.079021,83.2685315 L39.1706294,83.2685315 Z" id="Path_78" fill="#CCCCCC"></path>
                                    <path d="M58.2783217,78.9027972 C55.3436753,76.3337244 55.0442047,71.8732713 57.6090909,68.934965 L67.0895105,58.0713287 C69.6578277,55.1339848 74.1210478,54.8348297 77.0583916,57.4031469 C79.9957354,59.971464 80.2948906,64.4346842 77.7265734,67.372028 L68.2461538,78.2356643 C67.012973,79.6462204 65.2698622,80.5089952 63.4004374,80.6341132 C61.5310127,80.7592311 59.6884749,80.1364387 58.2783217,78.9027972 Z" id="Path_85" fill="#F0C0C0"></path>
                                    <path d="M51.7244755,73.993007 C51.7244755,69.0826935 55.7050711,65.1020979 60.6153846,65.1020979 C65.5256981,65.1020979 69.5062937,69.0826935 69.5062937,73.993007 C69.5062937,78.9033205 65.5256981,82.8839161 60.6153846,82.8839161 C55.7082645,82.876215 51.7321766,78.9001271 51.7244755,73.993007 Z" id="Path_86" fill="#FFCCCC"></path>
                                </g>
                            </g>
                        </g>
                    </g>
                </g>
            </g>
        </g>
    </g>
</svg>