<?xml version="1.0" encoding="utf-8"?>
<svg viewBox="0 0 170 170" xmlns="http://www.w3.org/2000/svg">
  <g id="Landing-page" stroke="none" stroke-width="1" fill="none" fill-rule="evenodd" transform="matrix(1, 0, 0, 1, 3.910998, 22.571594)">
    <g id="Landing-page---v2" transform="translate(-1020.000000, -1924.000000)">
      <g id="Group-26" transform="translate(180.000000, 1674.250000)">
        <g id="Group-29" transform="translate(0.000000, 150.000000)">
          <g id="Group-184" transform="translate(840.000000, 100.000000)">
            <polygon id="Fill-1" fill="#000000" opacity="0.180759" points="88.3530943 114.750008 90.7340822 114.750008 90.7340822 66.334201 88.3530943 66.334201"/>
            <polygon id="Fill-2" fill="#000000" opacity="0.180759" points="43.4038488 114.750008 46.5369682 114.750008 46.5369682 66.334201 43.4038488 66.334201"/>
            <polygon id="Fill-3" fill="#000000" opacity="0.180759" points="133.852777 29.4865349 135.439903 29.4865349 135.439903 4.0915158 133.852777 4.0915158"/>
            <g id="Group-183" transform="translate(0.000000, 0.061800)">
              <path d="M132.103579,66.4803947 C133.107084,66.2544572 133.857625,65.3592518 133.857625,64.2873899 L133.857625,61.7112651 L93.7102973,61.7112651 L93.7102973,64.2873899 C93.7102973,65.3592518 94.4608391,66.2544572 95.4643435,66.4803947 L132.103579,66.4803947 Z" id="Fill-47" fill="#51424E"/>
              <polygon id="Fill-48" fill="#7B2719" points="6.08441584 118.391636 153.957242 118.391636 153.957242 114.688208 6.08441584 114.688208"/>
              <polygon id="Fill-49" fill="#EDE8E5" points="135.175415 77.3826847 156.337832 77.3826847 156.337832 66.8015757 135.175415 66.8015757"/>
              <polygon id="Fill-50" fill="#EDE8E5" points="135.175415 88.4923722 156.337832 88.4923722 156.337832 77.9110645 135.175415 77.9110645"/>
              <polygon id="Fill-51" fill="#EDE8E5" points="135.175415 99.6032519 156.337832 99.6032519 156.337832 89.022143 135.175415 89.022143"/>
              <polygon id="Fill-52" fill="#EDE8E5" points="135.175415 114.688208 156.337832 114.688208 156.337832 100.132228 135.175415 100.132228"/>
              <path d="M149.393224,70.7700082 C149.720903,70.7700082 149.989365,70.501546 149.989365,70.173867 L149.989365,69.7790228 C149.989365,69.4509465 149.720903,69.1828816 149.393224,69.1828816 L142.120301,69.1828816 C141.792623,69.1828816 141.52416,69.4509465 141.52416,69.7790228 L141.52416,70.173867 C141.52416,70.501546 141.792623,70.7700082 142.120301,70.7700082 L149.393224,70.7700082 Z" id="Fill-53" fill="#51424E"/>
              <polygon id="Fill-54" fill="#000000" opacity="0.180759" points="135.175415 78.176546 156.337832 78.176546 156.337832 77.3826847 135.175415 77.3826847"/>
              <polygon id="Fill-55" fill="#000000" opacity="0.180759" points="135.175415 89.2864322 156.337832 89.2864322 156.337832 88.493167 135.175415 88.493167"/>
              <polygon id="Fill-56" fill="#000000" opacity="0.180759" points="135.175415 100.396915 156.337832 100.396915 156.337832 99.6032519 135.175415 99.6032519"/>
              <path d="M149.393224,81.8797355 C149.720903,81.8797355 149.989365,81.6114719 149.989365,81.2835943 L149.989365,80.8887501 C149.989365,80.5606737 149.720903,80.2926089 149.393224,80.2926089 L142.120301,80.2926089 C141.792623,80.2926089 141.52416,80.5606737 141.52416,80.8887501 L141.52416,81.2835943 C141.52416,81.6114719 141.792623,81.8797355 142.120301,81.8797355 L149.393224,81.8797355 Z" id="Fill-57" fill="#51424E"/>
              <path d="M149.393224,92.9908338 C149.720903,92.9908338 149.989365,92.7223716 149.989365,92.3946926 L149.989365,91.999451 C149.989365,91.6713746 149.720903,91.4033098 149.393224,91.4033098 L142.120301,91.4033098 C141.792623,91.4033098 141.52416,91.6713746 141.52416,91.999451 L141.52416,92.3946926 C141.52416,92.7223716 141.792623,92.9908338 142.120301,92.9908338 L149.393224,92.9908338 Z" id="Fill-58" fill="#51424E"/>
              <path d="M149.393224,104.100561 C149.720903,104.100561 149.989365,103.832099 149.989365,103.50442 L149.989365,103.109377 C149.989365,102.781301 149.720903,102.513236 149.393224,102.513236 L142.120301,102.513236 C141.792623,102.513236 141.52416,102.781301 141.52416,103.109377 L141.52416,103.50442 C141.52416,103.832099 141.792623,104.100561 142.120301,104.100561 L149.393224,104.100561 Z" id="Fill-59" fill="#51424E"/>
              <polygon id="Fill-60" fill="#EDE8E5" points="112.954649 114.688406 134.381951 114.688406 134.381951 65.213853 112.954649 65.213853"/>
              <polygon id="Fill-61" fill="#EDE8E5" points="90.734281 114.688406 112.160987 114.688406 112.160987 65.213853 90.734281 65.213853"/>
              <polygon id="Fill-62" fill="#000000" opacity="0.180759" points="112.160987 114.688208 112.954649 114.688208 112.954649 65.4787384 112.160987 65.4787384"/>
              <polygon id="Fill-63" fill="#000000" opacity="0.180759" points="134.381951 114.688208 135.175415 114.688208 135.175415 65.4787384 134.381951 65.4787384"/>
              <path d="M116.59129,91.6675593 C116.919167,91.6675593 117.187431,91.399097 117.187431,91.0714181 L117.187431,83.7984954 C117.187431,83.4708165 116.919167,83.2023542 116.59129,83.2023542 L116.196445,83.2023542 C115.868369,83.2023542 115.600304,83.4708165 115.600304,83.7984954 L115.600304,91.0714181 C115.600304,91.399097 115.868369,91.6675593 116.196445,91.6675593 L116.59129,91.6675593 Z" id="Fill-64" fill="#51424E"/>
              <polygon id="Fill-65" fill="#EDE8E5" points="3.17465063 77.3826847 43.3831826 77.3826847 43.3831826 66.8015757 3.17465063 66.8015757"/>
              <polygon id="Fill-66" fill="#EDE8E5" points="3.17465063 88.4923722 43.3831826 88.4923722 43.3831826 77.9110645 3.17465063 77.9110645"/>
              <polygon id="Fill-67" fill="#EDE8E5" points="3.17465063 99.6032519 43.3831826 99.6032519 43.3831826 89.022143 3.17465063 89.022143"/>
              <polygon id="Fill-68" fill="#EDE8E5" points="3.17465063 114.688208 43.3831826 114.688208 43.3831826 100.132228 3.17465063 100.132228"/>
              <polygon id="Fill-69" fill="#EDE8E5" points="3.17465063 29.424735 43.3831826 29.424735 43.3831826 4.02971583 3.17465063 4.02971583"/>
              <polygon id="Fill-70" fill="#99C8FF" points="7.93583171 22.5468552 38.621604 22.5468552 38.621604 8.52660764 7.93583171 8.52660764"/>
              <path d="M8.43261604,22.0500709 L38.1248197,22.0500709 L38.1248197,9.02339198 L8.43261604,9.02339198 L8.43261604,22.0500709 Z M7.43904737,23.0436395 L39.1183884,23.0436395 L39.1183884,8.0298233 L7.43904737,8.0298233 L7.43904737,23.0436395 Z" id="Fill-71" fill="#000000" opacity="0.180759"/>
              <path d="M19.0463339,25.5237658 L19.0463339,25.91861 C19.0463339,26.2464876 19.3145975,26.5147512 19.6424751,26.5147512 L26.9151991,26.5147512 C27.2430768,26.5147512 27.5113403,26.2464876 27.5113403,25.91861 L27.5113403,25.5237658 C27.5113403,25.1958881 27.2430768,24.9276246 26.9151991,24.9276246 L19.6424751,24.9276246 C19.3145975,24.9276246 19.0463339,25.1958881 19.0463339,25.5237658" id="Fill-72" fill="#51424E"/>
              <polygon id="Fill-73" fill="#EDE8E5" points="90.734281 29.424735 134.117265 29.424735 134.117265 4.02971583 90.734281 4.02971583"/>
              <polygon id="Fill-74" fill="#99C8FF" points="95.4708215 22.5468552 129.330847 22.5468552 129.330847 8.52660764 95.4708215 8.52660764"/>
              <path d="M95.9676059,22.0500709 L128.834063,22.0500709 L128.834063,9.02339198 L95.9676059,9.02339198 L95.9676059,22.0500709 Z M94.9740372,23.0436395 L129.827631,23.0436395 L129.827631,8.0298233 L94.9740372,8.0298233 L94.9740372,23.0436395 Z" id="Fill-75" fill="#000000" opacity="0.180759"/>
              <path d="M116.061916,26.5148108 C116.389794,26.5148108 116.658057,26.2465472 116.658057,25.9186696 L116.658057,25.5238254 C116.658057,25.1959477 116.389794,24.9276842 116.061916,24.9276842 L108.78959,24.9276842 C108.461911,24.9276842 108.193449,25.1959477 108.193449,25.5238254 L108.193449,25.9186696 C108.193449,26.2465472 108.461911,26.5148108 108.78959,26.5148108 L116.061916,26.5148108 Z" id="Fill-76" fill="#51424E"/>
              <polygon id="Fill-77" fill="#EDE8E5" points="135.208601 29.424735 156.635505 29.424735 156.635505 4.02971583 135.208601 4.02971583"/>
              <polygon id="Fill-78" fill="#99C8FF" points="139.96998 22.5468552 151.873927 22.5468552 151.873927 8.52660764 139.96998 8.52660764"/>
              <path d="M140.466765,22.0500709 L151.377341,22.0500709 L151.377341,9.02339198 L140.466765,9.02339198 L140.466765,22.0500709 Z M139.472997,23.0436395 L152.370711,23.0436395 L152.370711,8.0298233 L139.472997,8.0298233 L139.472997,23.0436395 Z" id="Fill-79" fill="#000000" opacity="0.180759"/>
              <path d="M149.558753,26.5148108 C149.886432,26.5148108 150.154894,26.2465472 150.154894,25.9186696 L150.154894,25.5238254 C150.154894,25.1959477 149.886432,24.9276842 149.558753,24.9276842 L142.285433,24.9276842 C141.957754,24.9276842 141.689291,25.1959477 141.689291,25.5238254 L141.689291,25.9186696 C141.689291,26.2465472 141.957754,26.5148108 142.285433,26.5148108 L149.558753,26.5148108 Z" id="Fill-80" fill="#51424E"/>
              <path d="M19.0463339,69.7789632 L19.0463339,70.1738074 C19.0463339,70.5016851 19.3145975,70.7699486 19.6424751,70.7699486 L26.9151991,70.7699486 C27.2430768,70.7699486 27.5113403,70.5016851 27.5113403,70.1738074 L27.5113403,69.7789632 C27.5113403,69.4510856 27.2430768,69.182822 26.9151991,69.182822 L19.6424751,69.182822 C19.3145975,69.182822 19.0463339,69.4510856 19.0463339,69.7789632" id="Fill-81" fill="#51424E"/>
              <polygon id="Fill-82" fill="#000000" opacity="0.180759" points="3.17465063 78.176546 43.3831826 78.176546 43.3831826 77.3826847 3.17465063 77.3826847"/>
              <polygon id="Fill-83" fill="#000000" opacity="0.180759" points="3.17465063 89.2864322 43.3831826 89.2864322 43.3831826 88.493167 3.17465063 88.493167"/>
              <polygon id="Fill-84" fill="#000000" opacity="0.180759" points="3.17465063 100.396915 43.3831826 100.396915 43.3831826 99.6032519 3.17465063 99.6032519"/>
              <path d="M19.0463339,80.8886905 L19.0463339,81.2835346 C19.0463339,81.611611 19.3145975,81.8796758 19.6424751,81.8796758 L26.9151991,81.8796758 C27.2430768,81.8796758 27.5113403,81.611611 27.5113403,81.2835346 L27.5113403,80.8886905 C27.5113403,80.5608128 27.2430768,80.2925492 26.9151991,80.2925492 L19.6424751,80.2925492 C19.3145975,80.2925492 19.0463339,80.5608128 19.0463339,80.8886905" id="Fill-85" fill="#51424E"/>
              <path d="M19.0463339,91.9993914 L19.0463339,92.394633 C19.0463339,92.7225106 19.3145975,92.9907742 19.6424751,92.9907742 L26.9151991,92.9907742 C27.2430768,92.9907742 27.5113403,92.7225106 27.5113403,92.394633 L27.5113403,91.9993914 C27.5113403,91.6715137 27.2430768,91.4032502 26.9151991,91.4032502 L19.6424751,91.4032502 C19.3145975,91.4032502 19.0463339,91.6715137 19.0463339,91.9993914" id="Fill-86" fill="#51424E"/>
              <path d="M19.0463339,103.109317 L19.0463339,103.50436 C19.0463339,103.832238 19.3145975,104.100501 19.6424751,104.100501 L26.9151991,104.100501 C27.2430768,104.100501 27.5113403,103.832238 27.5113403,103.50436 L27.5113403,103.109317 C27.5113403,102.78144 27.2430768,102.513176 26.9151991,102.513176 L19.6424751,102.513176 C19.3145975,102.513176 19.0463339,102.78144 19.0463339,103.109317" id="Fill-87" fill="#51424E"/>
              <polygon id="Fill-99" fill="#993C1B" points="46.0282611 114.88712 88.3530943 114.88712 88.3530943 63.9633475 46.0282611 63.9633475"/>
              <polygon id="Fill-100" fill="#993C1B" points="46.0282611 64.5308739 88.3530943 64.5308739 88.3530943 60.7839277 46.0282611 60.7839277"/>
              <polygon id="Fill-101" fill="#51424E" points="3.17961847 68.1923732 156.398638 68.1923732 156.398638 66.8077359 3.17961847 66.8077359"/>
              <polygon id="Fill-102" fill="#993C1B" points="0 4.02971583 46.8221224 4.02971583 46.8221224 0.0617999715 0 0.0617999715"/>
              <polygon id="Fill-103" fill="#993C1B" points="88.088805 4.02971583 159.578257 4.02971583 159.578257 0.0617999715 88.088805 0.0617999715"/>
              <path d="M108.920045,91.6675593 C109.247724,91.6675593 109.516187,91.399097 109.516187,91.0714181 L109.516187,83.7984954 C109.516187,83.4708165 109.247724,83.2023542 108.920045,83.2023542 L108.525002,83.2023542 C108.196926,83.2023542 107.928861,83.4708165 107.928861,83.7984954 L107.928861,91.0714181 C107.928861,91.399097 108.196926,91.6675593 108.525002,91.6675593 L108.920045,91.6675593 Z" id="Fill-104" fill="#51424E"/>
              <path d="M82.4007038,78.3756572 C83.6426647,78.3756572 84.6497459,77.368576 84.6497459,76.1262177 L84.6497459,72.160289 C84.6497459,70.9181295 83.6426647,69.9106508 82.4007038,69.9106508 L51.7169186,69.9106508 C50.4745604,69.9106508 49.4674792,70.9181295 49.4674792,72.160289 L49.4674792,76.1262177 C49.4674792,77.368576 50.4745604,78.3756572 51.7169186,78.3756572 L82.4007038,78.3756572 Z" id="Fill-105" fill="#FFFAFC"/>
              <path d="M82.4007038,104.762874 C83.6426647,104.762874 84.6497459,103.755395 84.6497459,102.513236 L84.6497459,83.8649453 C84.6497459,82.6223883 83.6426647,81.6153071 82.4007038,81.6153071 L51.7169186,81.6153071 C50.4745604,81.6153071 49.4674792,82.6223883 49.4674792,83.8649453 L49.4674792,102.513236 C49.4674792,103.755395 50.4745604,104.762874 51.7169186,104.762874 L82.4007038,104.762874 Z" id="Fill-106" fill="#99C8FF"/>
              <path d="M80.2680286,75.5756217 C81.0591079,74.9278149 81.1755542,73.7609679 80.5277474,72.9698885 C79.8795432,72.178213 78.7126962,72.0627603 77.9216168,72.7105671 C77.13014,73.3587713 77.0138924,74.5248235 77.6618979,75.3161016 C78.3099034,76.1075784 79.4765518,76.2238259 80.2680286,75.5756217" id="Fill-107" fill="#51424E"/>
              <path d="M75.6556841,74.1430944 C75.6556841,73.1205135 74.8268491,72.2914798 73.8042682,72.2914798 C72.7814886,72.2914798 71.9526536,73.1205135 71.9526536,74.1430944 C71.9526536,75.1660727 72.7814886,75.9949077 73.8042682,75.9949077 C74.8268491,75.9949077 75.6556841,75.1660727 75.6556841,74.1430944" id="Fill-108" fill="#51424E"/>
              <path d="M70.3654277,74.1430944 C70.3654277,73.1205135 69.5365927,72.2914798 68.5134157,72.2914798 C67.4908348,72.2914798 66.6618011,73.1205135 66.6618011,74.1430944 C66.6618011,75.1660727 67.4908348,75.9949077 68.5134157,75.9949077 C69.5365927,75.9949077 70.3654277,75.1660727 70.3654277,74.1430944" id="Fill-109" fill="#51424E"/>
              <path d="M65.0745751,74.1430944 C65.0745751,73.1205135 64.2457401,72.2914798 63.2231593,72.2914798 C62.2005784,72.2914798 61.371346,73.1205135 61.371346,74.1430944 C61.371346,75.1660727 62.2005784,75.9949077 63.2231593,75.9949077 C64.2457401,75.9949077 65.0745751,75.1660727 65.0745751,74.1430944" id="Fill-110" fill="#51424E"/>
              <path d="M55.0226408,74.1430944 C55.0226408,73.1205135 54.1936071,72.2914798 53.1708276,72.2914798 C52.1478492,72.2914798 51.3190143,73.1205135 51.3190143,74.1430944 C51.3190143,75.1660727 52.1478492,75.9949077 53.1708276,75.9949077 C54.1936071,75.9949077 55.0226408,75.1660727 55.0226408,74.1430944" id="Fill-111" fill="#51424E"/>
              <path d="M84.6498055,102.513176 L84.6498055,83.8648857 C84.6498055,82.6223287 83.6427243,81.6152475 82.4007635,81.6152475 L79.359251,81.6152475 L62.3032538,104.762814 L82.4007635,104.762814 C83.6427243,104.762814 84.6498055,103.755336 84.6498055,102.513176" id="Fill-112" fill="#FFFFFF" opacity="0.260323661"/>
              <path d="M69.9996155,81.6321183 L52.9436183,104.762794 L58.0954706,104.762794 L75.127026,81.6321183 C75.0054132,81.611452 69.9996155,81.6321183 69.9996155,81.6321183" id="Fill-113" fill="#FFFFFF" opacity="0.260323661"/>
              <path d="M80.8794906,86.1121194 C81.2073683,86.1121194 81.4756318,85.8438559 81.4756318,85.5159782 L81.4756318,85.1213327 C81.4756318,84.7932564 81.2073683,84.5251915 80.8794906,84.5251915 L52.973326,84.5251915 C52.6454483,84.5251915 52.3771848,84.7932564 52.3771848,85.1213327 L52.3771848,85.5159782 C52.3771848,85.8438559 52.6454483,86.1121194 52.973326,86.1121194 L80.8794906,86.1121194 Z" id="Fill-114" fill="#51424E"/>
              <path d="M81.6011791,87.1452719 C81.9290568,87.1452719 82.1973203,86.8770083 82.1973203,86.5491307 L82.1973203,86.1542865 C82.1973203,85.8264088 81.9290568,85.5581453 81.6011791,85.5581453 L53.6948158,85.5581453 C53.3671369,85.5581453 53.0986746,85.8264088 53.0986746,86.1542865 L53.0986746,86.5491307 C53.0986746,86.8770083 53.3671369,87.1452719 53.6948158,87.1452719 L81.6011791,87.1452719 Z" id="Fill-115" fill="#51424E"/>
              <polygon id="Fill-119" fill="#51424E" points="15.4402559 62.8336599 21.2820423 62.8336599 21.2820423 60.3622572 15.4402559 60.3622572"/>
              <path d="M152.832482,62.8335009 C154.351251,62.6073647 155.382973,62.1640343 155.382973,61.6543336 L145.673621,61.6543336 C145.673621,62.1640343 146.705541,62.6073647 148.224311,62.8335009 L152.832482,62.8335009 Z" id="Fill-141" fill="#993C1B"/>
              <path d="M141.986488,62.8335009 C143.505455,62.6073647 144.536978,62.1640343 144.536978,61.6543336 L134.827825,61.6543336 C134.827825,62.1640343 135.860143,62.6073647 137.378714,62.8335009 L141.986488,62.8335009 Z" id="Fill-145" fill="#175658"/>
            </g>
          </g>
        </g>
      </g>
    </g>
  </g>
</svg>