<?xml version="1.0" encoding="UTF-8"?>
<svg width="135px" height="98px" viewBox="0 0 135 98" version="1.1" xmlns="http://www.w3.org/2000/svg" xmlns:xlink="http://www.w3.org/1999/xlink">
    <!-- Generator: Sketch 51.3 (57544) - http://www.bohemiancoding.com/sketch -->
    <title>landscape icon</title>
    <desc>Created with Sketch.</desc>
    <defs></defs>
    <g id="Dashboard" stroke="none" stroke-width="1" fill="none" fill-rule="evenodd">
        <g id="New-Project-JV-1" transform="translate(-846.000000, -371.000000)" fill-rule="nonzero">
            <g id="Group-6-Copy-3" transform="translate(803.000000, 333.000000)">
                <g id="landscape-icon" transform="translate(42.722222, 37.281721)">
                    <g id="lawn-mower" transform="translate(69.430989, 31.733696)">
                        <path d="M62.722159,6.67965859 L56.2458169,6.67965859 C55.0584875,6.67965859 54.0870362,7.65110991 54.0870362,8.83843929 L54.0870362,10.99722 C54.0870362,12.1845494 55.0584875,13.1560007 56.2458169,13.1560007 L62.722159,13.1560007 C63.9094883,13.1560007 64.8809397,12.1845494 64.8809397,10.99722 L64.8809397,8.83843929 C64.8809397,7.65110991 63.9094883,6.67965859 62.722159,6.67965859 Z" id="Shape" fill="#6BB5FF"></path>
                        <g id="Group" transform="translate(46.413785, 8.738326)" fill="#853E14">
                            <path d="M8.75264143,0.100113455 L5.51447038,0.100113455 C3.7334763,0.100113455 2.27629933,1.55729043 2.27629933,3.33828451 L2.27629933,20.6085301 C1.08896994,20.6085301 0.117518624,21.5799814 0.117518624,22.7673108 L0.117518624,29.2436529 L6.59386073,29.2436529 L6.59386073,22.7673108 C6.59386073,21.5799814 5.62240941,20.6085301 4.43508003,20.6085301 L4.43508003,3.33828451 C4.43508003,2.74461981 4.92080568,2.25889416 5.51447038,2.25889416 L8.75264143,2.25889416 C9.34630612,2.25889416 9.83203178,1.7731685 9.83203178,1.17950381 C9.83203178,0.585839113 9.34630612,0.100113455 8.75264143,0.100113455 Z" id="Shape"></path>
                            <path d="M17.3877642,51.9108503 C16.7940995,51.9108503 16.3083739,51.4251246 16.3083739,50.8314599 L16.3083739,47.5932889 C16.3083739,46.9996242 15.8226482,46.5138985 15.2289835,46.5138985 L13.0702028,46.5138985 C12.4765381,46.5138985 11.9908125,46.0281729 11.9908125,45.4345082 C11.9908125,44.8408435 12.4765381,44.3551178 13.0702028,44.3551178 L15.2289835,44.3551178 C17.0099776,44.3551178 18.4671546,45.8122948 18.4671546,47.5932889 L18.4671546,50.8314599 C18.4671546,51.4251246 17.9814289,51.9108503 17.3877642,51.9108503 Z" id="Shape"></path>
                        </g>
                        <path d="M53.0076458,36.9025884 L34.8603955,36.9025884 C33.740528,36.9025884 32.7285996,37.4692683 32.1214425,38.4002425 L28.1816677,46.6171016 L11.7074725,49.8957498 C11.1812697,50.0306735 10.8439602,50.543384 10.9114221,51.0695868 L11.9908125,59.7047096 C12.0582744,60.2444047 12.5305077,60.6356837 13.0567105,60.6356837 L13.0567105,60.6491761 L44.3590306,60.6491761 C44.7368172,60.6491761 45.1146039,60.4467904 45.3034972,60.0824962 L53.0076458,45.8075588 L53.0076458,36.9025884 Z" id="Shape" fill="#1E87F0"></path>
                        <g id="Group" transform="translate(0.000000, 44.358207)" fill="#6BB5FF">
                            <circle id="Oval" cx="7.67325108" cy="11.9734073" r="7.55573245"></circle>
                            <path d="M50.8488651,0.100113455 C45.4923905,0.100113455 41.1343519,4.458152 41.1343519,9.81462661 C41.1343519,15.1711012 45.4923905,19.5291398 50.8488651,19.5291398 C56.2053397,19.5291398 60.5633783,15.1711012 60.5633783,9.81462661 C60.5633783,4.458152 56.2053397,0.100113455 50.8488651,0.100113455 Z" id="Shape"></path>
                        </g>
                        <circle id="Oval" fill="#853E14" cx="50.8488651" cy="54.172834" r="3.95326716"></circle>
                        <g id="Group" transform="translate(25.905368, 36.802475)" fill="#FBE2D3">
                            <path d="M14.1495932,0.100113455 L8.36136243,0.100113455 C7.61928156,0.100113455 6.93117021,0.477900078 6.53989121,1.09854953 L1.37230991,9.2344543 C1.15643184,9.57176378 1.14293946,9.99002754 1.33183277,10.327337 C1.52072608,10.6781389 1.88502032,10.894017 2.27629933,10.894017 L11.9908125,10.894017 C13.1781419,10.894017 14.1495932,9.92256565 14.1495932,8.73523626 L14.1495932,0.100113455 Z" id="Shape"></path>
                            <path d="M1.19690897,19.5291398 C0.603244282,19.5291398 0.117518624,19.0434141 0.117518624,18.4497494 L0.117518624,15.2115784 C0.117518624,14.6179137 0.603244282,14.132188 1.19690897,14.132188 C1.79057367,14.132188 2.27629933,14.6179137 2.27629933,15.2115784 L2.27629933,18.4497494 C2.27629933,19.0434141 1.79057367,19.5291398 1.19690897,19.5291398 Z" id="Shape"></path>
                            <path d="M5.51447038,19.5291398 C4.92080568,19.5291398 4.43508003,19.0434141 4.43508003,18.4497494 L4.43508003,15.2115784 C4.43508003,14.6179137 4.92080568,14.132188 5.51447038,14.132188 C6.10813507,14.132188 6.59386073,14.6179137 6.59386073,15.2115784 L6.59386073,18.4497494 C6.59386073,19.0434141 6.10813507,19.5291398 5.51447038,19.5291398 Z" id="Shape"></path>
                            <path d="M9.83203178,19.5291398 C9.23836709,19.5291398 8.75264143,19.0434141 8.75264143,18.4497494 L8.75264143,15.2115784 C8.75264143,14.6179137 9.23836709,14.132188 9.83203178,14.132188 C10.4256965,14.132188 10.9114221,14.6179137 10.9114221,15.2115784 L10.9114221,18.4497494 C10.9114221,19.0434141 10.4256965,19.5291398 9.83203178,19.5291398 Z" id="Shape"></path>
                        </g>
                        <g id="Group" transform="translate(6.642987, 0.000000)" fill="#8CC63F">
                            <path d="M11.21304,9.25416541 L10.7408067,8.78193213 C11.3614562,6.54219716 10.7542991,4.14055363 9.09473643,2.48099096 C7.27326521,0.659519746 4.56129696,0.0928398124 2.15965343,1.03730637 C1.87631346,1.1452454 1.66043539,1.37461585 1.55249636,1.64446344 C0.6080298,4.04610697 1.17470973,6.77156761 2.99618095,8.57954644 C4.23747985,9.82084535 5.88355014,10.4684796 7.57009756,10.4684796 C8.09630036,10.4684796 8.63599553,10.3740329 9.16219833,10.2391091 L9.68840112,10.7653119 C9.90427919,10.98119 10.1741268,11.0756366 10.4574667,11.0756366 C10.7408067,11.0756366 11.0106543,10.9676976 11.2265324,10.7653119 C11.6313038,10.3605405 11.6313038,9.67242917 11.21304,9.25416541 Z" id="Shape"></path>
                            <path d="M10.1641092,35.6542953 L9.69187593,35.182062 C10.3125254,32.942327 9.70536831,30.5406835 8.04580565,28.8811208 C6.22433443,27.0596496 3.51236618,26.4929697 1.11072265,27.4374362 C0.82738268,27.5453753 0.61150461,27.7747457 0.503565574,28.0445933 C-0.440900982,30.4462368 0.125778952,33.1716975 1.94725017,34.9796763 C3.18854907,36.2209752 4.83461936,36.8686094 6.52116678,36.8686094 C7.04736957,36.8686094 7.58706475,36.7741628 8.11326755,36.639239 L8.63947034,37.1654418 C8.85534841,37.3813199 9.125196,37.4757665 9.40853597,37.4757665 C9.69187593,37.4757665 9.96172352,37.3678275 10.1776016,37.1654418 C10.582373,36.7606704 10.582373,36.0725591 10.1641092,35.6542953 Z" id="Shape"></path>
                            <path d="M31.5500266,12.8996455 C31.4420875,12.6163055 31.2127171,12.4004274 30.9428695,12.2924884 C28.541226,11.3480219 25.8157653,11.9281942 24.0077865,13.736173 C22.3482238,15.3957357 21.7410668,17.8108716 22.3617162,20.0371142 L21.8894829,20.5093475 C21.4712192,20.9276112 21.4712192,21.6157226 21.8894829,22.0339863 C22.105361,22.2498644 22.3752086,22.3443111 22.6585486,22.3443111 C22.9418885,22.3443111 23.2117361,22.236372 23.4276142,22.0339863 L23.953817,21.5077835 C24.4800198,21.6427073 25.0062226,21.737154 25.5459178,21.737154 C27.2324652,21.737154 28.8920278,21.0760274 30.1198344,19.8482209 C31.9278132,18.0132573 32.4944931,15.2877966 31.5500266,12.8996455 Z" id="Shape"></path>
                        </g>
                        <circle id="Oval" fill="#853E14" cx="7.67325108" cy="56.3316147" r="3.23817105"></circle>
                    </g>
                    <g id="tree" transform="translate(0.912471, 0.249574)">
                        <path d="M39.1912409,4.58316385 C39.3324919,5.50290044 40.5700432,5.69872569 40.9905859,4.86727097 C43.1045355,0.681105122 49.4544098,2.74369067 48.7032113,7.372871 C48.5539347,8.29100247 49.6711016,8.8592167 50.3259926,8.19951034 C53.6293397,4.87048122 59.0305852,8.7950117 56.8861382,12.9651263 C56.4607801,13.7917656 57.3468091,14.6777946 58.1734484,14.2524365 C62.343563,12.1079896 66.2680935,17.509235 62.9390644,20.8125821 C62.279358,21.4674731 62.8475723,22.5846401 63.7657037,22.4353634 C68.3948841,21.684165 70.4574696,28.0340392 66.2713038,30.1479888 C65.4414542,30.5669264 65.6372794,31.8044777 66.5554109,31.9473338 C71.1894066,32.6632196 71.1894066,39.3405393 66.5554109,40.056425 C65.6356743,40.197676 65.439849,41.4352274 66.2713038,41.8557701 C70.4574696,43.9697196 68.3948841,50.3195939 63.7657037,49.5683954 C62.8475723,49.4191188 62.279358,50.5362858 62.9390644,51.1911768 C66.2680935,54.4945239 62.343563,59.8957693 58.1734484,57.7513224 C57.3468091,57.3259643 56.4607801,58.2119932 56.8861382,59.0386326 C59.0305852,63.2087472 53.6293397,67.1332777 50.3259926,63.8042485 C49.6711016,63.1445422 48.5539347,63.7127564 48.7032113,64.6308879 C49.4544098,69.2600682 43.1045355,71.3226538 40.9905859,67.1364879 C40.5716483,66.3066383 39.334097,66.5024636 39.1912409,67.420595 C38.4753552,72.0545907 31.7980354,72.0545907 31.0821497,67.420595 C30.9408987,66.5008584 29.7033474,66.3050332 29.2828046,67.1364879 C27.1688551,71.3226538 20.8189808,69.2600682 21.5701793,64.6308879 C21.7194559,63.7127564 20.6022889,63.1445422 19.947398,63.8042485 C16.6440508,67.1332777 11.2428054,63.2087472 13.3872523,59.0386326 C13.8126104,58.2119932 12.9265815,57.3259643 12.0999421,57.7513224 C7.92982754,59.8957693 4.00529706,54.4945239 7.33432619,51.1911768 C7.99403254,50.5362858 7.42581831,49.4191188 6.50768684,49.5683954 C1.87850651,50.3195939 -0.184079036,43.9697196 4.00208681,41.8557701 C4.8319364,41.4368325 4.63611116,40.1992812 3.71797969,40.056425 C-0.916016009,39.3405393 -0.916016009,32.6632196 3.71797969,31.9473338 C4.63771629,31.8060828 4.83354153,30.5685315 4.00208681,30.1479888 C-0.184079036,28.0340392 1.87850651,21.684165 6.50768684,22.4353634 C7.42581831,22.5846401 7.99403254,21.4674731 7.33432619,20.8125821 C4.00690218,17.5108401 7.93143266,12.1095947 12.1015473,14.2540416 C12.9281866,14.6793997 13.8142156,13.7933708 13.3888575,12.9667314 C11.2444105,8.7950117 16.645656,4.87048122 19.9490031,8.19951034 C20.6038941,8.8592167 21.721061,8.29100247 21.5717844,7.372871 C20.8205859,2.74369067 27.1704602,0.681105122 29.2844098,4.86727097 C29.7033474,5.69712056 30.9408987,5.50129532 31.0837548,4.58316385 C31.7980354,-0.0524369758 38.4753552,-0.0524369758 39.1912409,4.58316385 Z" id="Shape" fill="#659C35"></path>
                        <path d="M39.8171541,66.5512569 C38.9907548,71.9006173 31.2826358,71.9006173 30.4562365,66.5512569 C30.3469146,65.843444 29.0961982,65.4043036 29.0961982,65.6581527 C29.0961982,65.9120018 29.0961982,97.4689669 29.0961982,97.4689669 L40.2136775,97.4689669 C40.2136775,97.4689669 40.2136775,66.0583819 40.2136775,65.8693848 C40.2136775,65.6803877 39.8634769,66.2529378 39.8171541,66.5512569 Z" id="Shape" fill="#6B5B4B"></path>
                        <g id="Group-5" transform="translate(12.240574, 12.404657)" fill="#A4E869">
                            <path d="M27.0743521,41.8765273 C26.2488876,41.8765273 25.5789454,41.2080805 25.5789454,40.3811206 C25.5789454,32.9594171 31.6173977,26.9224603 39.0376058,26.9224603 C39.8630703,26.9224603 40.5330125,27.590907 40.5330125,28.417867 C40.5330125,29.2448269 39.8630703,29.9132737 39.0376058,29.9132737 C33.2653359,29.9132737 28.5697588,34.6103461 28.5697588,40.3811206 C28.5697588,41.2080805 27.8998166,41.8765273 27.0743521,41.8765273 Z" id="Shape"></path>
                            <path d="M18.1019119,46.3627474 C17.2764474,46.3627474 16.6065052,45.6943006 16.6065052,44.8673407 C16.6065052,39.0965663 11.9109281,34.3994938 6.13865822,34.3994938 C5.31319372,34.3994938 4.64325151,33.731047 4.64325151,32.9040871 C4.64325151,32.0771272 5.31319372,31.4086804 6.13865822,31.4086804 C13.5588663,31.4086804 19.5973186,37.4456372 19.5973186,44.8673407 C19.5973186,45.6943006 18.9273764,46.3627474 18.1019119,46.3627474 Z" id="Shape"></path>
                            <path d="M21.0927253,29.9132737 C20.2672608,29.9132737 19.5973186,29.2448269 19.5973186,28.417867 C19.5973186,22.6470925 14.9017415,17.95002 9.12947163,17.95002 C8.30400713,17.95002 7.63406493,17.2815732 7.63406493,16.4546133 C7.63406493,15.6276534 8.30400713,14.9592066 9.12947163,14.9592066 C16.5496797,14.9592066 22.588132,20.9961635 22.588132,28.417867 C22.588132,29.2448269 21.9181898,29.9132737 21.0927253,29.9132737 Z" id="Shape"></path>
                            <path d="M22.588132,17.95002 C21.7626675,17.95002 21.0927253,17.2815732 21.0927253,16.4546133 C21.0927253,9.03290981 27.1311776,2.99595293 34.5513857,2.99595293 C35.3768502,2.99595293 36.0467924,3.66439973 36.0467924,4.49135964 C36.0467924,5.31831955 35.3768502,5.98676635 34.5513857,5.98676635 C28.7791158,5.98676635 24.0835387,10.6838388 24.0835387,16.4546133 C24.0835387,17.2815732 23.4135965,17.95002 22.588132,17.95002 Z" id="Shape"></path>
                            <path d="M45.0192326,17.95002 C41.7203654,17.95002 39.0376058,15.2672604 39.0376058,11.9683932 C39.0376058,11.1414333 39.707548,10.4729865 40.5330125,10.4729865 C41.358477,10.4729865 42.0284192,11.1414333 42.0284192,11.9683932 C42.0284192,13.6178268 43.369799,14.9592066 45.0192326,14.9592066 C45.8446971,14.9592066 46.5146393,15.6276534 46.5146393,16.4546133 C46.5146393,17.2815732 45.8446971,17.95002 45.0192326,17.95002 Z" id="Shape"></path>
                            <path d="M31.5605722,23.9316468 C30.7351077,23.9316468 30.0651655,23.2632 30.0651655,22.4362401 C30.0651655,19.1373729 32.7479252,16.4546133 36.0467924,16.4546133 C36.8722569,16.4546133 37.5421991,17.1230601 37.5421991,17.95002 C37.5421991,18.7769799 36.8722569,19.4454267 36.0467924,19.4454267 C34.3973588,19.4454267 33.0559789,20.7868065 33.0559789,22.4362401 C33.0559789,23.2632 32.3860367,23.9316468 31.5605722,23.9316468 Z" id="Shape"></path>
                            <path d="M18.1019119,7.48217306 C14.8030447,7.48217306 12.120285,4.79941342 12.120285,1.50054623 C12.120285,0.673586317 12.7902273,0.00513951913 13.6156918,0.00513951913 C14.4411563,0.00513951913 15.1110985,0.673586317 15.1110985,1.50054623 C15.1110985,3.14997982 16.4524783,4.49135964 18.1019119,4.49135964 C18.9273764,4.49135964 19.5973186,5.15980644 19.5973186,5.98676635 C19.5973186,6.81372626 18.9273764,7.48217306 18.1019119,7.48217306 Z" id="Shape"></path>
                            <path d="M1.6524381,26.9224603 C0.826973595,26.9224603 0.15703139,26.2540135 0.15703139,25.4270535 C0.15703139,24.6000936 0.826973595,23.9316468 1.6524381,23.9316468 C3.3018717,23.9316468 4.64325151,22.590267 4.64325151,20.9408334 C4.64325151,20.1138735 5.31319372,19.4454267 6.13865822,19.4454267 C6.96412272,19.4454267 7.63406493,20.1138735 7.63406493,20.9408334 C7.63406493,24.2397006 4.94980989,26.9224603 1.6524381,26.9224603 Z" id="Shape"></path>
                            <path d="M37.5421991,41.8765273 C36.7167346,41.8765273 36.0467924,41.2080805 36.0467924,40.3811206 C36.0467924,37.0822534 38.729552,34.3994938 42.0284192,34.3994938 C42.8538837,34.3994938 43.5238259,35.0679406 43.5238259,35.8949005 C43.5238259,36.7218604 42.8538837,37.3903072 42.0284192,37.3903072 C40.3789856,37.3903072 39.0376058,38.731687 39.0376058,40.3811206 C39.0376058,41.2080805 38.3676636,41.8765273 37.5421991,41.8765273 Z" id="Shape"></path>
                        </g>
                        <path d="M23.5374585,98.210769 C22.5146504,98.210769 21.6845453,97.3825168 21.6845453,96.3578558 L21.6845453,94.5049426 C21.6845453,93.4802815 22.5146504,92.6520293 23.5374585,92.6520293 C24.5602666,92.6520293 25.3903717,93.4802815 25.3903717,94.5049426 L25.3903717,96.3578558 C25.3903717,97.3825168 24.5602666,98.210769 23.5374585,98.210769 Z" id="Shape" fill="#23A24D"></path>
                        <path d="M17.9787188,98.210769 C16.9559107,98.210769 16.1258056,97.3825168 16.1258056,96.3578558 L16.1258056,94.5049426 C16.1258056,93.4802815 16.9559107,92.6520293 17.9787188,92.6520293 C19.0015269,92.6520293 19.8316321,93.4802815 19.8316321,94.5049426 L19.8316321,96.3578558 C19.8316321,97.3825168 19.0015269,98.210769 17.9787188,98.210769 Z" id="Shape" fill="#23A24D"></path>
                        <path d="M12.4199792,98.210769 C11.3971711,98.210769 10.567066,97.3825168 10.567066,96.3578558 L10.567066,94.5049426 C10.567066,93.4802815 11.3971711,92.6520293 12.4199792,92.6520293 C13.4427873,92.6520293 14.2728924,93.4802815 14.2728924,94.5049426 L14.2728924,96.3578558 C14.2728924,97.3825168 13.4427873,98.210769 12.4199792,98.210769 Z" id="Shape" fill="#23A24D"></path>
                        <path d="M6.86123951,98.210769 C5.83843141,98.210769 5.00832629,97.3825168 5.00832629,96.3578558 L5.00832629,94.5049426 C5.00832629,93.4802815 5.83843141,92.6520293 6.86123951,92.6520293 C7.88404761,92.6520293 8.71415273,93.4802815 8.71415273,94.5049426 L8.71415273,96.3578558 C8.71415273,97.3825168 7.88404761,98.210769 6.86123951,98.210769 Z" id="Shape" fill="#23A24D"></path>
                        <path d="M56.8898965,98.210769 C55.8670884,98.210769 55.0369833,97.3825168 55.0369833,96.3578558 L55.0369833,94.5049426 C55.0369833,93.4802815 55.8670884,92.6520293 56.8898965,92.6520293 C57.9127046,92.6520293 58.7428097,93.4802815 58.7428097,94.5049426 L58.7428097,96.3578558 C58.7428097,97.3825168 57.9127046,98.210769 56.8898965,98.210769 Z" id="Shape" fill="#23A24D"></path>
                        <path d="M106.918554,98.210769 C105.895745,98.210769 105.06564,97.3825168 105.06564,96.3578558 L105.06564,94.5049426 C105.06564,93.4802815 105.895745,92.6520293 106.918554,92.6520293 C107.941362,92.6520293 108.771467,93.4802815 108.771467,94.5049426 L108.771467,96.3578558 C108.771467,97.3825168 107.941362,98.210769 106.918554,98.210769 Z" id="Shape-Copy-4" fill="#23A24D"></path>
                        <path d="M51.3311568,98.210769 C50.3083487,98.210769 49.4782436,97.3825168 49.4782436,96.3578558 L49.4782436,94.5049426 C49.4782436,93.4802815 50.3083487,92.6520293 51.3311568,92.6520293 C52.3539649,92.6520293 53.1840701,93.4802815 53.1840701,94.5049426 L53.1840701,96.3578558 C53.1840701,97.3825168 52.3539649,98.210769 51.3311568,98.210769 Z" id="Shape" fill="#23A24D"></path>
                        <path d="M101.359814,98.210769 C100.337006,98.210769 99.5069006,97.3825168 99.5069006,96.3578558 L99.5069006,94.5049426 C99.5069006,93.4802815 100.337006,92.6520293 101.359814,92.6520293 C102.382622,92.6520293 103.212727,93.4802815 103.212727,94.5049426 L103.212727,96.3578558 C103.212727,97.3825168 102.382622,98.210769 101.359814,98.210769 Z" id="Shape-Copy-5" fill="#23A24D"></path>
                        <path d="M45.7724172,98.210769 C44.7496091,98.210769 43.919504,97.3825168 43.919504,96.3578558 L43.919504,94.5049426 C43.919504,93.4802815 44.7496091,92.6520293 45.7724172,92.6520293 C46.7952253,92.6520293 47.6253304,93.4802815 47.6253304,94.5049426 L47.6253304,96.3578558 C47.6253304,97.3825168 46.7952253,98.210769 45.7724172,98.210769 Z" id="Shape" fill="#23A24D"></path>
                        <path d="M95.8010742,98.210769 C94.7782661,98.210769 93.948161,97.3825168 93.948161,96.3578558 L93.948161,94.5049426 C93.948161,93.4802815 94.7782661,92.6520293 95.8010742,92.6520293 C96.8238823,92.6520293 97.6539874,93.4802815 97.6539874,94.5049426 L97.6539874,96.3578558 C97.6539874,97.3825168 96.8238823,98.210769 95.8010742,98.210769 Z" id="Shape-Copy-6" fill="#23A24D"></path>
                        <path d="M73.5661155,98.210769 C72.5433074,98.210769 71.7132023,97.3825168 71.7132023,96.3578558 L71.7132023,94.5049426 C71.7132023,93.4802815 72.5433074,92.6520293 73.5661155,92.6520293 C74.5889236,92.6520293 75.4190287,93.4802815 75.4190287,94.5049426 L75.4190287,96.3578558 C75.4190287,97.3825168 74.5889236,98.210769 73.5661155,98.210769 Z" id="Shape" fill="#23A24D"></path>
                        <path d="M123.594773,98.210769 C122.571964,98.210769 121.741859,97.3825168 121.741859,96.3578558 L121.741859,94.5049426 C121.741859,93.4802815 122.571964,92.6520293 123.594773,92.6520293 C124.617581,92.6520293 125.447686,93.4802815 125.447686,94.5049426 L125.447686,96.3578558 C125.447686,97.3825168 124.617581,98.210769 123.594773,98.210769 Z" id="Shape-Copy-7" fill="#23A24D"></path>
                        <path d="M68.0073758,98.210769 C66.9845677,98.210769 66.1544626,97.3825168 66.1544626,96.3578558 L66.1544626,94.5049426 C66.1544626,93.4802815 66.9845677,92.6520293 68.0073758,92.6520293 C69.0301839,92.6520293 69.8602891,93.4802815 69.8602891,94.5049426 L69.8602891,96.3578558 C69.8602891,97.3825168 69.0301839,98.210769 68.0073758,98.210769 Z" id="Shape" fill="#23A24D"></path>
                        <path d="M118.036033,98.210769 C117.013225,98.210769 116.18312,97.3825168 116.18312,96.3578558 L116.18312,94.5049426 C116.18312,93.4802815 117.013225,92.6520293 118.036033,92.6520293 C119.058841,92.6520293 119.888946,93.4802815 119.888946,94.5049426 L119.888946,96.3578558 C119.888946,97.3825168 119.058841,98.210769 118.036033,98.210769 Z" id="Shape-Copy-8" fill="#23A24D"></path>
                        <path d="M62.4486362,98.210769 C61.4258281,98.210769 60.595723,97.3825168 60.595723,96.3578558 L60.595723,94.5049426 C60.595723,93.4802815 61.4258281,92.6520293 62.4486362,92.6520293 C63.4714443,92.6520293 64.3015494,93.4802815 64.3015494,94.5049426 L64.3015494,96.3578558 C64.3015494,97.3825168 63.4714443,98.210769 62.4486362,98.210769 Z" id="Shape" fill="#23A24D"></path>
                        <path d="M112.477293,98.210769 C111.454485,98.210769 110.62438,97.3825168 110.62438,96.3578558 L110.62438,94.5049426 C110.62438,93.4802815 111.454485,92.6520293 112.477293,92.6520293 C113.500101,92.6520293 114.330206,93.4802815 114.330206,94.5049426 L114.330206,96.3578558 C114.330206,97.3825168 113.500101,98.210769 112.477293,98.210769 Z" id="Shape-Copy-9" fill="#23A24D"></path>
                        <path d="M90.2423345,98.210769 C89.2195264,98.210769 88.3894213,97.3825168 88.3894213,96.3578558 L88.3894213,94.5049426 C88.3894213,93.4802815 89.2195264,92.6520293 90.2423345,92.6520293 C91.2651426,92.6520293 92.0952477,93.4802815 92.0952477,94.5049426 L92.0952477,96.3578558 C92.0952477,97.3825168 91.2651426,98.210769 90.2423345,98.210769 Z" id="Shape" fill="#23A24D"></path>
                        <path d="M84.6835948,98.210769 C83.6607868,98.210769 82.8306816,97.3825168 82.8306816,96.3578558 L82.8306816,94.5049426 C82.8306816,93.4802815 83.6607868,92.6520293 84.6835948,92.6520293 C85.7064029,92.6520293 86.5365081,93.4802815 86.5365081,94.5049426 L86.5365081,96.3578558 C86.5365081,97.3825168 85.7064029,98.210769 84.6835948,98.210769 Z" id="Shape" fill="#23A24D"></path>
                        <path d="M79.1248552,98.210769 C78.1020471,98.210769 77.271942,97.3825168 77.271942,96.3578558 L77.271942,94.5049426 C77.271942,93.4802815 78.1020471,92.6520293 79.1248552,92.6520293 C80.1476633,92.6520293 80.9777684,93.4802815 80.9777684,94.5049426 L80.9777684,96.3578558 C80.9777684,97.3825168 80.1476633,98.210769 79.1248552,98.210769 Z" id="Shape" fill="#23A24D"></path>
                        <path d="M129.153512,98.210769 C128.130704,98.210769 127.300599,97.3825168 127.300599,96.3578558 L127.300599,94.5049426 C127.300599,93.4802815 128.130704,92.6520293 129.153512,92.6520293 C130.17632,92.6520293 131.006425,93.4802815 131.006425,94.5049426 L131.006425,96.3578558 C131.006425,97.3825168 130.17632,98.210769 129.153512,98.210769 Z" id="Shape-Copy-12" fill="#23A24D"></path>
                    </g>
                </g>
            </g>
        </g>
    </g>
</svg>