<?xml version="1.0" encoding="utf-8"?>
<svg viewBox="-10 -10 200 176" width="200" height="176" xmlns="http://www.w3.org/2000/svg">
  <g>
    <rect style="fill: rgb(255, 255, 255);" x="-10" y="-10" width="200" height="176" rx="10" ry="10">
      <title>Background</title>
    </rect>
  </g>
  <g id="Landing-page" stroke="none" stroke-width="1" fill="none" fill-rule="evenodd" transform="matrix(1, 0, 0, 1, 32.853298, 28.308657)">
    <g id="Previous-icons" transform="translate(-652.000000, -140.000000)" fill-rule="nonzero">
      <g id="Group-8" transform="translate(96.000000, 100.500000)">
        <g id="Group-6-Copy-2" transform="translate(496.165603, 0.873508)">
          <g id="paint-roller" transform="translate(60.500000, 39.281721)">
            <path d="M0.155859375,69.5716797 C0.155859375,73.0164063 2.94824219,75.8085938 6.39277344,75.8085938 L6.80859375,75.8085938 C10.2533203,75.8085938 13.0455078,73.0162109 13.0455078,69.5716797 L13.0455078,38.5076172 C13.0455078,35.3357422 15.5324219,32.6546875 18.703125,32.5675781 C21.9927734,32.4773438 24.6878906,35.1171875 24.6878906,38.3865234 L24.6878906,52.9394531 C24.6878906,56.3841797 27.4802734,59.1763672 30.9248047,59.1763672 L31.340625,59.1763672 C34.7853516,59.1763672 37.5775391,56.3839844 37.5775391,52.9394531 L37.5775391,38.3865234 C37.5775391,35.1714844 40.1837891,32.5652344 43.3988281,32.5652344 L65.4363281,32.5652344 C68.8810547,32.5652344 71.6732422,29.7728516 71.6732422,26.3283203 L71.6732422,3.04335937 L1.71523438,3.04335937 C0.854101563,3.04335937 0.156054688,3.74140625 0.156054688,4.60253906 L0.156054688,69.5716797 L0.155859375,69.5716797 Z" id="Shape" fill="#000000" opacity="0.077199"/>
            <path d="M6.39296875,72.6902344 C4.67070312,72.6902344 3.27441406,71.2939453 3.27441406,69.5716797 L3.27441406,4.60332031 C3.27441406,3.74199219 3.97265625,3.04394531 4.83398437,3.04414063 L68.5548828,3.06171875 L68.5548828,26.3285156 C68.5548828,28.0507813 67.1585937,29.4470703 65.4363281,29.4470703 L43.3992187,29.4470703 C38.4619141,29.4470703 34.4595703,33.4496094 34.4595703,38.3867188 L34.4595703,52.9396484 C34.4595703,54.6619141 33.0632812,56.0582031 31.3410156,56.0582031 L30.9251953,56.0582031 C29.2029297,56.0582031 27.8066406,54.6619141 27.8066406,52.9396484 L27.8066406,38.5451172 C27.8066406,33.5427734 23.7130859,29.3625 18.7117187,29.4482422 C13.8537109,29.5314453 9.92734375,33.5091797 9.92734375,38.3867188 L9.92734375,69.5716797 C9.92734375,71.2939453 8.53105469,72.6902344 6.80878906,72.6902344 L6.39296875,72.6902344 L6.39296875,72.6902344 Z" id="Shape" fill="#1E87F0"/>
            <path d="M52.5466797,70.0623047 C51.6853516,70.0623047 50.9875,69.3642578 50.9875,68.503125 L50.9875,44.3867187 C50.9875,40.0876953 54.4847656,36.5904297 58.7837891,36.5904297 L92.0478516,36.5904297 C94.6271484,36.5904297 96.7255859,34.4921875 96.7255859,31.9126953 L96.7255859,21.1019531 C96.7255859,18.5224609 94.6269531,16.4242188 92.0478516,16.4242188 L89.96875,16.4242188 C89.1074219,16.4242188 88.4095703,15.7261719 88.4095703,14.8650391 C88.4095703,14.0039062 89.1074219,13.3058594 89.96875,13.3058594 L92.0476563,13.3058594 C96.3466797,13.3058594 99.8439453,16.803125 99.8439453,21.1021484 L99.8439453,31.9128906 C99.8439453,36.2119141 96.3466797,39.7091797 92.0476563,39.7091797 L58.7837891,39.7091797 C56.2044922,39.7091797 54.1060547,41.8074219 54.1060547,44.3869141 L54.1060547,68.5033203 C54.1060547,69.3642578 53.4082031,70.0623047 52.5466797,70.0623047 Z" id="Shape" fill="#1E79D4"/>
            <path d="M78.4289062,0.0341796875 C78.3951172,0.0318359375 78.3611328,0.030859375 78.3271484,0.030859375 L21.7783203,0 C21.778125,0 21.7777344,0 21.7775391,0 C21.3642578,0 20.9675781,0.164257813 20.6751953,0.45625 C20.3826172,0.748828125 20.2181641,1.14550781 20.2181641,1.55917969 L20.2181641,26.5072266 C20.2181641,27.3683594 20.9160156,28.0664062 21.7773437,28.0664062 L78.3261719,28.0664062 C78.4742187,28.0664062 78.6173828,28.0458984 78.753125,28.0072266 C85.9427734,27.3664063 91.5277344,21.2904297 91.5277344,14.0332031 C91.528125,6.6671875 85.7742188,0.518164063 78.4289062,0.0341796875 Z" id="Shape" fill="#F2F2F2"/>
            <path d="M21.7775391,0 C14.0394531,0 7.74433594,6.2953125 7.74433594,14.0332031 C7.74433594,21.7710938 14.0396484,28.0664062 21.7775391,28.0664062 C29.5154297,28.0664062 35.8107422,21.7710938 35.8107422,14.0332031 C35.8107422,6.2953125 29.515625,0 21.7775391,0 Z" id="Shape" fill="#E5E5E5"/>
            <path d="M21.7775391,5.82128906 C17.2494141,5.82128906 13.5654297,9.50527344 13.5654297,14.0333984 C13.5654297,18.5615234 17.2494141,22.2455078 21.7775391,22.2455078 C26.3056641,22.2455078 29.9896484,18.5615234 29.9896484,14.0333984 C29.9896484,9.50527344 26.3056641,5.82128906 21.7775391,5.82128906 Z" id="Shape" fill="#B2B2B2"/>
            <path d="M55.6652344,66.9439453 L49.4283203,66.9439453 C46.8490234,66.9439453 44.7505859,69.0421875 44.7505859,71.6216797 L44.7505859,95.3222656 C44.7505859,97.9017578 46.8492187,100 49.4283203,100 L55.6652344,100 C58.2445312,100 60.3429687,97.9017578 60.3429687,95.3222656 L60.3429687,71.6216797 C60.3429687,69.0421875 58.2445312,66.9439453 55.6652344,66.9439453 Z" id="Shape" fill="#EB6836"/>
            <path d="M44.7505859,71.6216797 L44.7505859,95.3222656 C44.7505859,97.9017578 46.8492187,100 49.4283203,100 L49.4283203,66.9439453 C46.8490234,66.9439453 44.7505859,69.0421875 44.7505859,71.6216797 Z" id="Shape" fill="#C74B38"/>
            <path d="M45.1664063,21.3097656 C46.9478516,21.3097656 48.5921875,20.7089844 49.9064453,19.6994141 C50.39375,23.5333984 53.6763672,26.5072266 57.6404297,26.5072266 C61.103125,26.5072266 64.0464844,24.2375 65.0599609,21.1078125 C66.421875,22.2699219 68.1878906,22.9728516 70.1146484,22.9728516 C74.4136719,22.9728516 77.9109375,19.4755859 77.9109375,15.1765625 L77.9109375,0.0302734375 L37.3703125,0.0083984375 L37.3703125,13.5136719 C37.3701172,17.8125 40.8673828,21.3097656 45.1664063,21.3097656 Z" id="Shape" fill="#000000" opacity="0.077199"/>
            <path d="M45.1664063,18.1912109 C47.7457031,18.1912109 49.8441406,16.0929687 49.8441406,13.5134766 L49.8441406,12.6818359 C49.8441406,11.821875 50.5435547,11.1226562 51.4033203,11.1226562 C52.2630859,11.1226562 52.9625,11.8220703 52.9625,12.6818359 L52.9625,18.7109375 C52.9625,21.2904297 55.0611328,23.3886719 57.6402344,23.3886719 C60.2193359,23.3886719 62.3179687,21.2904297 62.3179687,18.7109375 L62.3179687,10.6029297 C62.3179687,9.74296875 63.0173828,9.04375 63.8771484,9.04375 C64.7371094,9.04375 65.4363281,9.74316406 65.4363281,10.6029297 L65.4363281,15.1767578 C65.4363281,17.75625 67.5349609,19.8544922 70.1140625,19.8544922 C72.6931641,19.8544922 74.7917969,17.75625 74.7917969,15.1767578 L74.7917969,0.0287109375 L40.4884766,0.01015625 L40.4884766,13.5134766 C40.4884766,16.0929687 42.5871094,18.1912109 45.1664063,18.1912109 Z" id="Shape" fill="#1E87F0"/>
          </g>
        </g>
      </g>
    </g>
  </g>
</svg>