<svg xmlns="http://www.w3.org/2000/svg" x="0px" y="0px"
width="64" height="64"
viewBox="0 0 192 192"
style=" fill:#000000;"><g fill="none" fill-rule="nonzero" stroke="none" stroke-width="1" stroke-linecap="butt" stroke-linejoin="miter" stroke-miterlimit="10" stroke-dasharray="" stroke-dashoffset="0" font-family="none" font-weight="none" font-size="none" text-anchor="none" style="mix-blend-mode: normal"><path d="M0,192v-192h192v192z" fill="none"></path><g fill="#1e87f0"><g id="surface1"><path d="M106.5,0c-9.15234,0 -17.17969,4.85156 -21.66797,12.11719c-15.53906,1.11328 -27.83203,14.07422 -27.83203,29.88281c0,1.64063 0.17578,3.24609 0.43359,4.83984c-15.24609,5.10938 -28.55859,14.08594 -37.875,26.19141c-2.98828,-3.75 -4.55859,-8.25 -4.55859,-13.03125c0,-1.07812 0.10547,-2.21484 0.31641,-3.49219c0.19922,-1.21875 -0.36328,-2.4375 -1.41797,-3.07031c-1.06641,-0.63281 -2.40235,-0.55078 -3.375,0.19922c-6.67969,5.16797 -10.52344,12.94922 -10.52344,21.36328c0,7.41797 2.94141,14.33203 8.34375,19.51172c-1.55859,5.40235 -2.34375,10.94531 -2.34375,16.48828c0,16.58203 7.00781,32.625 19.74609,45.11719l-2.08594,20.83594c-0.44531,4.41797 2.34375,8.44922 6.62109,9.59766l14.0625,3.76172c3.77344,1.00781 7.73438,-0.50391 9.86719,-3.76172l6.67969,-10.21875c16.74609,4.85156 35.27344,4.88672 52.03125,0.02344l6.65625,10.19531c1.69922,2.58984 4.54688,4.07813 7.53516,4.07813c0.77344,0 1.55859,-0.10547 2.34375,-0.31641l14.02734,-3.75c4.30078,-1.16016 7.08984,-5.20312 6.62109,-9.63281l-1.53515,-15.15235c10.73438,-4.96875 19.32422,-12.5039 24.85547,-21.80859l10.69922,-1.33594c4.48828,-0.5625 7.875,-4.39453 7.875,-8.92969v-25.40625c0,-4.52344 -3.38672,-8.36719 -7.875,-8.92969l-10.38281,-1.3125c-2.97656,-5.13281 -6.91406,-9.77344 -11.74219,-13.79297v-29.0625c0,-1.51172 -1.125,-2.78906 -2.625,-2.96484c-1.26562,-0.16406 -2.33203,-0.23437 -3.375,-0.23437c-6.33984,0 -12.31641,2.20313 -17.08594,6.14063c-0.04687,0.03516 -0.10547,0.03516 -0.15235,0.08203c-0.08203,0.05859 -0.15234,0.14063 -0.23437,0.21094c-0.10547,0.10547 -0.22265,0.21094 -0.32812,0.31641c-0.59765,0.51563 -1.18359,1.04297 -1.72265,1.60547c-5.37891,-3.52734 -11.26172,-6.42187 -17.46094,-8.68359c7.73438,-4.38281 12.98438,-12.65625 12.98438,-22.17187c0,-14.0625 -11.4375,-25.5 -25.5,-25.5zM106.5,6c10.75781,0 19.5,8.74219 19.5,19.5c0,6.87891 -3.60937,12.91406 -9,16.37109c-0.07031,-14.74219 -10.82812,-26.98828 -24.91406,-29.40234c3.5625,-3.94922 8.68359,-6.46875 14.41406,-6.46875zM87,18c13.23047,0 24,10.76953 24,24c0,6.46875 -2.64844,12.65625 -7.26562,17.15625c-5.40234,-1.26562 -10.99219,-1.92187 -16.73437,-1.92187c-5.74219,0 -11.33203,0.65625 -16.73437,1.92188c-4.61719,-4.5 -7.26562,-10.69922 -7.26562,-17.15625c0,-13.23047 10.76953,-24 24,-24zM87,24c-9.92578,0 -18,8.07422 -18,18c0,1.65234 1.34766,3 3,3c1.65234,0 3,-1.34766 3,-3c0,-6.62109 5.37891,-12 12,-12c1.65234,0 3,-1.34766 3,-3c0,-1.65234 -1.34766,-3 -3,-3zM58.99219,52.62891c1.14844,3.02344 2.77734,5.84766 4.83984,8.36719c-1.5,0.50391 -2.98828,1.05469 -4.45312,1.66406c-1.53516,0.63281 -2.25,2.37891 -1.61719,3.91406c0.63281,1.53516 2.39063,2.26172 3.92578,1.61719c7.91016,-3.29297 16.41797,-4.95703 25.3125,-4.95703c9.1875,0 17.95313,1.76953 26.0625,5.28516c0.38672,0.16406 0.78516,0.24609 1.18359,0.24609c1.16016,0 2.27344,-0.67969 2.75391,-1.81641c0.66797,-1.52344 -0.03516,-3.28125 -1.55859,-3.94922c-1.73437,-0.73828 -3.49219,-1.39453 -5.27344,-2.00391c2.0625,-2.50781 3.67969,-5.32031 4.82813,-8.34375c6.33985,2.14453 12.33985,5.01563 17.80078,8.56641c-2.44922,4.11328 -3.79687,8.85938 -3.79687,13.78125c0,1.65234 1.34766,3 3,3c1.65234,0 3,-1.34766 3,-3c0,-4.66406 1.53516,-9.10547 4.3125,-12.73828c0.02344,-0.02344 0.05859,-0.03515 0.08203,-0.07031c4.01953,-5.20312 10.06641,-8.19141 16.60547,-8.19141v26.26172c0,1.76953 0.78516,3.4336 2.15625,4.58203c4.26563,3.58594 7.76953,7.69922 10.39453,12.22266c0.94922,1.65234 2.56641,2.73047 4.42969,2.96484l10.39453,1.28906c1.5,0.1875 2.625,1.47656 2.625,2.97656v25.40625c0,1.51172 -1.125,2.78906 -2.625,2.97656l-10.69922,1.33594c-1.82812,0.23438 -3.43359,1.28906 -4.39453,2.89453c-4.92187,8.23828 -12.60937,14.95313 -22.23047,19.41797c-2.35547,1.08984 -3.75,3.52734 -3.49219,6.05859l1.58203,15.16406c0.15234,1.47656 -0.77344,2.82422 -2.20312,3.19922l-14.05078,3.76172c-1.2539,0.33985 -2.5664,-0.16406 -3.28125,-1.24219l-6.66797,-10.19531c-1.125,-1.72265 -3,-2.69531 -4.98047,-2.69531c-0.5625,0 -1.13672,0.07031 -1.6875,0.23438c-15.67969,4.5 -33.04687,4.48828 -48.70312,-0.04687c-2.56641,-0.75 -5.26172,0.24609 -6.70312,2.44922l-6.69141,10.24219c-0.70312,1.08984 -2.02734,1.59375 -3.28125,1.2539l-14.0625,-3.76172c-1.41797,-0.38672 -2.35547,-1.73437 -2.20312,-3.19922l2.08594,-20.84766c0.17578,-1.79297 -0.46875,-3.55078 -1.76953,-4.83984c-11.56641,-11.37891 -17.94141,-25.89844 -17.94141,-40.86328c0,-4.98047 0.70313,-9.96094 2.10938,-14.8125c0.62109,-2.15625 -0.01172,-4.46484 -1.66406,-6.04687c-4.14844,-3.99609 -6.44531,-9.375 -6.44531,-15.14062c0,-4.05469 1.14844,-7.91016 3.25781,-11.22656c0.65625,4.73438 2.5664,9.17578 5.60156,12.99609c1.10156,1.38281 2.75391,2.16797 4.53516,2.16797h0.03516c1.85156,-0.01172 3.63281,-0.89062 4.78125,-2.36719c8.5664,-11.00391 20.77734,-19.20703 34.78125,-23.94141zM90,75c-1.65234,0 -3,1.34766 -3,3v3c-6.62109,0 -12,5.37891 -12,12v6c0,6.62109 5.37891,12 12,12h6c3.30469,0 6,2.69531 6,6v6c0,3.30469 -2.69531,6 -6,6v-12c0,-1.65234 -1.34766,-3 -3,-3c-1.65234,0 -3,1.34766 -3,3v12c-3.30469,0 -6,-2.69531 -6,-6c0,-1.65234 -1.34766,-3 -3,-3c-1.65234,0 -3,1.34766 -3,3c0,6.62109 5.37891,12 12,12v3c0,1.65234 1.34766,3 3,3c1.65234,0 3,-1.34766 3,-3v-3c6.62109,0 12,-5.37891 12,-12v-6c0,-6.62109 -5.37891,-12 -12,-12v-12c0,-1.65234 -1.34766,-3 -3,-3c-1.65234,0 -3,1.34766 -3,3v12c-3.30469,0 -6,-2.69531 -6,-6v-6c0,-3.30469 2.69531,-6 6,-6h6c3.30469,0 6,2.69531 6,6c0,1.65234 1.34766,3 3,3c1.65234,0 3,-1.34766 3,-3c0,-6.62109 -5.37891,-12 -12,-12v-3c0,-1.65234 -1.34766,-3 -3,-3zM150.11719,96c-3.31641,0 -6,2.68359 -6,6c0,3.31641 2.68359,6 6,6c3.3164,0 6,-2.68359 6,-6c0,-3.31641 -2.6836,-6 -6,-6zM47.20313,139.28906c-0.75,0.11719 -1.46484,0.52734 -1.95703,1.19531l-3.52734,4.86328c-0.97266,1.33594 -0.66797,3.21094 0.66797,4.18359c0.53906,0.38672 1.14844,0.57422 1.76953,0.57422c0.92578,0 1.83984,-0.43359 2.42578,-1.23047l3.52734,-4.86328c0.97266,-1.33594 0.66797,-3.21094 -0.66797,-4.18359c-0.66797,-0.49219 -1.47656,-0.65625 -2.23828,-0.53906zM132.79688,139.28906c-0.76172,-0.11719 -1.57031,0.04688 -2.23828,0.53906c-1.33594,0.97266 -1.64062,2.84766 -0.66797,4.18359l3.52734,4.86328c0.58594,0.79688 1.5,1.23047 2.42578,1.23047c0.62109,0 1.23047,-0.1875 1.76953,-0.57422c1.33594,-0.97266 1.64063,-2.84766 0.66797,-4.18359l-3.52734,-4.86328c-0.49219,-0.66797 -1.20703,-1.07812 -1.95703,-1.19531zM60.77344,146.77734c-1.17187,-0.02344 -2.29687,0.64453 -2.80078,1.78125l-2.4375,5.47266c-0.67969,1.52344 0.01172,3.29297 1.52344,3.97266c0.39844,0.17578 0.8086,0.25781 1.21875,0.25781c1.14844,0 2.25,-0.66797 2.74219,-1.79297l2.4375,-5.47266c0.66797,-1.51172 -0.01172,-3.29297 -1.52344,-3.96094c-0.375,-0.16406 -0.77344,-0.24609 -1.16015,-0.25781zM119.22656,146.77734c-0.38672,0.01172 -0.78516,0.09375 -1.16016,0.25781c-1.51172,0.67969 -2.19141,2.44922 -1.52344,3.96094l2.4375,5.47266c0.49219,1.125 1.59375,1.79297 2.74219,1.79297c0.41016,0 0.82031,-0.08203 1.21875,-0.25781c1.51172,-0.67969 2.19141,-2.44922 1.52344,-3.97266l-2.4375,-5.47266c-0.5039,-1.13672 -1.6289,-1.80469 -2.80078,-1.78125zM74.46094,151.47656c-1.14844,0.22265 -2.10937,1.11328 -2.36719,2.32031l-1.25391,5.87109c-0.33984,1.62891 0.70313,3.22266 2.32031,3.5625c0.21094,0.04688 0.42188,0.07031 0.62109,0.07031c1.39453,0 2.63672,-0.97266 2.94141,-2.37891l1.24219,-5.87109c0.33985,-1.61719 -0.6914,-3.21094 -2.30859,-3.55078c-0.41016,-0.09375 -0.80859,-0.09375 -1.19531,-0.02344zM105.52734,151.47656c-0.375,-0.07031 -0.78515,-0.07031 -1.18359,0.02344c-1.61719,0.33984 -2.64844,1.93359 -2.30859,3.55078l1.24219,5.87109c0.30469,1.40625 1.54688,2.37891 2.94141,2.37891c0.19922,0 0.41016,-0.02344 0.62109,-0.07031c1.61719,-0.33984 2.66016,-1.93359 2.32031,-3.5625l-1.25391,-5.87109c-0.25781,-1.20703 -1.23047,-2.09766 -2.37891,-2.32031zM90,153c-1.65234,0 -3,1.34766 -3,3v6c0,1.65234 1.34766,3 3,3c1.65234,0 3,-1.34766 3,-3v-6c0,-1.65234 -1.34766,-3 -3,-3z"></path></g></g></g></svg>
