
<svg width="101px" height="121px" viewBox="0 0 101 121" version="1.1" xmlns="http://www.w3.org/2000/svg" xmlns:xlink="http://www.w3.org/1999/xlink">
    <defs>
        <linearGradient x1="34.1926971%" y1="17.228701%" x2="96.9821021%" y2="124.215885%" id="linearGradient-1">
            <stop stop-color="#1E87F0" offset="0%"></stop>
            <stop stop-color="#1E3E5C" offset="100%"></stop>
        </linearGradient>
    </defs>
    <g id="Landing-page" stroke="none" stroke-width="1" fill="none" fill-rule="evenodd">
        <g id="Landing-page---v2" transform="translate(-672.000000, -1028.000000)" fill="url(#linearGradient-1)" fill-rule="nonzero">
            <g id="Group-22" transform="translate(128.000000, 841.000000)">
                <g id="Group-8" transform="translate(461.000000, 187.479670)">
                    <g id="Group-16" transform="translate(0.319147, 0.170795)">
                        <path d="M144.451342,82.9344618 C147.230202,79.9351649 150.830641,77.7079662 154.894926,76.6106002 L154.894926,62.459056 L88.894926,62.459056 L88.894926,95.1848197 L138.736307,95.1848197 C139.046501,92.7043871 139.767618,90.351664 140.829366,88.1969412 L99.2642405,88.1969327 C97.7753442,88.1969327 96.5682446,86.9898331 96.5682446,85.5009368 C96.5682446,84.0120404 97.7753442,82.8049407 99.2642405,82.8049407 L143.623258,82.8049407 C143.912134,82.8049407 144.190403,82.8503806 144.451305,82.9345024 Z M138.798381,101.18482 L85.894926,101.18482 C84.2380718,101.18482 82.894926,99.8416739 82.894926,98.1848197 L82.894926,59.459056 C82.894926,57.8022017 84.2380718,56.459056 85.894926,56.459056 L157.894926,56.459056 C159.55178,56.459056 160.894926,57.8022017 160.894926,59.459056 L160.894926,75.8491881 C173.002269,75.9686494 182.780237,85.8204715 182.780237,97.9560604 C182.780237,110.165955 172.882162,120.064031 160.672267,120.064031 C149.55911,120.064031 140.361113,111.864259 138.798381,101.18482 Z M112.014914,18.1022777 C110.526017,18.1022777 109.318918,16.8951783 109.318918,15.4062818 C109.318918,13.9173856 110.526017,12.7102859 112.014914,12.7102859 L125.311515,12.7102859 C126.800411,12.7102859 128.007511,13.9173856 128.007511,15.4062818 C128.007511,16.8951783 126.800411,18.1022777 125.311515,18.1022777 L112.014914,18.1022777 Z M99.2642405,31.7378768 C97.7753442,31.7378768 96.5682446,30.5307771 96.5682446,29.0418809 C96.5682446,27.5529844 97.7753442,26.3458847 99.2642405,26.3458847 L143.623258,26.3458847 C145.112154,26.3458847 146.319254,27.5529844 146.319254,29.0418809 C146.319254,30.5307771 145.112154,31.7378768 143.623258,31.7378768 L99.2642405,31.7378768 Z M99.2642405,18.1022777 C97.7753442,18.1022777 96.5682446,16.8951783 96.5682446,15.4062818 C96.5682446,13.9173856 97.7761854,12.7102859 99.2642405,12.7102859 L103.899167,12.7102859 C105.388063,12.7102859 106.595162,13.9173856 106.595162,15.4062818 C106.595162,16.8951783 105.388063,18.1022777 103.899167,18.1022777 L99.2642405,18.1022777 Z M88.894926,6 L88.894926,38.7257637 L154.894926,38.7257637 L154.894926,6 L88.894926,6 Z M85.894926,-8.8817842e-14 L157.894926,-8.8817842e-14 C159.55178,-8.8817842e-14 160.894926,1.34314575 160.894926,3 L160.894926,41.7257637 C160.894926,43.382618 159.55178,44.7257637 157.894926,44.7257637 L85.894926,44.7257637 C84.2380718,44.7257637 82.894926,43.382618 82.894926,41.7257637 L82.894926,3 C82.894926,1.34314575 84.2380718,-8.8817842e-14 85.894926,-8.8817842e-14 Z M112.014914,74.5613337 C110.526017,74.5613337 109.318918,73.3542343 109.318918,71.8653378 C109.318918,70.3764415 110.526017,69.1693419 112.014914,69.1693419 L125.311515,69.1693419 C126.800411,69.1693419 128.007511,70.3764415 128.007511,71.8653378 C128.007511,73.3542343 126.800411,74.5613337 125.311515,74.5613337 L112.014914,74.5613337 Z M99.2642405,74.5613337 C97.7753442,74.5613337 96.5682446,73.3542343 96.5682446,71.8653378 C96.5682446,70.3764415 97.7761854,69.1693419 99.2642405,69.1693419 L103.899167,69.1693419 C105.388063,69.1693419 106.595162,70.3764415 106.595162,71.8653378 C106.595162,73.3542343 105.388063,74.5613337 103.899167,74.5613337 L99.2642405,74.5613337 Z M158.814613,105.064482 C158.110959,105.075034 157.404009,104.811929 156.867483,104.275403 L151.757039,99.1649597 C150.704231,98.112151 150.704231,96.4050543 151.757039,95.3522457 C152.809848,94.2994369 154.516945,94.299437 155.569753,95.3522457 L158.814614,98.5971067 L165.774781,91.6369404 C166.827589,90.5841318 168.534686,90.5841318 169.587495,91.6369404 C170.640303,92.6897492 170.640303,94.3968457 169.587495,95.4496544 L160.761746,104.275403 C160.225219,104.81193 159.518267,105.075035 158.814613,105.064482 Z M160.672267,114.064031 C169.568453,114.064031 176.780237,106.852247 176.780237,97.9560604 C176.780237,89.0598741 169.568453,81.8480901 160.672267,81.8480901 C151.776081,81.8480901 144.564297,89.0598741 144.564297,97.9560604 C144.564297,106.852247 151.776081,114.064031 160.672267,114.064031 Z" id="Combined-Shape"></path>
                    </g>
                </g>
            </g>
        </g>
    </g>
</svg>