<svg width="105px" height="120px"  viewBox="0 0 117 134" version="1.1" xmlns="http://www.w3.org/2000/svg" xmlns:xlink="http://www.w3.org/1999/xlink">
    <defs>
        <linearGradient x1="50%" y1="0%" x2="104.529474%" y2="110.395955%" id="linearGradient-1">
            <stop stop-color="#1E87F0" offset="0%"></stop>
            <stop stop-color="#1E3E5C" offset="100%"></stop>
        </linearGradient>
    </defs>
    <g id="Landing-page" stroke="none" stroke-width="1" fill="none" fill-rule="evenodd">
        <g id="Landing-page---v2" transform="translate(-1047.000000, -1016.000000)" fill="url(#linearGradient-1)" fill-rule="nonzero">
            <g id="Group-22" transform="translate(128.000000, 841.000000)">
                <g id="Group-19" transform="translate(844.000000, 163.479670)">
                    <g id="Group-30" transform="translate(0.138293, 0.287477)">
                        <path d="M172.794952,100.623229 C183.364722,102.281029 191.449929,111.427877 191.449929,122.463126 C191.449929,134.673021 181.551854,144.571096 169.341959,144.571096 C158.209872,144.571096 148.999475,136.343365 147.460153,125.63729 L97.7949522,125.63729 C96.1380979,125.63729 94.7949522,124.294144 94.7949522,122.63729 L94.7949522,98.8644988 C83.6850796,97.6957375 75.0269708,88.2984215 75.0269708,76.8788959 C75.0269708,65.4593703 83.6850796,56.0620543 94.7949522,54.893293 L94.7949522,36.883318 C94.7949522,35.2264638 96.1380979,33.883318 97.7949522,33.883318 L139.898161,33.883318 C139.898107,33.9046545 139.898077,33.9259981 139.898077,33.9473488 C139.919708,21.7558491 149.809492,11.8793902 162.006047,11.8793902 C174.215942,11.8793902 184.114018,21.7774657 184.114018,33.9873605 C184.114018,42.2793773 179.54895,49.5051653 172.794955,53.2885833 L172.794952,100.623229 Z M166.794952,100.500285 L166.794952,55.5752594 C165.252938,55.9157964 163.650459,56.0953309 162.006047,56.0953309 C151.837944,56.0953309 143.273124,49.2308646 140.692971,39.883318 L100.794952,39.883318 L100.794952,55.0724781 C104.922377,55.7601178 108.662967,57.5912122 111.680118,60.2291566 L156.031995,60.2292028 C157.520891,60.2292028 158.727991,61.4363024 158.727991,62.9251989 C158.727991,64.4140951 157.520891,65.6211948 156.031995,65.6211948 L116.165958,65.6211948 C117.569701,67.9891054 118.544085,70.6414883 118.981883,73.4711275 L135.585326,73.4711275 C137.074222,73.4711275 138.281322,74.6790683 138.281322,76.1671234 C138.281322,77.6560199 137.074222,78.8631193 135.585326,78.8631193 L119.155077,78.8631193 C118.260067,88.9247859 110.624504,97.0476848 100.794952,98.6853137 L100.794952,119.63729 L147.412895,119.63729 C148.694201,109.594398 156.713569,101.656715 166.794952,100.500285 Z M124.42365,51.9855958 C122.934754,51.9855958 121.727654,50.7784963 121.727654,49.2895998 C121.727654,47.8007036 122.934754,46.5936039 124.42365,46.5936039 L137.720252,46.5936039 C139.209148,46.5936039 140.416248,47.8007036 140.416248,49.2895998 C140.416248,50.7784963 139.209148,51.9855958 137.720252,51.9855958 L124.42365,51.9855958 Z M111.672977,51.9855958 C110.184081,51.9855958 108.976981,50.7784963 108.976981,49.2895998 C108.976981,47.8007036 110.184922,46.5936039 111.672977,46.5936039 L116.307903,46.5936039 C117.796799,46.5936039 119.003899,47.8007036 119.003899,49.2895998 C119.003899,50.7784963 117.796799,51.9855958 116.307903,51.9855958 L111.672977,51.9855958 Z M147.742123,73.7091827 L147.816147,73.7663833 C149.001376,74.6664505 149.233542,76.3572312 148.333475,77.5433011 C147.803529,78.2423253 146.998516,78.6090817 146.184249,78.6090817 C145.61645,78.6090817 145.043603,78.4307506 144.556557,78.0614706 L144.482533,78.0051114 C143.296463,77.105044 143.065137,75.4142635 143.965205,74.2281934 C144.865272,73.0421233 146.556052,72.8091153 147.742123,73.7091827 Z M111.672977,106.17144 C113.161874,106.17144 114.368973,107.37854 114.368973,108.867436 L114.368973,111.34893 C114.368973,112.836985 113.161874,114.044926 111.672977,114.044926 C110.184081,114.044926 108.976981,112.836985 108.976981,111.34893 L108.976981,108.867436 C108.976981,107.37854 110.184081,106.17144 111.672977,106.17144 Z M162.006047,50.0953309 C170.902234,50.0953309 178.114018,42.8835469 178.114018,33.9873605 C178.114018,25.0911742 170.902234,17.8793902 162.006047,17.8793902 C153.109861,17.8793902 145.898077,25.0911742 145.898077,33.9873605 C145.898077,42.8835469 153.109861,50.0953309 162.006047,50.0953309 Z M161.156047,26.3473605 C161.156047,25.7673605 161.616047,25.3073605 162.196047,25.3073605 C162.776047,25.3073605 163.236047,25.7673605 163.236047,26.3473605 L163.236047,26.6273605 C164.316047,26.7873605 165.276047,27.1073605 166.136047,27.5873605 C166.516047,27.8073605 166.856047,28.1873605 166.856047,28.7873605 C166.856047,29.5473605 166.256047,30.1273605 165.496047,30.1273605 C165.256047,30.1273605 165.016047,30.0673605 164.796047,29.9473605 C164.236047,29.6473605 163.676047,29.4073605 163.136047,29.2673605 L163.136047,32.3073605 C166.176047,33.1273605 167.476047,34.3673605 167.476047,36.6073605 C167.476047,38.8473605 165.756047,40.2873605 163.236047,40.5673605 L163.236047,41.6273605 C163.236047,42.2073605 162.776047,42.6673605 162.196047,42.6673605 C161.616047,42.6673605 161.156047,42.2073605 161.156047,41.6273605 L161.156047,40.5473605 C159.736047,40.3673605 158.396047,39.8673605 157.216047,39.1473605 C156.796047,38.8873605 156.536047,38.4873605 156.536047,37.9473605 C156.536047,37.1673605 157.136047,36.5873605 157.916047,36.5873605 C158.176047,36.5873605 158.456047,36.6873605 158.696047,36.8473605 C159.536047,37.3873605 160.336047,37.7673605 161.256047,37.9673605 L161.256047,34.7873605 C158.376047,34.0073605 156.956047,32.9073605 156.956047,30.5273605 C156.956047,28.3273605 158.636047,26.8473605 161.156047,26.5873605 L161.156047,26.3473605 Z M164.556047,36.7673605 C164.556047,36.1073605 164.216047,35.6673605 163.136047,35.2873605 L163.136047,38.0673605 C164.076047,37.9273605 164.556047,37.4873605 164.556047,36.7673605 Z M159.876047,30.3473605 C159.876047,30.9673605 160.156047,31.3873605 161.256047,31.7873605 L161.256047,29.0873605 C160.296047,29.2273605 159.876047,29.7073605 159.876047,30.3473605 Z M97.1349412,92.9868662 C106.031128,92.9868662 113.242912,85.7750823 113.242912,76.8788959 C113.242912,67.9827095 106.031128,60.7709256 97.1349412,60.7709256 C88.2387548,60.7709256 81.0269708,67.9827095 81.0269708,76.8788959 C81.0269708,85.7750823 88.2387548,92.9868662 97.1349412,92.9868662 Z M96.2849412,69.2388959 C96.2849412,68.6588959 96.7449412,68.1988959 97.3249412,68.1988959 C97.9049412,68.1988959 98.3649412,68.6588959 98.3649412,69.2388959 L98.3649412,69.5188959 C99.4449412,69.6788959 100.404941,69.9988959 101.264941,70.4788959 C101.644941,70.6988959 101.984941,71.0788959 101.984941,71.6788959 C101.984941,72.4388959 101.384941,73.0188959 100.624941,73.0188959 C100.384941,73.0188959 100.144941,72.9588959 99.9249412,72.8388959 C99.3649412,72.5388959 98.8049412,72.2988959 98.2649412,72.1588959 L98.2649412,75.1988959 C101.304941,76.0188959 102.604941,77.2588959 102.604941,79.4988959 C102.604941,81.7388959 100.884941,83.1788959 98.3649412,83.4588959 L98.3649412,84.5188959 C98.3649412,85.0988959 97.9049412,85.5588959 97.3249412,85.5588959 C96.7449412,85.5588959 96.2849412,85.0988959 96.2849412,84.5188959 L96.2849412,83.4388959 C94.8649412,83.2588959 93.5249412,82.7588959 92.3449412,82.0388959 C91.9249412,81.7788959 91.6649412,81.3788959 91.6649412,80.8388959 C91.6649412,80.0588959 92.2649412,79.4788959 93.0449412,79.4788959 C93.3049412,79.4788959 93.5849412,79.5788959 93.8249412,79.7388959 C94.6649412,80.2788959 95.4649412,80.6588959 96.3849412,80.8588959 L96.3849412,77.6788959 C93.5049412,76.8988959 92.0849412,75.7988959 92.0849412,73.4188959 C92.0849412,71.2188959 93.7649412,69.7388959 96.2849412,69.4788959 L96.2849412,69.2388959 Z M99.6849412,79.6588959 C99.6849412,78.9988959 99.3449412,78.5588959 98.2649412,78.1788959 L98.2649412,80.9588959 C99.2049412,80.8188959 99.6849412,80.3788959 99.6849412,79.6588959 Z M95.0049412,73.2388959 C95.0049412,73.8588959 95.2849412,74.2788959 96.3849412,74.6788959 L96.3849412,71.9788959 C95.4249412,72.1188959 95.0049412,72.5988959 95.0049412,73.2388959 Z M169.341959,138.571096 C178.238145,138.571096 185.449929,131.359312 185.449929,122.463126 C185.449929,113.566939 178.238145,106.355155 169.341959,106.355155 C160.445773,106.355155 153.233989,113.566939 153.233989,122.463126 C153.233989,131.359312 160.445773,138.571096 169.341959,138.571096 Z M168.491959,114.823126 C168.491959,114.243126 168.951959,113.783126 169.531959,113.783126 C170.111959,113.783126 170.571959,114.243126 170.571959,114.823126 L170.571959,115.103126 C171.651959,115.263126 172.611959,115.583126 173.471959,116.063126 C173.851959,116.283126 174.191959,116.663126 174.191959,117.263126 C174.191959,118.023126 173.591959,118.603126 172.831959,118.603126 C172.591959,118.603126 172.351959,118.543126 172.131959,118.423126 C171.571959,118.123126 171.011959,117.883126 170.471959,117.743126 L170.471959,120.783126 C173.511959,121.603126 174.811959,122.843126 174.811959,125.083126 C174.811959,127.323126 173.091959,128.763126 170.571959,129.043126 L170.571959,130.103126 C170.571959,130.683126 170.111959,131.143126 169.531959,131.143126 C168.951959,131.143126 168.491959,130.683126 168.491959,130.103126 L168.491959,129.023126 C167.071959,128.843126 165.731959,128.343126 164.551959,127.623126 C164.131959,127.363126 163.871959,126.963126 163.871959,126.423126 C163.871959,125.643126 164.471959,125.063126 165.251959,125.063126 C165.511959,125.063126 165.791959,125.163126 166.031959,125.323126 C166.871959,125.863126 167.671959,126.243126 168.591959,126.443126 L168.591959,123.263126 C165.711959,122.483126 164.291959,121.383126 164.291959,119.003126 C164.291959,116.803126 165.971959,115.323126 168.491959,115.063126 L168.491959,114.823126 Z M171.891959,125.243126 C171.891959,124.583126 171.551959,124.143126 170.471959,123.763126 L170.471959,126.543126 C171.411959,126.403126 171.891959,125.963126 171.891959,125.243126 Z M167.211959,118.823126 C167.211959,119.443126 167.491959,119.863126 168.591959,120.263126 L168.591959,117.563126 C167.631959,117.703126 167.211959,118.183126 167.211959,118.823126 Z" id="Combined-Shape"></path>
                    </g>
                </g>
            </g>
        </g>
    </g>
</svg>