<svg xmlns="http://www.w3.org/2000/svg" x="0px" y="0px"
width="64" height="64"
viewBox="0 0 192 192"
style=" fill:#000000;"><g fill="none" fill-rule="nonzero" stroke="none" stroke-width="1" stroke-linecap="butt" stroke-linejoin="miter" stroke-miterlimit="10" stroke-dasharray="" stroke-dashoffset="0" font-family="none" font-weight="none" font-size="none" text-anchor="none" style="mix-blend-mode: normal"><path d="M0,192v-192h192v192z" fill="none"></path><g fill="#1e87f0"><g id="surface1"><path d="M87,0c-4.95703,0 -9,4.04297 -9,9v9.46875c-43.75781,4.51172 -78,41.60156 -78,86.53125c0,47.96484 39.03516,87 87,87c47.96484,0 87,-39.03516 87,-87c0,-19.60547 -6.52734,-37.71094 -17.49609,-52.26562l6.29297,-6.31641l2.75391,2.75391c1.16016,1.16016 2.69531,1.74609 4.23047,1.74609c1.54688,0 3.08203,-0.58594 4.25391,-1.74609l4.24219,-4.25391c2.34375,-2.33203 2.34375,-6.14062 0,-8.48437l-21.21094,-21.21094c-2.34375,-2.33203 -6.15234,-2.33203 -8.48437,0l-4.25391,4.24219c-2.33203,2.34375 -2.33203,6.15235 0,8.4961l2.75391,2.74219l-6.12891,6.11719c-12.63281,-10.00781 -28.07812,-16.61719 -44.95312,-18.35156v-9.46875c0,-4.95703 -4.04297,-9 -9,-9zM87,6c1.65234,0 3,1.34766 3,3v9h-6v-9c0,-1.65234 1.34766,-3 3,-3zM152.8125,19.47656l21.22266,21.21094l-4.24219,4.24219l-21.21094,-21.21094zM87,24c44.66016,0 81,36.33984 81,81c0,44.66016 -36.33984,81 -81,81c-44.66016,0 -81,-36.33984 -81,-81c0,-44.66016 36.33984,-81 81,-81zM151.3125,34.93359l7.25391,7.25391l-5.88281,5.85938c-2.23828,-2.57812 -4.60547,-5.03906 -7.13672,-7.34766zM87,36c-1.65234,0 -3,1.34766 -3,3v12c0,1.65234 1.34766,3 3,3c1.66406,0 3,-1.34766 3,-3v-8.84766c33.33984,1.58203 60,29.1211 60,62.84766c0,16.79297 -6.52734,32.57813 -18.375,44.47266c-1.17187,1.17188 -1.17187,3.07031 0,4.24219c0.58594,0.58594 1.35938,0.87891 2.12109,0.87891c0.77344,0 1.53516,-0.29297 2.1211,-0.87891c12.98438,-13.03125 20.13281,-30.32812 20.13281,-48.71484c0,-37.04297 -29.34375,-67.34766 -66,-68.91797c-0.99609,-0.04687 -1.99219,-0.08203 -3,-0.08203zM40.32422,55.32422c-0.76172,0 -1.52344,0.29297 -2.12109,0.87891c-13.01953,13.04297 -20.20312,30.36328 -20.20312,48.79688c0,18.43359 7.18359,35.76563 20.21484,48.79688c0.58594,0.58594 1.34766,0.89063 2.1211,0.89063c0.77344,0 1.53515,-0.30469 2.12109,-0.89062c1.17188,-1.17187 1.17188,-3.05859 0,-4.23047c-11.90625,-11.90625 -18.45703,-27.73828 -18.45703,-44.56641c0,-16.82812 6.55078,-32.64844 18.45703,-44.54297c1.17188,-1.18359 1.17188,-3.07031 0,-4.25391c-0.59766,-0.58594 -1.35937,-0.87891 -2.13281,-0.87891zM87,60c-1.66406,0 -3,1.33594 -3,3v6c0,1.66406 1.33594,3 3,3c1.66406,0 3,-1.33594 3,-3v-6c0,-1.66406 -1.33594,-3 -3,-3zM51,66c-0.76172,0 -1.53516,0.29297 -2.12109,0.87891c-1.17187,1.17188 -1.17187,3.07031 0,4.24219l30.02344,30.02344c-0.5625,1.17188 -0.90234,2.47266 -0.90234,3.85547c0,4.95703 4.04297,9 9,9c4.95703,0 9,-4.04297 9,-9c0,-4.95703 -4.04297,-9 -9,-9c-1.38281,0 -2.68359,0.33984 -3.85547,0.90234l-30.02344,-30.02344c-0.58594,-0.58594 -1.35937,-0.87891 -2.12109,-0.87891zM58.125,154.18359c-1.17187,-0.14062 -2.35547,0.39844 -2.96484,1.47656l-3,5.19141c-0.83203,1.4414 -0.33984,3.26953 1.08984,4.10156c0.46875,0.26953 0.98438,0.39844 1.5,0.39844c1.03125,0 2.03906,-0.53906 2.58984,-1.5l3,-5.19141c0.83203,-1.42969 0.35156,-3.26953 -1.08984,-4.10156c-0.36328,-0.19922 -0.75,-0.32812 -1.125,-0.375zM115.875,154.18359c-0.38672,0.04688 -0.77344,0.17578 -1.125,0.375c-1.44141,0.83203 -1.92187,2.67188 -1.08984,4.11328l3,5.19141c0.55078,0.96094 1.55859,1.5 2.58984,1.5c0.51563,0 1.03125,-0.14062 1.5,-0.41016c1.44141,-0.83203 1.92188,-2.66016 1.08984,-4.08984l-3,-5.19141c-0.60937,-1.07812 -1.80469,-1.62891 -2.96484,-1.48828zM71.44922,160.03125c-1.16015,0.16406 -2.16797,0.99609 -2.49609,2.20313l-1.54687,5.80078c-0.43359,1.59375 0.52734,3.23438 2.12109,3.66797c0.25781,0.07031 0.51563,0.09375 0.78516,0.09375c1.3125,0 2.53125,-0.87891 2.89453,-2.21484l1.55859,-5.80078c0.42188,-1.59375 -0.52734,-3.24609 -2.12109,-3.66797c-0.39844,-0.11719 -0.80859,-0.14062 -1.19531,-0.08203zM102.5625,160.03125c-0.38672,-0.05859 -0.79687,-0.03516 -1.20703,0.08203c-1.59375,0.42188 -2.54297,2.07422 -2.12109,3.66797l1.55859,5.80078c0.36328,1.33594 1.57031,2.21484 2.89453,2.21484c0.26953,0 0.52734,-0.02344 0.78516,-0.09375c1.59375,-0.43359 2.55469,-2.07422 2.12109,-3.66797l-1.54687,-5.80078c-0.32812,-1.20703 -1.33594,-2.03906 -2.48437,-2.20312zM87,162c-1.66406,0 -3,1.33594 -3,3v6c0,1.66406 1.33594,3 3,3c1.66406,0 3,-1.33594 3,-3v-6c0,-1.66406 -1.33594,-3 -3,-3z"></path></g></g></g></svg>
